<svg xmlns="http://www.w3.org/2000/svg" xml:space="preserve" viewBox="118 229 1441 468"><path fill="#a9732d" d="M611.4 610q2.2 6.9-5.2 6-2.9-.2-7.2 0h-7.4l-50 .2H266l-30.4-.3q-41.2.2-83.2-.6-.5-2.1-.4-3.5c0-8.8 0-8.8 8.6-8.8H591c2.7 0 5.4-1 8.4-1.5 2.1 0 3.8.2 5.9.5 5.4.4 4.1 5.4 6.2 8"/><path fill="#a16d2a" d="M619.4 627.9c1.5 5-1.6 5-5.2 5H142c0-3.8 0-6.9.5-10.5q16-1 31.3-1.4c2.1 0 4.2-.7 6.3-1.1q.4-.1 1.9.2 2.5.8 4 1l44.8-.1c1.4 0 2.8-.7 4.2-1a39 39 0 0 1 5.9 0q1.6.8 2.2.8 27 .7 54.3 1c7 .1 14-.7 21-.7l89.7.6c15.5 0 30.9-.6 46.3-.6h68.9q3.2-.3 7.2-1.3c3.8 0 7.1 0 10.8.3q3.6.9 6.7 1 28.8-.2 57.7 0c5.4 0 11.8-.8 13.7 6.8"/><path fill="#b1792e" d="M603.2 585.1q.1 0-.1 1-.2 3.3 0 6l.3 5H173q-6.4.1-13.5-.5c-.4-12.3-2.1-11.6 10.4-11.6h131.5z"/><path fill="#e1a849" d="m1513.8 323-39 49a81 81 0 0 1-7.4 8.1c-1.5-1-2.4-2.3-3.6-3-7.2-4-7.5-4.6-6.5-12.4q-.1-.1.4-.4 1.4-1.2 2.1-2.4l.3-.1.8-1h.3q1.4-1.6 2.2-3.1l.3-.3q.6-.4.7-.8 0 0 .2-.3.6-.3.7-.6-.1-.1.4-.4 1.4-1.3 2.1-2.4l.3-.1.8-1h.3q1.4-1.6 2.3-3.1l.3-.2 1.1-1.5.3-.2q1.1-1 1.7-2c-1.7-.3-3.3-1-5-1-22.3 0-44.6.3-67 0-21-.4-36.2 8.2-44.5 28-1.1 2.6-2.1 5.4-6.7 3.3q8.4-25.7 18-52 72.6-.2 144.1-.1"/><path fill="#d69c44" d="m480 357-118.8-.2-213.7-.1c-1.9 0-3.7-1.8-5.4-3.3q1.6-1.8 2.9-2.8 0 .2.2.2l16.8-7.1q0 .1.2.2 20.2-7.4 40-15 28.9-11.6 57.8-23.3c1.4-.6 3.4.2 5 .5l-1.2 1.3q-2 .9-4 1.4-.2 0-.8.5-1 .6-2.3.5-2.4.9-5 2.4l-2.8 1q-.5 0-1 .6l-91.6 37.3.2.6h452c-10.1-4.4-18.8-8.2-27.5-12.2q2.7-1.2 5-1.2 3.6.6 7 1.7l29.2 11.7c-1 4.2-3.2 5.2-6.9 5.2l-133-.1q-1.6 0-2.3.2"/><path fill="#d29741" d="m611.1 364-1.2 5.6q-7.4 0-15.4.2h-1.4l-3.3-.3h-8.3l-67.7-.1-61.1-.6q-6.1 0-12.1.4-2.6 0-4.8-.3-2 0-4.3.3-19.5 0-38.8-.3-6-.1-12.2.2c-8.8 0-17.1 0-25.8-.2q-10-.1-20.2.2-20 0-39.8-.2-11.5-.2-23.2.3-6 .1-11.9-.4-16.4-.6-32.4-.8c-1.7 0-3.5.7-5.7 1.2h-15c-4.8 0-9.1 0-13.8-.3a129 129 0 0 0-16 .7h-2.1q-7.3 0-13.6.2l-6.5-.5q-.9-2.6-1-5.7 59-.5 117.4-.5l307.3-.2q8.3 0 15.9.3c2.4.1 6.2-1 6 3.7 1.6 0 4.7.4 4.9-.2 1-3.5 3.8-2.5 6.1-2.6m-18.1 3.1h-2.1v.7q1.2 0 2-.7"/><path fill="#be8635" d="M1485 527.4s-.3-.2.2-.2c2.1.2 4 1 5.3.6 3-.9 5.8-2.4 8.7-3.6-1.1-2.3-1.7-5.3-3.6-6.8-4.8-4.2-7.9-8.7-6.2-15.4q5-2.1 9.4-4.2 9-4.4 18.5-8.8.5 0 .8.3l2 2 .9 1.7v4.7q.5 2.7 1.1 4.3.1.7-.3 1.7c-2.5 1.3-5 1.8-6.4 3.4s-3.2 4.6-2.6 6.2c.8 2 3.6 3.2 5.7 4.6.6.4 1.6 0 2.5.1a65 65 0 0 1-9.4 30.7 67 67 0 0 1-26.3 28c-2.5-2.5-4.2-5.3-6.7-6.8-6-3.6-9.2-8.2-8-15.4h.5q.5-.7.9-1.6h.3c3.5-3 8.1-5.5 9.7-9.2 2.2-4.9 2-10.8 3-16.3"/><path fill="#d69c41" d="M334.2 431.8c3.7 1.2 4.5 3.7 4.6 7.6.2 26.2.7 52.4.7 79q-1.8.8-3.2 0l-1.3-81.6h-2.2q-.4 3.4-.6 6.8.4 47.8.4 95.2-1.3-3.3-1.5-6.4v-40.2c-1.1 13.8-1 27.7-1.2 41.6 0 2.4-.6 4.8-1 6.8l-1-104.2h-2.7c-.9 28.5.4 57-.6 85.4q-1.4-3.1-1.5-5.9-.1-12.4 0-24.7c-1 1.6-1 3.3-1 5q0 24.8-.2 49.8c0 2-1 4-1.5 5.5l-.3-115.2h-2.2c-.3 1.7-.9 3.5-.9 5.2q0 43.8-.6 87.2-1.1-3.3-1.3-6.4v-48c-1.1 16-1 31.9-1.2 47.8 0 2-1.1 3.9-1.7 5.4l-.1-91.2-2.2-.2q-.6 2.7-.8 5.2-.3 40.9-.4 81.8 0 15 0 29.7-1.4-6-1.6-11.4v-50.2c-1.1 13-1 26-1.2 39 0 1.9-1.2 3.8-1.8 5.3q0-22.3.3-44 .3-25 .4-50.4c0-1.5 1.6-5-2.8-4.2l-1-3.7q.5-.4 2.3-1z"/><path fill="#d9a044" d="M994.2 556q.4-5.6.5-11V422.2c0-7.1-1-14-8-18.4q8.2-1.4 16.5-1.4c14.8 0 29.8-.1 44.6.7 8.7.6 17.3 2.8 25.9 4.4l4.8 1.2q-.2 0-.2.2l5.1 2.8q-.2.1 0 .3l.8 1s-.3-.2 0-.1l2 1v.3q2 2.2 4 3.7v.3l1.4 1.7q-.2-.1-.2 0c.9 2.9 1.8 5.4 2.4 8.3q-2 3-4 5.7c-1.2 1.2-3 2.8-4.5 2.9q-5.6 0-7.3 5.2c-5.2-25-16.2-34-41.9-33.7q-11 .2-22.8 1 .1 35.5-.4 70-1.6-2.5-1.8-5.3-.1-6.4-.1-13c-.1-3.2-1.2-4.6-4.7-2.8-1.6.8-3.8 1-5.6.6-3.7-.9-4.8.5-4.7 4v53.7l-.1 33.6c0 2-1.1 4-1.7 5.8M833.4 475l-.3-54.3c0-6.7-1.5-12.6-7.6-16.7a26 26 0 0 1 6.6-1l79-1c4 0 8-.9 11.8-1.3q1.6 3.5 2.7 6.2v21.9c-1.5-4.3-2.6-8-4.2-11.5-2.5-5-7.1-8-12.5-8.1q-28-.4-56.9-.2v71.6q0 1.3-.5 1.3c-1-3.8-1.6-7.4-2.6-12.6-4 8-9.5 7.6-15.5 5.7"/><path fill="#d69c41" d="M422 483q.4-22.5.5-45.1c0-3 1-4.8 4.5-5.8h30.8c3.7.8 4.7 3 4.7 6.7q.6 41 1 82.5-1.3-3-1.5-6.5v-21.5h-.5q-.7 5-1.6 9.2l-1.3-65.8h-2q0 41.7-.2 83-1.1-3.1-1.4-5.9v-22l-2.8 10.7v-67.2c-2 1.1-2.7 1.3-2.7 1.6q-.3 42-1 83.8-1.2-3-1.5-5.9v-18.5c-1 2.5-.7 5-1 7.4q-.7 3.8-2 6.8v-37.4c0-12.2.2-24.4-1.3-36.7a8 8 0 0 0-1.8 5q-.1 29-.6 57.6c-.6-4.6-.7-8.9-1.4-13-.3-1.8-1.8-3.4-2.8-5.5l-.2-44h-2.2q-.4 2.7-.7 5.4-.2 37.6-1.2 75.5-2.2.9-3.7 1l.1-21 .2-20.4q.2-10.5.2-21c0-6.4 1-13-.5-19.4h-1.9q-.3 23.9-1.5 47.3l-2-.7zm8.4 28 .5-3h-.7q0 1.3.2 3"/><path fill="#b57f34" d="M936.1 544q-3.3 11.8-7.2 23.4c-.4 1.1-3 2.2-4.6 2.2q-47.3.2-94.4 0c-5 0-9.9 0-15-1l3.4-.6c9.4-1 14.2-5.7 14.6-15.1.4-6.4.2-12.7.6-19.7q.2-3-.2-5.2 0-2 .2-4.9 1.2-5.8 1.5-10.8c.3-5 2-6.2 8.4-6.3 4.5-.1 6.7 1.5 6.6 6.4q-.3 18.4 0 36.9c.1 2.8 1.4 5.6 2.2 8.7q.4 1.4 1 2-.2 0 0 .1l1 .9q-.1 0 0 .2c2.8 1.1 5.4 2.7 8 2.7 12.5.3 25 .6 37.4 0 8-.4 16.3-1.6 22.3-8.1h.2q1.7-1.5 2.8-3 0 0 .2 0l.8-1q-.1-.5 1-.8c3.5-2.4 6.3-4.7 9.2-7"/><path fill="#d69c41" d="m1182.7 479.1-26.9-58.6a35 35 0 0 0-13.2-16.6q15.7-.8 31.3-.9c2 0 4.1.6 6.2 1-5.7 5-5.2 11-2.4 17.3l25.7 58.9q6.9 15.4 13.2 31.3-1.9-1.5-3.6-4-3.3-8.4-7-16.3c-1.2-2.6-3-5-4.3-7.7-.9-1.8-2-3.6-2.2-5.5q-.2-4.8-4.5-3.1z"/><path fill="#000104" d="M673 614c2.4-.7 4.8-1.9 7.3-1.9h844.6q4 .2 7.4 1.4a863 863 0 0 1-31.2.3h-403.6l-4 .1-6-.1h-338l-75.7.2z"/><path fill="#b57f34" d="M756.8 546c.7-5.4 2-10.8 2-16.1-.1-6.3-3.1-11.7-7.5-16.8q7.5-6 15-11.2a43 43 0 0 1-13 63.8c-15 8.3-31 8.7-47.5 6a71 71 0 0 1-28.5-11.3c-1.2-.9-2.7-2.5-2.7-3.7q0-14.5.3-29c0-.5.6-1 .5-.8l7.7 20.5c.7 1.7 1.4 2.6 2 3.6l.2.2 1.2.8q.4-.1.6.9 2.7 2.9 5.3 4.8-.1 0-.1.4 1.5 2 3.3 3.2a50 50 0 0 0 42.1 4c4.1-1.3 7.5-5 11.2-7.5h.2l.8-1q0 0 .2 0l.8-1h.3l5.6-9.1v.1q.2-.5 0-.9M1213 508l3.7 3.9q7.5 16.4 15.3 33c1.7-1.1 3.3-2.4 4-4q9.6-21.7 18.8-43.4c3-7 3-7 10-4.5l-29.8 67.4q-2 4.9-4.2 9.6c-.7 1.3-2 2.6-3.4 2.8-.7.2-2.3-1.4-2.8-2.6q-13.5-28.5-26.3-58c4.3-4.8 9.6-4.1 14.7-4.2"/><path fill="#d69c44" d="M536.4 527.4c.2-12.2.3-24.3.7-37.2.2-1.9 0-3 0-4.2q.2-24.2.9-48.5c0-1.7 2.1-3.5 4-5.3h31.7c3.3 1 4.3 3 4.3 6.5q.3 30.6.5 62c-.7 2.8-1.3 4.8-1.4 7q0 19.5-.2 39c0 2.1-.7 4.2-1 5.8 1.2-29.3-1-113.3-4-117 0 30.6 0 60-.3 89.5q-1.9 2.2-3.5 3.5l-.5-84.3q-.2-4-.7-8.1h-2.1q-.6 3-.7 6 0 34.5-.5 68.9-1 .1-1.6-.4l-1-6v-55.8c0-2.3-.7-4.5-1.1-7.2l-1.2-5.5-1.7.1q-.6 2.3-.9 4.4V455q-.2 45.5-.6 90.6-1.2-3.3-1.4-6.3-.2-24.4-.3-49-.1-2.9-.7-6.8 0-20.3-.2-39.8-.2-3.3-1.4-6.9l-3.5.2-4.4-.2c-1 1.8-2.3 3.8-2.3 5.7q-.7 42.1-2 84.4zm32.7-23.9v14.3h.7v-25.6h-.7z"/><path fill="#d69c41" d="M415 396.1h-68l-56 .2-58-.3c-19 0-37 .2-55 .3q-5.1 0-9.9-.3c-.7-.1-1.2-2.2-1.8-3.3 6.4-3.2 1.5-6.4.3-10.1 2.4-.6 4.4-.7 6.8-.8l3 .1 11.6.7q.1 1.3-.4 2.2h-15.1c-.6 4-1.2 7 3.3 7l21.8-.2h35.7l59.8.3 118.8.2c2.2 0 4.3-1.3 6.4-2l.1.3a8 8 0 0 0 3.5 1l48.4.3 49.3-.1q1.4 0 2.6.6 2.6 1.1 5 1.8 2.5.8 4.4 1.8l-1.6.3H415"/><path fill="#e1a849" d="M592.7 339.8c-2-.4-4.3-1.2-6.6-1.5q-2.3 0-5.4 1.1-4.7-1.5-8.6-3.7c-1-5.2-9.8-8.5-14-5.4a91 91 0 0 1-9-4.2c-.5-1.4-.8-3.3-1.7-3.7-3.2-1.6-6.7-2.7-10.8-4.2q1.6 2.5 2 4-5-2.2-9.4-4.4c.3-.9.8-2.1.6-2.2-3.2-1.7-6.4-3.6-9.8-4.8-1-.4-2.7 1-4.5 1.4q-7.5-3-14.4-6.5c.4-4.8-2.7-4.2-6-4.7.9 1.6 1.4 2.4 1.5 3.2q-53.5-22.1-106.2-44.4c-3.3-1.4-6-1.6-9.4-.2q-24.3 10.3-48.8 20.1-32.7 13.3-65.2 25.9c1.5-2 2.7-4 4.5-4.8 25.3-10.5 50.6-21.2 76.1-31 14.5-5.7 28-15 44.4-14.7l2 .8q1.2.9 1.6 1 0-.2.3.1 1.8.8 3 1l50.7 21.2zm-81.6-31.5-.1-.6zm2.5 1.2"/><path fill="#d69c41" d="m1447.2 423 1 .2q2.9.6 5 .7 0 0 .9.3 2.4.5 4 .7l.2.2q8 3 15.5 6.3-2.3 2.4-4.6 4-8.5 4.4-17.5 8.5h-3.7a82 82 0 0 0-60.6 1.7q-.5-1.7-.5-2.8.5-.8 2-1.9 3.3-3.6 6-7l.2-.1.9-.9.1-.1 1-1q-.2.2.1 0l3.7-4.2 1-1s-.3.2 0 0q1.4-1.6 2.4-3.1l.3-.2 1.3-1.4.2-.1.9-.9h.2c1.3-.7 2.6-1 3.2-2 4-5.2 9.9-4 15-4.6 1.2-.1 3.9 2.2 3.8 3.3 0 4.6 2.5 5.4 6 5.4z"/><path fill="#b37f35" d="m226.1 531.6 1.6 24.4h-43.6q-.1-20 .4-40.6 2-.8 3.3 0l-.1 34c0 1.4-1 5 3.2 2.2a624 624 0 0 0 0-30q0-4.1.6-7.6 2.2-.1 4 .5l.3 38.2h2.7q.2-18.9 1-37.7 2.4 0 4.3.7v37.1h2.9q.1-20 .8-39.8 2.4-.1 4.3.4l.3 34.8c0 1.7.7 3.3 1 5q.8-.3 1.7-.3l.4-5.2q0-23.4.3-46.9c1 1 2.2 1.8 2.4 2.9q1 6 1.8 12.7l.4 31.8c0 1.7.7 3.3 1 5l2-.3q0-16.9.2-34.3.2-12 .2-23.3h1.5v27.5c0 2.9.7 5.8 1.1 8.8m-9.6-28"/><path fill="#d19943" d="M1264.9 492.6c-7.2-2-7.1-2-10 5q-9.3 21.6-19 43.2c-.6 1.7-2.2 3-3.6 4.4q19-44.4 38.4-88.8 6.5-14.8 12.5-29.8c1.6-4.1 3-8.7 2.9-13-.2-3.1-3-6.2-4.5-9.7q15.7-.5 31.2-.5a37 37 0 0 0-16.2 19q-14 31.5-28.2 62.8-1.6 3.5-3.5 7.4"/><path fill="#c28a38" d="M1479 581.8c-16 10-33.7 14.4-52.3 15q-7.9.3-16.1-1c2.5-8.4-1.1-13.1-9.2-12l-3 .3c-8.4 1-8.4 1-6-6.9a85 85 0 0 0 54.5-3.5q3.2-1.4 6.2-.8 7 1.5 13.6 4 6.2 2.3 12.3 5"/><path fill="#dba346" d="M1447 422.6q-5.8.5-11.7.4c-3.6 0-6.1-.8-6-5.4 0-1.1-2.7-3.4-3.8-3.3-5.2.6-11.2-.6-15 4.7q-1.2 1-3.3 1.8 10.3-12 21-24l28.8-32c-.7 7.7-.4 8.2 6.8 12.3q1.6 1.2 3.4 3.3-16.4 20.1-33.4 40.1 6.7 1 13.2 2"/><path fill="#ad7d34" d="m452.3 503 2.7-11.3v22.1q.1 2.7 1.5 6.4.4 14.8.7 28.6c0 1.4 1.7 2.8 3 4q1.1-3.9 1.9-7.6l1.8-6.2v17h-42.8q-.1-18.2.5-36.6c1.5-.4 2.3-.4 3.3 0v33.4h2.3l1-34q1.3-.7 3.7-1.1.1 1.8-.8 4.2V548c0 1.7 1 3.4 1.8 5 1.2-1.7 2.6-3.4 2.6-5.2.4-14 .4-27.9.9-41.7q1.6 2 2.5 4 .8 2.5 1.6 5.8.5 18.7.6 36.9h2.5l.5-41.8q1.2-3.7 1.9-7.3c.3-2.4 0-5 1-7.4v18.5c0 2 .8 3.8 1.5 6.4q.7 16.4.7 31.8h2.7z"/><path fill="#d19943" d="M327 406.2q4.1-.6 8-1.4c5.2-1.4 10.2-2 15.1.5 5.7 2.8 8.3 8.7 6.6 14.6a12 12 0 0 1-12.3 9q-7-.3-9.6-6.8-2.2-6.4 3.4-10.6.9-.4 1.2-2.4-3 .8-6.1 1.7a47 47 0 0 1-30.8-.3c-3.2-1-6.8-1-10.9-1.2l-2.4 1.3-1.2 1.2a4 4 0 0 0 0 2l1.7-1.4 1.1-.9 1.7-.8c4.3-.5 8.6.2 9.7 4.8.7 3 .1 7-1.5 9.6-2.3 3.8-6.7 4.6-11 3.4-6.1-1.7-10-7-9.4-13 .5-6.4 5.8-11.8 12.6-11.9 4 0 8.1 1.2 12.2 2q3.3.8 7.8 2.2c4.6 0 8.4 0 12.5-.3l1.7-1.4m12.5 15.9 1.2 1.2c5.8 2.2 9 .8 9.4-3.2a64 64 0 0 1-9 1.1c-.2-.2-.4-.4-.9-1.4l-.2-3.6-1.4.1zm-44.1-.5-6.2.8c3.2 2.7 5.6 2.2 8.7-.4 1.6-2.4 1.6-4.5-.9-6.8q-.3 3.4-1.6 6.4m-8.4-1.2 1.4-6.3-2-.2q-.1 2.6.6 6.5m58-10.6-4.9-.8v1.3q2 .4 4.8-.5m4.5 5.8v4l1.8-.2q-.3-2.5-1.8-3.8m-2.5-5-.6-.4q-.2.6.6.4m1.5 1.5.2-.7q-.4 0-.2.7m1.5 1.5-.6-.4q-.1.6.6.4"/><path fill="#be8635" d="M1092 561.3c-4-3.7-8.7-6.9-12-11.1a1591 1591 0 0 1-35.5-49.3c2.8-4.5 6.3-5 11.4-1.3 3.3 2.3 6.2 2.8 9.6.6v.7l.8 1q0 0 0 .2l1 .9s-.2-.3 0 0q1.5 1.7 2.9 2.9 0 0 0 .2l.9 1v.1l1.2 1.7q0-.1 0 0 1.6 1.8 2.8 3l-.1.4c-1.5 7.9-1 8.6 6.7 9.4l1.5.2v.2q.6 1.1 1.2 1.8-.1-.2 0 0 .9 1.2 1.8 2v.3l1.1 1.7q0-.1 0 0 1 1.2 1.9 2v.3l1.1 1.7q0 .1 0 .2l1 .9q-.2 0 0 .2l.9.8q-.1 0 0 .2l1.2 1.7s0-.3 0 0l-6.4 12.2c-1.6 3.2-.7 5.7 2.9 6.3 4.7.7 9.5.8 14.2 1.3q2.6.5 4.6 1.5c-4.6.6-8.9.7-13.1 1.4-1.3.2-2.5 1.8-3.7 2.7"/><path fill="#d19943" d="M563 407.7c4.3-1 8.4-2.5 12.7-3 4.5-.3 9.4-.6 13.6.7 6 1.8 8.6 8.9 6.5 14.8-2 6.2-8.2 10.3-14 8.2-3-1-6.1-4-7.6-6.8-1.8-3.4-.4-7.2 3-9.7l2.4-2c-7.7 1.1-14.6 3-21.4 3-7 0-14-1.8-21-2.8q.2.6.7 1.1 5.9 4.2 3.8 11a9 9 0 0 1-8.6 6.6q-7.5.8-11.5-5.5c-5.2-8.2.3-19 10.1-19.5 3.6-.2 7.3.7 10.8 1.4 3.3.7 6.5 1.7 10.5 2.7q5.7 0 10-.2m-36 4.6.4 1.5 1.7-1.4 1.2-1 1-1.3q-1.2.1-3.1.7-.3.1-1.2 1.5m60.1.2h1.2L587 410l-2.3-1h-6v1.6q2.9-.1 6.2.4.6.2 2.2 1.4M580 417l1-1.7-.7-.4c-.6.6-1.3 1.1-2.2 2.5l.4 3.3 1.1-.1q-.1-1.4.4-3.6m0 3.7h-1q.1.8 1.2 2.4c2.5 1.5 4.7 1.6 7.6-.6-3-.5-5.1-.8-7.7-1.8m-45.3 1-6.7.4c3 2.6 5.6 2.8 9-.2q0-.7-.2-1.6zm55.1-8c-.8 2.8-1.7 5.5-3 9.1 4.6-2.4 4.4-5.2 3-9m-62.3 2.4-.6-3c-2.5 5-2.1 6.6 1.6 8.3-.4-1.5-.7-2.9-1-5.3m8-7.2-3.3.5.4 1.5c1.3-.6 2.6-1.2 3-2m.9 10.7h1.3l-.4-1.5c-.3.1-.6.3-1 1.5m.6-3.1-.6-.4q-.1.6.6.4M445.8 407.1c4-.6 8.1-.9 12-1.9 5.4-1.3 10.7-2.7 16 0 5.1 2.7 7.8 7.8 6.9 13.3-1 5.5-5.3 9.7-10.7 10.3-4.8.6-9.7-2.2-11.4-6.3q-2.7-6.3 5-11.7 2.8-.3 5.3 0c1.3.4 2 .6 2.9.7l.2-.7-2.7-1.6q-3.6-.1-6.8.1c-7.6 2.2-15.3 5-23.4 3.7q-11.6-2-23-4.6l-.4 1.5q1 .4 2 .7 9.5.9 9.5 8.6c-.1 5.2-4.6 9.6-10.1 9.8s-10-2.8-11.8-7.6c-2-5.4-.7-11 3.5-14.5 5.6-4.4 11.7-3.5 18-2 6.1 1.5 12.4 2 18.8 2.5zm-32 5 1.3-1.1v-1q-.8 0-2.2.7l-1 1-1 1.2q.3 4.2.9 9l1.5 1.2 3.5.4c-1.7-1.3-2.5-1.8-3.3-2.7l-.8-1.1q-.1-3 .2-6.5.1-.4.9-1m6 9.4c-.4.2-.8.5-2.2.6l-2.4.8.2 1 4.7-.5 1.7-1.5 1.2-2-.8-3.8-1.3-1h-3.8c2 .8 2.7 1 3.5 1.7q.3.3.6 1.1l-.1 2q-.3.6-1.2 1.6m54.1-.7c1.6-3 1.9-6-.8-8.6-.5 3-.9 5.6-2 8.9l.5 1.3q.8-.4 2.3-1.6m-3.2.5-7.4.8c3.7 2 6.1 3.4 7.4-.8m-8.7-2.7 1.1 3 1-.2-.3-6.9c-1 1.8-1.4 2.5-1.8 4m10.8-7q-.3-.2-.7-.3 0 .5.7.2"/><path fill="#d69c44" d="M219.6 516q-.7-6.2-1.7-12.3c-.2-1-1.4-2-2.4-3.2q-.7-32.3-.8-64.2h-2.8c-.7 25.6.3 51.1-.2 76.6q-1.8.1-4.2-.4-.6-17.6-.5-34.4v-37.5c0-1.8 1-5-3-3.7q0 .1 0-.4c-.2-4.3 2.4-4.5 5.3-4.6 3.5 0 7.5 1 9.8-3.1.4.8.6 2.2 1.2 2.4 6.8 2 5 7.7 5.2 12.3q.7 43.4 1 87.6-1.3-3.8-1.5-8.3v-27.5h-1.5q0 11.5-.3 22.8l-1.5-81.2h-2.4c-.7 26.3.5 52.7.3 79"/><path fill="#b57f34" d="M994 556.3c.8-2.3 1.8-4.2 1.9-6.2.2-11 .1-22 .5-33.6q3.3-2.4 6.1-3.7 3.3-1.4 6.7-2.4c.6 2 1.7 3.8 1.7 5.8.2 10 0 20.1.2 30.2 0 1.9 1.3 3.8 2 5.6q0 2-.2 4.8l2 12.7h-38.4c7.4-2.3 16.4-2.1 17.6-13.2"/><path fill="#be8635" d="M611 364c-2.2.2-5-.8-6 2.7-.2.6-3.3.2-5 .2.3-4.8-3.5-3.6-6-3.7-5-.4-10.2-.2-16.2-.5-2.8-.3-4.8-.6-6.8-.6H170.1q-8.7 0-17.4.4l-2.4-1.4.2-.8h463.7L612 363q-.7 1-1 1.2z"/><path fill="#ad7d34" d="M329 541c.3-2.4 1-4.8 1-7.2 0-13.9 0-27.8 1-41.6v40.2q.2 2.9 1.7 6.8.8 7.4 1.1 13.7h2.2q.4-5.3 1.1-11.2 0-8-.7-16v-6.8h3q.5 18 .4 37h-42.5q-.1-21.9.5-44.5 2-.7 3.3 0l.1 41.2 2 .1 1-16.7c.5-2 1.6-4 1.7-5.9.1-13 0-25.9 1.1-38.9v50.2q.3 5.5 2 11.4 2.4-2.1 2.8-4.6.4-10 .4-20.3c.6-2 1.7-3.9 1.7-5.8.1-16 0-31.9 1.1-47.8v48c0 2 .8 4.1 1.5 6.9q.6 10.8.6 20.5c0 2 0 4.6 3.3 2.3.5-2 1.5-4 1.5-6q.3-25 .2-49.9c0-1.6 0-3.3 1-4.9q-.2 12.3 0 24.7.1 2.7 1.6 6.3.5 13.5.5 26c0 1.6.7 3.3 1.1 5l1.8-.2z"/><path fill="#be8635" d="M1392 577.1c-2 8-2 8 6.5 7l3-.3c8-1.1 11.6 3.6 8.7 12-35.1-3.2-63-23.8-66.2-62.3-.2-1.5.7-3 1.2-4.6 1 1.3 2.7 2.5 3 4 2 8.6 6.2 16.1 11.8 23.6 1.6 4 3.3 7 7.5 7v.3q2.3 1.9 4.7 3v.4q9.9 5.1 19.8 10"/><path fill="#d19943" d="M190 420c-2.3 6.5-5.5 9.2-11 9-6-.4-10.6-4.4-11.7-10.4-1-5.5 1.9-11.2 7-13.6 6.4-3 12.8-1.7 18.8 1.1a30 30 0 0 0 21.4 1.1c5.5-1.4 11-3 16.5-3.3 7.7-.2 13.4 6.5 12.7 13.6-.6 5.2-4.2 9.6-8.9 11-4.9 1.4-9-.2-13.1-5.7-.4-2.4-.6-4.1-.7-6.1l1.4-2.8c4.8-4 10.4-4.3 12.2-.3.9 2 .2 5.1-.8 7.1-.4.9-3.7.2-5.7.3l.4-7.3c-1.2 1.5-3.6 3.3-3.4 4.5.4 2 2.1 4.7 4 5.5 3.5 1.5 6.8 0 8.6-3.7 1.6-3.6 0-9-4-10-3.2-1-7.3-1.2-10.5-.1-12 4-23.7 4.3-35.7 0a15 15 0 0 0-9.6-.2c-2.2.9-4.5 4.2-4.8 6.6-.2 2.2 1.6 5.6 3.5 6.8 1.7 1 5.1.4 7.3-.6 1.1-.6 1.7-3.4 1.6-5.1-.1-1-2-2-2.5-2.3l-.7 6.2c-2-.4-4.8 0-6.1-1.3-3-2.8-.5-8.9 3.8-9 3 0 5.9 2.1 8.9 3.5l.2.9z"/><path fill="#c9903b" d="M766.1 501.6q-7.2 5.6-15 11.2-22.4-16.1-45-33.6l-.3-3.5c11.8 5.8 17.3 5.4 22.6-1.6l3.8.8c4.7 3 9.6 5.7 14 9.2q10 8.2 20 17.5"/><path fill="#d29741" d="M1078 442.5c1.2-4 3.5-5.6 7.3-5.7 1.6 0 3.3-1.7 4.5-3 1.5-1.5 2.6-3.5 4.3-5.4q1.9 1.2 3 2.6.1 0 .1.7.7 2.8 1.6 4.6c4 17.8-3.4 36.2-19.4 46.7a148 148 0 0 1-14.3-4.3l.3-2.2q-.1-.1.5-.1c5.3-1.4 7.2-5 7.7-9.8h.3c3.3-3.4 4.9-7 3.4-11.6z"/><path fill="#c28a38" d="M599 601.5c-2.7.5-5.4 1.5-8 1.5H160.5c-8.7 0-8.7 0-8.6 8.8v3.5c-.7-.7-1.7-1.8-1.8-2.9q-.2-4.4.3-10 3.2-.9 5.8-.9l216.9-.2z"/><path fill="#be8635" d="m1520.9 618.6-104.4.2H1098q-5 .1-10.5-.4-.6-1 0-1.4l2.2-.1h9.5q207.4 0 414.8.2c2.3 0 4.7 1 7 1.5"/><path fill="#b37f35" d="M561 505c.4 1.8.7 3.5 1 6 0 3.8-.3 6.6 0 9.4.3 2.3 1.4 4.4 2.2 7 .7 9.1-1 18 1.3 26.4h2.1l.6-24.8q1.4-2 3.6-3.5.6 11.9.8 23.2c0 2-.4 4.7 3.1 4.2.5-2 1.2-4 1.2-6.1q.2-19.5.2-39.2c0-2 .7-4.1 1.3-6.4q.4 27 .3 54.8H536q-.1-5.9.4-12.7 2-1.1 3.5-.8v10.1l2.2.1q.5-3.3 1.4-7 1.3-2.2 1.5-4.2v-50.4c1 2.2.8 4.3 1 6.4q.7 4 1.9 8.9v47.3h2.5q.5-3.8 1.4-8 1-2.4 1.2-4.5v-42.7l.2-14.4q.6 3.3.7 6.4l.3 48.9c0 2 .7 4 1.5 6.8q1 4.4 1.4 7.8h2q.5-3.5 1.3-7.4.5-3.2.6-5.8z"/><path fill="#c9903b" d="m1517 489-18.2 8.8q-4.4 2.1-9.4 4.2-.5.1-.4-.4c2.7-2.6 5.4-4.7 7.9-7.1 1.2-1.2 2.6-2.8 2.7-4.2 0-1.1-1.7-3-3-3.3-4-1.3-8.3-2-12.4-3q-3.6-7.4-7-15.9a60 60 0 0 1 9.8-6q8-3.7 16.3-7.3l2-1.4.1.6q.4.7.8 1-.1 0 0 .2l.9 1.3q.3-.1 1 .6l1.1 1.9q0 0 0 .2l1.2 1.7q-.2.1-.1.2l.9 1q0-.2-.2.1l-7 14.7c-2.4 5-1.4 6.5 4.2 8.1 3 1 5.9 2.6 8.8 4M1087 617v1.3q-19.5.5-39 .5-186.3.1-373.4-.4-.7-1 0-1.4zM852.1 557.7c-.7-2.8-2-5.6-2-8.4q-.4-18.4 0-37c0-4.8-2.2-6.4-6.7-6.3-6.5.1-8.1 1.3-8.4 6.3q-.3 5-1.4 10.4a1953 1953 0 0 1-.3-47.3c6 1.5 11.6 1.8 15.6-6a69 69 0 0 0 3.1 12.5c4.6.3 8.3.4 12 .8q3 2.9 6 5H852v70"/><path fill="#d29741" d="M728 474c-4.9 7-10.4 7.5-22.2 1.7q0 1.5.2 3.2c-12.1-8-24-16.6-27.6-32.6q8.3-1.5 15.8-2.5v.3l1.4 1.5v.3q.7 1.2 1.6 2 .4 0 1 1 .5.8.9 1 .5 0 .8 1.1-.8 2-1.4 3.1l-1.9 5c1.8.3 3.6 1 5.4 1q4.5 0 9.2-.3 0 0 0 .4 1.5 1 3 1.7-.2-.1 0 .4l10 6.6v.3z"/><path fill="#d9a044" d="M761.9 403v28.5q-1.1-1.6-1.2-2.2c-1.9-15.4-15-25-33-26-14.1-1-25.8 3.6-33.9 16.1q-4.7-1.5-8.9-3.7l-.5-1.1h.4l8-8.1q0 .1.3.2 1 0 1.7-.3c17.4-9.7 35.6-9 54.3-4.7 4.1 1 8.5.9 12.8 1.2"/><path fill="#17130d" d="M1345 652.2a45 45 0 0 1 6.1.1c1.2 5.3 1.5 10.3 1.9 16.7 1-1.8 1.8-2.7 1.9-3.6q.1-5 .1-10c.2-2.7.3-2.7 3-1l1.8 3.9-2.7 2.2.3.7q2.3-.8 4.5-1.2 1.7 6 6.3 2.3l2.8 4.7-.1.1c-4.3 2.5-8.2 5.6-13.6 5.8-5.8.3-7.8-.6-9.4-6.2-3.4 1.1-6.8 2.7-10.3 3-2.2.3-4.5-1.5-6.9-2.1q-2-.4-5.2-.6c-3.5-2.6-7-4.8-3.4-9.5.7-1-.7-3.5-1.2-5.3q5.3-.7 10.5-1l-1 9.1q-.2 1.7.4 3.3c2.2 4 4.8 6 9.2 3.2l1.5-.1-.1-.6-2 .8q-3.4-1.4-5.8-3.1c1.4-2.9 3.2-5.6-.5-8.2l.7-4.2c3.4-3 8.7-2.8 11.3.8l-.7 6.6h-.4zm-7.6 10.5.7 2.1 2-1q-.9-.7-2.7-1m-10.7-5.2-.5-1.2-1 .8zm15.9 5.9"/><path fill="#c28a38" d="M1213 507.6c-5 .5-10.4-.2-14.8 4.2a1085 1085 0 0 1-15.4-32.3q6-2.6 12.2-4.6 4.3-1.6 4.5 3c.2 2 1.3 3.8 2.2 5.6q2.3 3.8 4.3 7.7 3.7 7.9 7 16.4"/><path fill="#c99647" d="M1392.3 577.2q-10.3-4.9-20.1-10a83 83 0 0 0 65.8 7.8 65 65 0 0 0 32.3-20.4c-.9 7 2.4 11.7 8.3 15.3 2.5 1.5 4.2 4.3 6.4 7a40 40 0 0 1-5.7 4.8c-4.4-1.5-8.4-3.4-12.6-4.8q-6.7-2.5-13.6-4-3.2-.6-6.2.8a85 85 0 0 1-54.6 3.5"/><path fill="#c28a38" d="M1013.2 551.6c-.8-1.4-2-3.3-2.1-5.2q-.1-15-.2-30.2c0-2-1-3.9-1.7-5.8q-3.4 1-6.7 2.4-2.9 1.5-6 3.2-.6-13.4 0-27.6 8.5-3.1 16.6-5.4c0 4 .1 8-.2 12.8q-3.8 4.9.1 8.2z"/><path fill="#986a27" d="M1521.3 618.7c-2.7-.6-5-1.6-7.4-1.6l-414.8-.2q-4.4 0-9.5-.2-.7-.5-.3-.6H1283q106.5 0 212.9-.2c2.4 0 4.8-1.2 7.2-1.9l29.6-.2q2 5.7-4 5.2c-2.2-.3-4.5-.1-7.3-.3"/><path fill="#c9903b" d="m1065 479 14 4-20.4 9.7q2.8 2.9 6.7 7.3c-3.2 2.4-6.1 1.9-9.4-.4q-7.3-5.4-11.5 1c-4.8-5.3-9.2-11.3-16.8-13.5q6.6-.2 13.1.3c1.1 0 2.4.4 3.3 0z"/><path fill="#e1b15f" d="M391.7 254.9c-16.2 0-29.6 9.2-44 14.8-25.6 10-50.9 20.6-76.2 31-1.8.8-3 3-4.6 5q-.2.5-.8.4l-1-.2c-1.7-.1-3.7-.9-5.1-.3q-28.9 11.7-57.8 23.3-19.8 7.7-40 15 28.9-12.3 58.5-24.5l159-64.8c4.2-1.8 7.8-2.5 12 .3"/><path fill="#000104" d="m599.3 601.5-226.1-.2-216.9.2-5.8.5c2-.5 4.3-1.9 6.6-1.9h446.1q3.7.1 7.1 1.1-2.9.5-5.5.6-2.5-.2-5.5-.3"/><path fill="#d19943" d="M603 584.7q-150.6.4-301.7.3H169.8c-12.5 0-10.8-.7-10.8 11.5l-2.2-12.8h17q196.5 0 393.2.2 18 0 36 .8"/><path fill="#311f11" d="M188.8 414.3c-3-1.2-5.9-3.2-8.8-3.2-4.3 0-6.8 6-3.8 9 1.3 1.2 4 .8 6.1 1.2l.7-6.2c.4.4 2.4 1.3 2.5 2.3 0 1.7-.5 4.5-1.6 5-2.2 1-5.6 1.8-7.3.7-2-1.2-3.7-4.6-3.5-6.8.3-2.4 2.6-5.7 4.8-6.6 2.8-1 6.7-.9 9.6.2 12 4.3 23.7 4 35.7 0 3.2-1.1 7.3-1 10.6 0 3.8 1.1 5.5 6.5 3.9 10-1.8 3.9-5.1 5.3-8.7 3.8-1.8-.8-3.5-3.4-3.9-5.5-.2-1.2 2.2-3 3.4-4.5l-.4 7.3c2 0 5.3.6 5.7-.3 1-2 1.7-5.1.8-7-1.8-4.1-7.4-3.9-12.5 0q-2 .2-3.4.5l2.2 2.8.6 5.5q-1.4 1.5-3.6 2.2-4.5-.8-8-2l-2-2.8q-1 1.4-2.6 3-3.4.2-6.3.2c0-2.6-.4-4.7-4-3.2-1.3.5-3 0-4.7 0q-1-2-.8-4.5 1.5-.8 2.5-1.1l-.4-1.1zm23 4 3 .6-.3-1.7q-1.2.2-2.7 1.2m-14.3-1.8"/><path fill="#c28a38" d="m532 395.7-4.8-1.7q-2.5-.7-4.6-1.9 13.4-.7 26.3-.7 21.4.1 43 .1c1.6 0 3.3-1.2 4.9-2.2l-1-4.3h-8.3q-2 0-3.6-.4-1.1-1.4-1.4-2.5c3.1-.2 5.8-.3 8.9-.3l6.5-.1c4.3-1.3.8-3.2 1-4.8q0-2.1.4-4.2c5.7-.7 6-.4 5 5.7l-5.3 1 1.4 16.7H585z"/><path fill="#6e5228" d="M152.7 362.7q8.7-.6 17.4-.6h401q3 0 6.2.6l-306.4.4H153.6q-.7 0-.9-.4"/><path fill="#17130d" d="M1383.6 654.2q8.9-2.6 17.8-5c1-.2 2.3 1.2 3.3 2.5-4 3.1-4.9 6.8-4 11-4.3 2.3-8.8 4.2-12.7 7-6.4 4.2-11.7 3.3-17-2.3q-.1-.4.3-.5.6-1 1-1.9l5.2 2q-.2-9.2-7.1-6.1l1.6-8 .4.3 7-.2c1.4 2.4 3.3 4.6 3.4 6.9s-1.6 4.7-2.4 6.8q7.6-2.4 3.2-12.5m4.2 3 1.9 4.1 2.6-2.4a13 13 0 0 0-4.5-1.6"/><path fill="#d29741" d="M1013.2 482.6q-8.2 2.9-16.8 5.4-.3-12.6-.4-25.2c0-3.5 1-4.9 4.7-4 1.8.4 4 .2 5.6-.6 3.5-1.8 4.6-.4 4.7 2.8v13q.5 2.7 1.8 5.8a7 7 0 0 1 .4 2.8"/><path fill="#17130d" d="m406.9 660-4.8-1 3-3.9c-1.9-2-7.4-1.2-5.2-5 1-2 6.5-2.8 9.1-1.9 3.4 1.2 6 1 9.4.7 4.6-.4 9.3 1.2 14.1 2.4q-.4.7-1 .7l-8.8 2c-1.1.4-2.2.7-2.2.9l.5 10.2-.3-.1-.8 1h-.2q-.5.6-.7 1.3c-2.4 2.8-11.4 4.8-14.2 2.7-1.3-.9-2.5-3-2.2-4.4.2-1 2.6-1.7 4.6-2.3q2 2 3.1 3.6c-1.5-5-2.4-9.3 1.5-13.8l-2.1-.4zm5.6-8 .3.9q.3-.4-.3-.8"/><path fill="#a9732d" d="m591.4 574.9.4 5.2c-22 0-43.4 0-65.4-.5-.5-3.2-.3-5.5 3.4-5.5h57.7q2 .2 4 .8"/><path fill="#b1792e" d="M352.1 574v6c-21.6 0-42.9 0-64.7-.5-.9-4.6 1.4-5.5 5-5.5q29.8 0 59.7 0"/><path fill="#a9732d" d="M476 574v6.1c-21.6 0-42.8 0-64.6-.5-1-5 1.7-5.6 5.4-5.6z"/><path fill="#b1792e" d="M238 580q-29.9.1-60.6-.4c-1.9-4.6 0-5.6 3.9-5.6q25.6 0 51.2 0c4.6-.1 6 1.8 5.5 6"/><path fill="#c28a38" d="M870.4 487.9a25 25 0 0 1-5.9-5.3q16.2-.5 31.7-.5c1.6 0 3-1 4.5-1.6q1.9-.5 4.3-.6c2 .6 3.5.6 4.8 1.1 4.4 1.7 3.2 5.6 3 8.8 0 1.1-1.7 2.1-2.7 3.2-3.8-3.8-8.7-4.7-13.8-4.8z"/><path fill="#e1b15f" d="M925.7 406.5q-1.2-2.2-2.8-5.8c-3.7.4-7.8 1.2-11.9 1.3l-78.9 1q-3.1.1-6.8.7-5.7-.8-11-1.9c37.1-2.2 74.2 1.2 111.5-3.2z"/><path fill="#d9a044" d="M1503 455q-8 3.4-16 7-4.8 2.5-9.8 5.8-4.6-4.7-9-10.7 4.5-3.6 9-6.4c2.1-1.5 5.1-2.3 3.8-6-2-5.2-1.7-5.6 4-5.7h5q1.3.6 2.8 2.3c-1.5 2.8-2.7 5.4-4.7 7.2-2.5 2.1-5.9 3.3-8.3 5.4-1.3 1-1.4 3.4-2 5.2 1.6.3 3.3 1 4.8.8a43 43 0 0 0 21-8.7v.6z"/><path fill="#b57f34" d="M530 620c-2.2.3-4.5 1-6.7 1h-69c-15.3.1-30.7.7-46.2.7-30 0-59.8-.5-89.8-.6-7 0-14 .8-20.9.7q-27.2-.3-54.3-1-.7 0-1.8-.6 11.4-.4 24.7-.5h9.4l51-.2h155l8 .1h39.9z"/><path fill="#af7930" d="M1092.1 561.6c1-1.2 2.2-2.8 3.5-3 4.2-.7 8.5-.8 13.4-1.3l3.4.2v.5q.3.7.8 1 0-.1 0 .1 1.6 1.1 3 1.8 0 0 0 .1l.4.2h.4l19.1 8c-15 1.1-30 1.7-44-7.6"/><path fill="#dba346" d="M1489.8 438.7q-2.1.4-4.7.3c-5.8.1-6 .5-4.1 5.7 1.3 3.7-1.7 4.5-3.8 6q-4.5 2.9-9.1 6.1a41 41 0 0 1-7.4-6.2c5.2-1.3 11.1-.2 14.7-7.4-3.5.5-5.7 1-8 1.1q-1.6-.1-3.5-.6c.6-1.3.9-3 1.8-3.6q3.9-2.2 8-3.9c3.7-1.5 4.1-3.2.2-5l-15.6-6.1a68 68 0 0 1 31.5 13.6"/><path fill="#d19943" d="M1517.3 489q-4.6-2.3-9-4c-5.7-1.6-6.7-3-4.3-8q3.3-7.3 7-14.8a57 57 0 0 1 10.1 30.5q-.5-.2-1.2-1.7-1-1.4-1.9-2z"/><path fill="#e1b15f" d="M1514 322.7q-71.8.3-144 .2c.7-.7 2-1.8 3.4-1.8H1511c1 0 2 .9 3 1.6"/><path fill="#d69c44" d="m301 511-3-.1a670 670 0 0 1 .1-35.9l.6-36.9c0-1.6 1-3.2 2-4.8q.8 1.4 1.3 4.1-.4 37.3-1 73.6"/><path fill="#c9903b" d="M1112.3 557.2a7 7 0 0 1-3 0q-2.8-1-5.2-1.5c-4.7-.5-9.5-.6-14.2-1.3-3.6-.6-4.5-3.1-2.9-6.3q3-5.9 6.5-12.2 9.4 10.3 18.8 21.3"/><path fill="#e1b15f" d="M1078.2 408.4q-2.1-.3-4.5-1c-8.6-1.5-17.2-3.7-25.9-4.3-14.8-.8-29.8-.7-44.6-.7q-8.2.2-16.8 1.1-5.4-.7-10.4-1.5v-.7q.9-.4 1.8-.5c24.8 0 49.6-.4 74.4.6 8.7.3 17.2 4.4 26 7"/><path fill="#dba346" d="M1503.3 451c-6 5.2-13 7.7-20.7 8.9-1.5.2-3.2-.5-4.8-.8.6-1.8.7-4.1 2-5.2 2.4-2.1 5.8-3.3 8.3-5.4 2-1.8 3.2-4.4 4.9-7q5 4.2 10.3 9.5"/><path fill="#d69c44" d="m184.6 500.9.8-64.1q0-1.5 1.2-2.7 1.6 1.4 2.4 3.3-.6 32.1-1.4 63.6z"/><path fill="#b37f35" d="M322 570.4h-30.8l-.7-1.5c1.5-.7 3-1.9 4.4-1.9l47.4.1c1.4 0 2.9 1 4.3 1.5l-.2 1.8z"/><path fill="#af7930" d="M460 570.3H415l-.5-1.3c1.6-.7 3.2-2 4.9-2q23.3-.3 46.5 0c1.5 0 3 1.2 4.4 1.8l-.3 1.5z"/><path fill="#d9a044" d="M694.2 443.5q-7.5 1.4-15.8 2.5-4.2-14 3.4-26.8 1-.3 1.1.1c1 1.7 1.7 3.8 3 4.2 2.1.7 4.5.3 6.8.4q-.6 2.4-2.2 5.2c-3.2.4-6.3 0-8.2 1.2-1.7 1-2.1 4.2-3 6.4 1.7.4 3.5 1.3 5.2 1.2 2.3-.2 4.5-1.3 6.7-2z"/><path fill="#b37f35" d="M200 570.4h-21.8l-.5-1.8c1.6-.5 3.1-1.6 4.7-1.6H229c1.6.1 3.1 1 4.7 1.5l-.2 1.9zM571 567c5.1.6 10.3-1.4 14.4 2.9h-55.1l-.5-1.2c1.8-.6 3.5-1.7 5.3-1.7q17.6-.2 35.9 0"/><path fill="#dba346" d="M470 398c.2 2.8-1.2 3.4-3.7 3.4q-23.7 0-47.4-.2c-1.3 0-2.6-1.5-3.4-2.8q27.6-.5 54.5-.4M346.1 398c.5 2.7-1 3.4-3.4 3.4q-24 0-48-.2c-1.2 0-2.4-1.5-3.1-2.8q27.5-.7 54.5-.4"/><path fill="#c9903b" d="M1489 502c-1.3 6.7 1.8 11.2 6.6 15.4 1.9 1.5 2.5 4.5 3.6 6.8-2.9 1.2-5.7 2.7-8.7 3.6-1.4.4-3.2-.4-5.2-.7q.5-12.5 2-25.5 1-.1 1.7.4"/><path fill="#d69c41" d="M585 398c-1 1.1-2 3.1-3 3.1q-24.3.3-48.4 0c-1 0-2-1.5-2.4-2.8q27.3-.4 53.8-.3"/><path fill="#af7930" d="M469.6 561c-1 1-1.9 3-2.8 3h-48.3c-1.1 0-2.3-1.3-3.5-1.9q1.5-1.6 3.7-3.1h1.3q1-.3 2.7.2 3.8 1.6 6.6 1.8 20.1 0 40.3 0"/><path fill="#e1b15f" d="M1180.5 403.9c-2.5-.3-4.6-1-6.6-.9q-15.5 0-31.5.6-4.8-.6-9-1.6v-.8h56.5v.5z"/><path fill="#c9903b" d="M238.4 579.9c.1-4.1-1.3-6-5.9-6q-25.5.3-51.2 0c-3.9 0-5.8 1.1-4.4 5.6q-2.4.6-4.8.6c-1.6-7-1.1-7.4 5.3-7.4h62q-.3 3.9-1 7.2M189 437l-2-3.1q-.1-.8 1-.9 1.4-.5 2-1-.1-.2.7-.2l11.2-.5V430h-11c.6-.6 1-1.1 2.3-1.9l24.9-.2q.5 0 .9.6c-2.2 4.4-6.2 3.3-9.7 3.4-2.9.1-5.5.3-5.7 4.5a14 14 0 0 1-5 .4q-1.5-.1-3.1.2H189"/><path fill="#af7930" d="M584 560c2.6 2.6 1 3.7-1.6 3.9q-4.8.2-9.5.1h-38.4c-1.8 0-4.8 1.3-3.8-2.8 7.5-.2 14.3 0 21.1-.2q16.2-.4 32.2-1"/><path fill="#d9a044" d="M1473.8 431.4c4 1.6 3.6 3.3 0 4.8q-4.3 1.7-8 3.9c-1 .6-1.3 2.3-1.9 3.6 1.2.2 2.4.7 3.6.6 2.2-.1 4.4-.6 7.9-1.1-3.6 7.2-9.5 6.1-14.9 7.1q-2.4-.8-4.4-2.5l-4.1-3.8q8.6-4.3 17.2-8.7 2.4-1.4 4.6-3.9"/><path fill="#b1792e" d="M345 560c2.5 2.5 1.3 4-1.6 4q-24.8 0-49.7-.3c-1 0-1.8-1.6-2-2.5q24.3-.2 47.6-.2c2 0 3.8-.7 5.7-1"/><path fill="#a9732d" d="M232 560c2.5 3.7-.2 3.9-2.6 4a1234 1234 0 0 1-47.7 0c-2.2-.1-5.1.1-2.8-3.6q2.3.6 3.5.7h45.8c1.3 0 2.5-.7 3.8-1"/><path fill="#d69c44" d="M1489 501.6q-.7.1-1.7-.5-1.7-8.1-3-16.7 6 .8 12.3 2.6c1.3.4 3 2.2 3 3.3 0 1.4-1.5 3-2.7 4.2-2.5 2.4-5.2 4.5-7.9 7.1"/><path fill="#d9a044" d="M232.8 398.2c-1.1 1-2.3 2.9-3.5 2.9q-23.7.3-47.5.2c-1.2 0-2.4-1.5-3.2-2.8q27.5-.6 54.2-.3"/><path fill="#e1b15f" d="M762 402.8c-4.4-.2-8.8 0-13-1-18.6-4.5-36.8-5-54.2 4.6q-.6.2-1.8.3c6.6-6.4 15.3-8.3 24.2-9.4 12.5-1.7 24.6.7 36.6 3.6q4.1.9 8.2 2"/><path fill="#ad7d34" d="m766.3 664.5-1.8-6.2-5.6 9.7-5.5-10.7-1.7 10.6-1.5-.3 1.8-15.3 1-.3 6.3 11.6 6.2-11.5 1.1.2 1 14.3z"/><path fill="#c28a38" d="m464 538.5-2 6.7q-.7 3.8-1.8 7.1-.1-5 0-9.7L460 503l1.5-9.6.5-.1v21.5q.2 3.4 1.4 7 .5 8.1.6 16.7"/><path fill="#e1b15f" d="M1313.2 403.4c-10.8 0-21.1 0-31.8.3a5 5 0 0 1-2.4-.5q-.7-.4-.8-.3l-6.1-.7v-1h48.5l.2.7z"/><path fill="#ba883d" d="M910.2 493.3c.9-1.4 2.6-2.4 2.7-3.5.1-3.2 1.3-7.1-3.1-8.8-1.3-.5-2.8-.5-4.5-1 5-3 7.4-7.7 9-13.3v39.2z"/><path fill="#dba346" d="M307.7 427.7v-4h20.8c.7 0 1.4 1 2 1.5-.5.3-1 .6-2.3.9-2 1.2-3 2.3-4.7 3.6-2.4.1-4.4.5-6.3.2q-4.7-.9-9.5-2.2"/><path fill="#9f7635" d="m805.5 663.5-7-6.6c-2.1 3.4 1 8-2.7 10.8v-15.2l1-.8 11.8 11.5v-11.4c2.5.3 3.2 8.5.7 17.2z"/><path fill="#c28a38" d="M1227 660.1q1.6 3.7 3.6 7l-.5.8-8.2-7.8-1.2 7.8-1.3-.3V651c3 .9 6.2 1.4 9 2.9.5.3-.7 3.9-1.4 6.2m-.4-2.6c.6-4.2-1.4-5.2-5-4.2v6.2c1.8-.4 3.1-.8 5-2"/><path fill="#9f7635" d="M1320.6 652c.8 2 2.2 4.6 1.5 5.5-3.6 4.7-.1 6.9 3 9.5-1.6-.5-3.8-.9-5.4-2-1.5-1.2-2.3-3.2-2.8-4 1.3-2.3 2.7-4 3-5.8 0-.7-2.6-1.8-4.6-3.1l-1 15.7h-1.7v-16.4z"/><path fill="#c99647" d="M748.5 557.8c-3.3 2.6-6.7 6.2-10.8 7.5a50 50 0 0 1-42.1-4q-1.8-1.2-3.4-3.3a57 57 0 0 0 26 8.2c11 .6 21-1.9 30.3-8.4"/><path fill="#c9903b" d="M591.4 574.5c-1.3.1-2.6-.4-3.9-.4h-57.7c-3.7 0-4 2.3-3.8 5.4q-1.2-2.4-2.7-6.2c2.6-.3 3.8-.5 5.1-.5h58.7c1.4 0 2.9.9 4.3 1.7"/><path fill="#9f7635" d="m1025.6 666.4-11-10.6V668l-1.3-.2V652l10.8 11.7 1.8-1.3.6-11q.8 0 1.4.2v13.6c0 .5-1.4 1-2.3 1.1"/><path fill="#392c19" d="m346.3 397.8-54.8.2q-.6-.4-.6-1.4 27.5-.6 55.7-.4.3.7-.3 1.6"/><path fill="#c99647" d="M1065 478.7q-10.5 4.6-21 8.7c-1 .4-2.2 0-3.3 0q-6.4-.5-13.4-.5-2.4-.1-4.3-.5v-1.5l4.6-.5c7.8-.5 15.6-.3 23.2-1.7 4.9-.8 9.3-3.8 14.3-6q.2.6 0 2"/><path fill="#392c19" d="M232.9 397.9q-27 .2-54.3.2-.7-.4-.7-1.5 27-.5 54.7-.6.5.7.3 1.9"/><path fill="#ad7d34" d="M780.9 653.4c1-.1 2.2-.1 2.5.4q3.2 6.4 5.3 14.4-1.4-1.5-2.8-2.7c-1.3-1.1-2.7-3-4.1-3s-3 1.8-4.2 3c-.9.7-1.5 1.7-3 2z"/><path fill="#392c19" d="M470 397.7q-26.9.4-54.5.3-.5-.5-.5-1.5 26.9-.5 54.6-.3.6.7.4 1.5M585 397.7q-26.5.3-53.8.2-.9-.5-1.2-1.5.5-.5 1.6-.6c17.7 0 35.1 0 53 .3q.5.6.4 1.6"/><path fill="#b37f35" d="M573.6 431.8q-15.1.4-31.2.2a9 9 0 0 1 3.5-3.7q13 0 25.1-.4z"/><path fill="#ad7d34" d="M1244 662.1q-2.7 1.4-4.7 3.3c-.8.7-1.4 1.8-2.9 2.1l7.5-16.7 7.3 16.4-.6.9q-1.6-1-2.7-2.2-1.7-1.8-3.8-3.8"/><path fill="#b37f35" d="M1076.8 652.2q4 7.5 7.3 14.9l-1 1-2.7-2.7c-1.2-1-2.6-2.8-3.8-2.7-1.5.1-3 1.8-4.2 2.9q-1.4 1.3-2.5 2.7l-.9-.8q3.7-7.8 7.8-15.3M431.8 652.3q.1-.5 1-.8h2.1c2.4.8 5.8 1 6.8 2.6 1 1.5-.7 4.6-1.4 8l4 5.3-.9.8-8.5-8.5-.7 6.8-1 .1q-.5-7-1.4-14.3m2.9 5 3.7 1.5c.5-1.3 1.4-2.6 1.2-3.8-.2-.8-1.9-1.4-2.9-2q-1 1.4-2 4.4"/><path fill="#dba346" d="M344.7 559.7c-1.6.6-3.5 1.3-5.4 1.3h-47.4c.9-.7 2.3-2 3.7-2H343q.5 0 1.7.7"/><path fill="#c9903b" d="M1521 517.6q-1.5.8-2.5.3c-2-1.4-5-2.6-5.7-4.6-.6-1.6 1-4.6 2.6-6.2 1.4-1.6 4-2.1 6.3-3.1q0 6.5-.7 13.6"/><path fill="#d69c44" d="M231.6 559.8q-1.4 1-3.4 1.2h-45.8q-1.4 0-3.2-.8 1.2-1.1 3-1.3H228q1.5 0 3.6 1M921.5 555.7c-5.6 6.6-13.8 7.8-21.9 8.2-12.4.6-24.9.3-37.4 0-2.6 0-5.2-1.6-8-2.7 18.1 2.6 36.4 2.1 54.7-.4 4.2-.6 8.2-3.4 12.6-5"/><path fill="#ad7d34" d="M188.6 665.2q-5.2-6.4-8.5.5l-1.1 2q-.4 0-1.6-.2l7.3-16.7 7.1 16.3-.7.9q-1.2-1.1-2.5-2.8M229.2 665.7q0 1.4-.3 2.1-1.3-.7-2.4-1.6c-1.5-1.2-2.6-3.2-4.2-3.7-2.9-.8-3.9 1.4-4.4 4-.1.7-1.4 1.1-2.8 1l7.4-16.8z"/><path fill="#b37f35" d="M700 653c2.4-3.9 6.1-1.8 8-.4 2.2 1.6 4.2 5 4 7.6 0 2.6-2.5 5.8-4.8 7.2-4 2.3-9.2.1-11.1-3.7-2-4.1-.9-8 3.6-10.5-.6 2.8-2.1 5-2.1 7.3 0 3.9 2.5 6.6 6.6 6.5 4.2-.1 6-3 6-7q.1-8.8-10.2-7"/><path fill="#dba346" d="M583.7 559.7a846 846 0 0 1-31.9 1.3q-10 .2-20.9 0c1-.8 2.3-2 3.7-2q23.7-.2 47.4 0 .6 0 1.7.7"/><path fill="#20190e" d="M973 652.3c1.7-2.9 4-2 6.3-.9 2.8 1.4 6.3 2.2 4.9 6.8q-2.2.4-3.6.3l1.1 1-2.7 4.5-.2-.1c-3-3.6-6.9-6.4-5.9-11.6"/><path fill="#44311a" d="M430 428c-.2-3.9 2-5.2 5.5-5.2h14.7c2.6 0 4.7.6 4 4.2q-12.5.8-24.2 1"/><path fill="#986a27" d="M1517.3 664.9q.4-5.9.7-11.2.1-1.4 2-2v9.8q-.1 6.3-6.4 6.7c-4.7.3-6.8-2.4-7.2-6.4-.3-3.3 0-6.6 0-10 2.8.8 3.3 4.4 1.9 12.6 2.7 1.9 5.5 4 9 .5"/><path fill="#ba883d" d="M387.6 660.3q-2.5.3-4.5 0c-1.1 6.7 0 7.5 6.6 5.4l.1 1.3-9.4 1.1v-16.3h8.5v1h-6.2v5.4q2.9 1 4.9 2.1"/><path fill="#be8635" d="m1052.4 662-.6-11.2c3.5 1.1 6.9 1.6 9.4 3.4.9.6-.6 4.4-1.1 8l4 4.9-.8.9-5-4.5q-1.9-1.5-4.5-2-1 .6-1.4.5m1.7-6.4 2 3.7c1.1-.7 3-1.1 3.3-2.1.4-1-.7-2.6-1.1-3.9q-2.1.5-4.2 2.3"/><path fill="#d69c41" d="M691.1 435.5c-2.1 1.1-4.3 2.2-6.6 2.4-1.7.1-3.5-.8-5.3-1.2 1-2.2 1.4-5.3 3-6.4 2-1.3 5.1-.8 8.2-1q.7 3 .7 6.2"/><path fill="#c9903b" d="m1445.2 662-.5-11.2c3.5 1 7 1.5 9.5 3.2.9.6-.5 4.4-.8 6.8h-1.4l4.9 6.6-.8.7q-2.5-2.7-5.2-5.1-1.6-1.3-4.1-1.4-1.1.5-1.6.4m6.7-8-4.4-1.3v6.6c3.2-.1 5.7-.5 4.4-5.3"/><path fill="#b57f34" d="M619.5 627.5c-2-7.2-8.4-6.3-13.8-6.4q-29-.2-57.7 0-3.1-.1-6.4-1.1 0-.5.8-.5H599l3.1.2 17-.2z"/><path fill="#a16d2a" d="m979 664 2.7-4.5-1.1-1 3.5.1q-.3 4.6-1 8.8c-1.3.1-3.7.8-6 .5-2.5-.2-5.5-.7-7-2.3-1-1 0-4.3.5-6.5q.7-3 2-6.6c-.7 5 3.2 7.8 5.9 11.1l-6.2-3.6q-2.8 4.9 1.7 6.6c2.2.9 4.8 1 5-2.6"/><path fill="#9f7635" d="M1358.2 654.2c-2.9-1.5-3-1.5-3.2 1.2q-.1 5-.1 10c0 1-1 1.8-2 3.6-.3-6.4-.6-11.4-1.2-16.7q3.3-.6 8-.5 2.1 3.2 3 6.4l-.8 1.4-4.5 1.6-.3-.7q1.2-.8 2.9-2.6a10 10 0 0 0 0-3.2q-1-.5-1.7-.5"/><path fill="#b37f35" d="M145 667.7a199 199 0 0 1-1.7-15.9c4.2.3 9.1-2.1 10 3.8.9 5-3.4 5-7.1 5.2q-.3 3.4-1.2 6.9m1-12.9q0 2.3.3 4.7l1.7.8c1-1.6 3-3.2 2.9-4.6-.2-3-2.4-3.6-5-.9"/><path fill="#d69c44" d="M469.4 560.6q-19.9.6-40.1.4c-2 0-4-.9-6.2-1.7q20.6-.6 41.5-.4 2.2.2 4.8 1.7"/><path fill="#d29741" d="M352 573.6q-29.7.6-59.6.4c-3.6 0-5.9.9-5.5 5.4-1-1.6-1.9-3.7-2.7-5.5l1.5-1q33 0 66.2.7"/><path fill="#17130d" d="M1362.8 658q-1.1-3-2.7-6.2c1.7-1.3 3.6-3.5 5.5-3.4 1.8 0 3.6 2.4 5.2 4.4q-1.5 4.7-3.2 8z"/><path fill="#ad7d34" d="M1093.3 655.4c-.8 5.4 3.4 2.9 5.1 3.8-1.7 1.1-4 1.8-5 3.4-1 1.3-.4 3.6-.6 5.5l-1.7-.2v-16h9.5q-4.3 1.8-7.3 3.5"/><path fill="#ba883d" d="M1183.7 659v-5.8c-2.3 0-4-.2-6-.3l.1-.7h14l.1 1h-5.8v14.3l-1.6.4c-2.4-2.2 0-5.8-.8-9"/><path fill="#ad7d34" d="M478.1 651.6h6l.1 1.1h-6v13.8l6.3-.6c-1 2.4-1.7 2.5-9 1.6q0-6.6.2-13.3c0-.9 1.3-1.7 2.4-2.6"/><path fill="#c28a38" d="M424.8 519h-3c-.3-10-.2-20 .3-30.8.6-1.3.9-1.8 1.6-2.5q.9 0 1.5.3l-1 2.7c.4 1 .7 1.7 1 2.9q0 10.4-.6 20.5a20 20 0 0 0 .3 4.3z"/><path fill="#20190e" d="M173 381.8q-2.9 0-6.4.4-.6-.9-.5-3l.5-6.8h-5.4l-.2-2.2q6.4-.8 13.4-.3.3 1.5-.5 2.3c-1.4 1.2-3.2 2.1-3.4 3.3 0 1 1.6 2.4 2.5 4z"/><path fill="#ba883d" d="M845.6 667.6q-1.5-.8-1.9-1.8v-12.6l-6-.4v-.8h13.5l.1.8-5.5.3q0 7.2-.2 14.5"/><path fill="#b37f35" d="M1038.8 653.5q-.4 2.5-.3 5l6 1c-2.5 1-5 1.2-6 2.5s-.5 3.8-.7 5.8l-1.5-.1v-15.8h8.6v1q-2.8.2-6 .6"/><path fill="#c99647" d="M203.1 651.8h6.7v.7l-5 .6v14.3l-1.5.4-.6-3.5V653l-5.6-.4v-.8z"/><path fill="#ba883d" d="M655 652.6q1-.7 2.6-1l-7.7 16.8-7.4-16c2.6-.5 2.5-.5 4.2 3.8l3.5 8.5c2-4.8 3.3-8.3 4.7-12.1"/><path fill="#c9903b" d="M429.7 428.2q12.1-.6 24.5-.8 2 1 2.5 2.3-14.9.4-29 .3zM475.8 573.6q-29.4.6-59 .4c-3.7 0-6.4.6-5.8 5.5q-.1.7-.9.3l-.9-.8v-5.7q1.2-.4 2.3-.5h62.1a4 4 0 0 1 2.2.8"/><path fill="#6e5228" d="m366 667.6-9 .7v-17q3.6-.1 7.7.5.6.8 0 1c-1.8.5-4.3.8-4.3 1.3q-.7 5.5 0 10.7c.2.8 3.8 1 5.7 1.8z"/><path fill="#d9a044" d="M711 459.5q-4.4.7-9 .6c-1.8 0-3.6-.7-5.4-1q1-2.6 2-5 .5-1.2 1.4-2.9 5.4 3.8 11 8.3"/><path fill="#af7930" d="M462.9 653c1.5 1.8 4.2 3.6 4.2 5.4 0 2.8-1.4 7.2-3.2 7.9-3.5 1.3-7.8.4-11.4 0q.6-7.5.5-14.3 4.9 0 9.3.7c-2.5.5-4.7.5-7.6.5q-.1 5.8.1 11c.1 1 1.4 2.3 2.3 2.6 4 1 8-1.9 8-6-.1-2.6-1.5-5.2-2.2-7.8"/><path fill="#b57f34" d="M210 423q3.6.8 7.4 1.8.5.4 0 .9-12.2.4-23.4.3c0-2.4 0-2.4 4.7-2.8l7-.2z"/><path fill="#be8635" d="M546 425.9c.7-.8 1.3-2.2 1.9-2.2q10-.4 20.1-.2c.7 0 1.4 1.1 1.6 2.2q-12 .4-23.5.2"/><path fill="#ad7d34" d="m307 664 4.2-7 3.5-6.2 2.2 16.6-1.5.5q-.9-1.8-1.4-3.7l-.8-7.1c-1.8 3.5-3 5.6-4.6 7.7q-1.2-.5-1.6-.9"/><path fill="#b37f35" d="M161.7 660v-7.9c2.1.4 2.1.4 2.1 6v8.7l6.8-1c-1.5 2.6-2.2 2.7-8.9 1.6z"/><path fill="#9f7635" d="m625.5 653.1-.7-.6c3.2 0 6.8-.8 9.4.5 2.5 1.3 1.8 4.6-.5 6.8l-1 1.3 4.9 6.2-1 1-8.7-8.5q-.8-.5 0-.6c2-.9 4.7-1.8 5-3 .4-3.4-2.4-3.3-5.3-3.2z"/><path fill="#d29741" d="M693 423.6c-2.6.2-5 .6-7.1-.1-1.3-.4-2-2.5-3-4.5v-2l.2-.2 1-.9s-.3.1 0 0l1 .1 8.6 3.8q0 1.8-.8 3.8"/><path fill="#c99647" d="M1484.7 527.7c-.6 5.2-.5 11.1-2.7 16-1.6 3.7-6.2 6.1-9.8 9.2q5.8-12.4 12.5-25.2"/><path fill="#b37f35" d="m1120.7 651.6 13.2-.1v1.4l-5.4.3c-.9 5 .2 10-.7 14.7l-1.8-.2V654q-3.2-1.4-5.3-2.4"/><path fill="#ad7d34" d="m1434 661-8.4-1.2-1.5 8.4-1.5-.5v-15.6l1.5-.5 1.3 7.5q3.5 0 8.1.2.6 1 .5 1.6"/><path fill="#9f7635" d="M334 662.5c-5-1.7-7 2.3-8.8 6.7l-1.2-1.8q2.6-6 6-12.1 2.4 3.5 4 7.2"/><path fill="#6e5228" d="M1002.2 661.7v-10h3.4l-1.4 16.3h-2z"/><path fill="#ad7d34" d="m539.7 542-3.3.8q-.4-5.3 0-11.6l.6-1.8q-.5-.7-.7-1.7c1-.5 1.8-.6 3.2-.3q.5 7.7.2 14.6"/><path fill="#ba883d" d="M1142 652.1h1c2.2.6 5.7.7 6.3 2 .8 1.8-.6 4.6-1.3 8 .9 1 2.5 3.1 4 5.2l-1 1q-3.6-4.1-7.7-8.5-.5-.5 0-.6c1.8-1.1 4.3-2.3 4.3-3.4-.2-3.5-3-3-5.5-2.9z"/><path fill="#c28a38" d="M1478.9 659q2.3 3 4.4 6.4l-5.6 1.2c0 .4 0 1.1.3 1.2q.9.3 1.8.2c0-1.6.7-3.5 0-4.6-1-2-3-3.3-4.6-5-2.7-3-2.1-4.8 2.2-6.3-3.7 3.3-.8 4.8 1.5 6.8"/><path fill="#a16d2a" d="M307.5 427.7q5 1.3 9.7 2.2 2.7.3 6.7-.2 4.2-.8 7-1.6l3.2 3.4q-14.9.7-30.5.6-.2-.9 1.1-2.1 1.6-1.3 2.4-2.1z"/><path fill="#d69c44" d="M936.3 543.7q-4.5 3.8-9.1 7.2 5.9-9.1 12.4-18.4h.4q-1.6 5.5-3.7 11.2"/><path fill="#9f7635" d="M942.2 666.6c3.4 1 6.5.4 8.2-2.9q3-5.8-2.2-10.2 5.9.1 5.5 7c-.3 5.3-5.1 8.6-11.5 7.2zM821 664.9c2.2.5 5 2 6.2 1.3 1.6-1 2.5-3.9 2.9-6.1.5-2.7 0-5.6 0-9.4 2.5 3.6 2.7 13.1.7 15.1q-4.1 4.3-9.7.6z"/><path fill="#ad7d34" d="M521.8 666.8c3.3-4-1-5.1-2.8-7.4-1.2-1.6-1.7-3.8-2.5-5.8l7-2q.3.1 1.1 1.9-2-.7-3-.7c-1 .2-2.5.5-2.9 1.2s.2 2.2.8 3q1.6 1.5 3.5 2.8c2.7 2.4 3.4 4.9-.4 7.4-.4 0-.8-.4-.8-.4"/><path fill="#c28a38" d="M1115.3 662.5c.2 2.1.6 4.1-2.5 3.3-.3 0-1 1-.8 1.8 2.3-3.4.6-5.8-2.5-8-2.6-1.8-4.6-4.2-1.4-7.2.4-.4 1.2-.2.5-.1.8 2.2 1 4 2 5.4 1.2 1.7 3 3 4.7 4.8"/><path fill="#c9903b" d="M611 656q2.3 2.5 4 3.9c-5.5.7-5.7 1-4.3 7.5-2-.6-2-.6-2-6.5v-9h9c-2 2.7-7-1.7-6.8 4.1"/><path fill="#44311a" d="M546 426.2q11.6-.3 23.6-.1 1 .5 1.4 1.6-12.1.6-24.8.5-.3-1-.1-2"/><path fill="#b57f34" d="M234.6 619.9c-1 .4-2.4 1-3.8 1q-22.5.3-44.8.1-1.5 0-3.7-.9 25.5-.3 52.3-.2"/><path fill="#986a27" d="M1161.7 665.7c6 2.5 8.4.9 8.4-5.5q-.2-3.2 0-6.5c0-.9 1-1.7 2-3.2v9.6q-.2 10.8-10.9 6.5.3-.8.5-.9M1199.8 666.2c8.2 1.4 9.1.6 9.2-8v-7.7q2 1.8 2.1 2.3.1 4.5-.1 9c-.4 5.7-5.4 8-11 4.6z"/><path fill="#e1b15f" d="M900.3 480.5c-1 .5-2.5 1.5-4 1.6l-31.8.2-12.2-.2q-.5-.4-.3-1 24-.6 48.3-.6"/><path fill="#c28a38" d="M283.8 651.5c6.2 1.4 7 4.1 2.3 9.5l4.8 6.1-.9 1-6.5-7.3q-.5-1.2.1-1.6c4.2-2.5 4.2-3.7.5-6.6z"/><path fill="#000104" d="M142 620.1c.6-.6 1.1-1.7 1.7-1.7q11.4.2 22.6.9-12.3.7-24.3.8"/><path fill="#be8635" d="M1535.3 661.9q0 2.4-.2 3.7-3.1-3.5-6-6.4-5-5 0-6.7c.6 2 1 3.9 2 5.4 1 1.4 2.7 2.4 4.2 4"/><path fill="#c9903b" d="M1083 521.6q-.5.3-1.3.1c-7.7-.8-8.2-1.5-6.7-9.4q4 4 8 9.3"/><path fill="#ad7d34" d="m1466.1 664.8-1 3.3-1.3-.4v-16h2.3z"/><path fill="#b37f35" d="M1339.7 666.6c-4.1 3-6.7 1-8.9-3.4l-.2-3.1q.3-4.1 1-8.6h2q-.1 1.6-.5 4.6l.2 7.9q3 1.6 6 2.8z"/><path fill="#9f7635" d="M926 662c-3.4.2-6.7.3-7 5 0 .4-1.6.8-3.4 1.6l5.6-11.6q.1-.7 1-1.6 2.1 3.2 3.7 6.6"/><path fill="#b37f35" d="m926.1 662.3-3.7-7.2c.2-1.2.6-2.3 1.5-4.4l7.1 16.8c-4.7 1.1-2.6-4-4.9-5.2"/><path fill="#ba883d" d="M1161 666.4q-1.7-3.8-2.4-8c-.3-2 0-4.2 0-6.4 2.2.5 2.2.5 2.2 5.5q0 3.7.7 7.8 0 .7-.5 1"/><path fill="#c99647" d="M821 664.4v1.8c-.8-1.6-2-3.6-2.2-5.7-.4-2.7 0-5.5 0-9.2.8 1 1.8 1.6 1.9 2.4q.2 5 .3 10.7"/><path fill="#ba883d" d="M1400.8 663c-1-4.5-.2-8.2 4-11q.9-.2 1.1 0c.2.3.4 1 .3 1-5.3 4.3-3.8 9-1.5 14.2zM334.3 662.8q-2-4-4.1-7.7c.1-1.1.5-2 1.3-4l7.2 16.3-1.4.8z"/><path fill="#c9903b" d="M161.2 372.6q2.2-.2 5.4-.2l-.5 6.3q-2 .4-4.6 0l-.8-.8.2-5z"/><path fill="#c28a38" d="M860 655.1c-1.2 5.6 3.8 3 6.4 5h-6l-.7 7.7h-1.4v-16.4z"/><path fill="#a16d2a" d="m427.4 430.1 29.4-.1q.7.7 1 1.8-14.9.3-30.5.1-.4-.8.1-1.8"/><path fill="#c28a38" d="M664.4 652c1 .4 2.5 1 2.6 1.7q.4 6.8-.9 14.3c-.5-.7-1.3-1.4-1.3-2q-.4-7-.4-14"/><path fill="#c99647" d="M874.3 653c.8 0 1.9-.3 2.3.2l9.4 9.8q1 .2 1.3-.3l1.7 3.8-1.3.7q-5.3-5.5-11.6-11.1l-1.7-.2v-1.7q.4-1-.1-1.2"/><path fill="#9f7635" d="M1292.7 664.8q9.5 6.6 11.1-6.1l1.8 1.6c-.8 2.2-1 5.2-2.5 6.2-3.8 2.6-8.1 2.4-11.5-1.2q.7-.5 1-.5"/><path fill="#986a27" d="M1199.9 666.1c-3-2.4-3-5.4-2.3-9 .4-1.6.1-3.5.1-5.2 2 .4 1.9.4 1.9 5.4l.2 8.4z"/><path fill="#ad7d34" d="M265 653c-8.3-.5-10.5 3-7.8 12.4q-4.8-2.8-3-8.3 2.7-7.2 10.5-5.1c.3.4.3 1 .3 1"/><path fill="#b57f34" d="M142 620.4q11.9-.6 24.5-.8 6.5 0 13.1.2-2.5.9-5.8 1.2l-31.2 1q-.6-.6-.6-1.6"/><path fill="#c28a38" d="M1434 661.3v-2q-.2-3.2 0-5.8c0-.7 1-1.4 2.2-3.1v17.1l-1.6.4zM1015.4 569.6q-1.8-6-2.5-12.4 4.1 4.2 7.9 9.7-.4 1.7-1 2.5zM265.3 653.1q-.4-.4-.3-1c4.3.8 6 3.9 6 7.9-.1 2.7-.8 5.5-4.5 6.1 3.2-5.6 3-8.4-1.2-13M556 666l-2.5.9c1-2.5 2.6-5 2.9-7.5.1-2-1.4-4-2.7-7.3 1.8 1.6 3.5 2.6 4.1 4a8 8 0 0 1-1.8 9.8"/><path fill="#ad7d34" d="M446 406.8q-.1.3 0 .3l-11-1.7v-1h14l.2.7q-1.5.5-3.2 1.7"/><path fill="#c28a38" d="M570.6 659h2.7l.2.9-5 .3-.9 7.7h-1.5V651q1.4 2.5 2 4 1.1 2 2.5 4"/><path fill="#be8635" d="m238.2 665-.1-7-.3-5.9h2.7v15.4l-1.6.3z"/><path fill="#ba883d" d="M307 663.5q.5.9 1.3 1.6c0 .9-.3 1.6-1 3.4-1.7-3.5-2.9-6.2-4.2-9.5q-1.6-2-3-3 0-1 .5-2.6 1-.5 1.4-.5zM366.4 667.5q-.5-.1 0-1c4.7-4.6 4.9-8 1.3-13.1l.5-.7c6.1 4.5 5.4 11.3-1.8 14.8"/><path fill="#c28a38" d="M1292.5 664.4q-.1.6-1.1.6c-4-6.8-1.8-12.3 4.9-12.7-5.3 2.8-5.8 6.9-3.8 12.1"/><path fill="#ba883d" d="M1383.3 654q4.8 10.3-3 12.7c.9-2.1 2.6-4.5 2.5-6.8 0-2.3-2-4.5-3.5-7.1q-.4-.6-.3-.7z"/><path fill="#c9903b" d="M594.6 653.5q1.6 3 3.7 5.6c2 2 4.3 3.7 2.4 6.7-2.4-2.7-4.9-5-6.8-7.8-.8-1.2-.5-3.2-.2-4.9z"/><path fill="#6e5228" d="M194 426.3q11.3-.4 23.3-.4.6.6.7 1.7-11.9.4-24.6.4 0-.7.5-1.7"/><path fill="#c28a38" d="M1141.7 652q.3.3.4 1.3l.9 6v.4l-1.5 8.3h-1.3v-4l-.4-10.9c0-.4 1-.7 1.9-1"/><path fill="#c99647" d="M593.5 370q.2 0 .4 0 1 .9 2.5 3c.5 2.5.5 4.1.1 5.8a8 8 0 0 1-3.5-.4c.4-2.4.9-4.4 1.8-6.8q-.4-1.1-1.3-1.6"/><path fill="#000104" d="M275 619.5h-8.5q-.6-1.2-.5-3 4-.5 8.5 0 .6 1.7.4 3"/><path fill="#b37f35" d="M184.4 501.3q1.4-.5 3.3.1.4 4.8-.3 8.6h-3z"/><path fill="#c9903b" d="M899.5 666.7c-6-5.3-5-12.1 2.5-14.7-4.6 4.2-5.5 8.5-2.2 13.8q-.1.8-.3.9"/><path fill="#be8635" d="M939.7 666.2c-4.8-4.6-4.5-10-.3-12.3l.8 11.4q-.2.9-.5 1"/><path fill="#c9903b" d="M1495.2 653.1v14.6h-2.3v-16q.7-.1 1.8.4zM546 659.2v8.4l-1.6.2c-2-4.9.9-10.4-1.1-15.3 2.6 0 2.6 0 2.7 6.7"/><path fill="#986a27" d="M300 656.4q1.5.6 3 2.3l-2.1 6.2-1.1 3.2-1.3-.4z"/><path fill="#000104" d="M618.8 619.3q-7.6.4-16.3.3 7.5-.4 16.3-.3"/><path fill="#ad7d34" d="m1367.8 661 3-7.8q.4-.4 1-.3-.7 3.7-1.4 8.3.9 2.4 1.6 3.8 0 .9-.6 1.9a26 26 0 0 1-3.6-5.9"/><path fill="#c9903b" d="M407 660.4q1.2-4.1 2.7-7.7l2.1.4c-4 4.5-3 8.9-1.5 13.8l-2.7-3.6z"/><path fill="#986a27" d="M677.2 663.8c2.7 3 5.8 4 10.1 2q.9.2 1 .5l-5.4 5.1a69 69 0 0 1-6.5-6.2q.5-1 .8-1.4"/><path fill="#ba883d" d="M677.1 663.3q-.1 1-.9 1.6c-3-5.4-2.7-8 2.2-12.2q.8.3.8.5-1.2 4.8-2 10.1"/><path fill="#c9903b" d="M278.6 667c.2-4.4.3-8.7.3-13.8v-1.5q.6-.1 2 .4.6.6.4 1.4v7.6q-.5 3.4-1.9 6.5-.8-.4-.8-.6"/><path fill="#986a27" d="m505 663 1-8.9.8-2.7 1.2.3q.1 5.6-.5 12-1.8.5-2.7.4v-.2z"/><path fill="#e1b15f" d="M161.6 343.7"/><path fill="#af7930" d="m553 406-.3-1.9H564q0 1-1.2 1.9zM313 406l-.5-1.3q7.2.2 14.5 1 0 .6-.3.3H313"/><path fill="#c9903b" d="M421.3 665.3q-.7-5.4-.8-10.4c0-.2 1-.5 2-.5 2.2 4 2.7 7.9-1.2 11"/><path fill="#000104" d="M599 619.2q-2.9.5-6.5 0a9 9 0 0 1-.5-3h6.5q.6 1.3.5 3"/><path fill="#9f7635" d="M887 663c.5-3.8-.6-7.9.6-11.6l2.3.4q-1.1 6-2.7 11.7z"/><path fill="#20190e" d="M452.8 652.3q.3 6.5-.3 13.7-.2-6.4.3-13.7"/><path fill="#986a27" d="m496 656.1-1.5 11.4h-1.4q-.1-5.7.5-12.1 1.8-.6 2.6-.6l-.2.4z"/><path fill="#ba883d" d="M627.6 659q-.4.3 0 .8c.1 2.2.2 4.2 0 6.9l-1.2 1-.8-14.1q.6-.8 2-.2a31 31 0 0 1 0 5.6"/><path fill="#986a27" d="m909.6 666.6-6 5.8-1.5-4.8q2.9-.9 6.5-1.5.9.3 1 .5"/><path fill="#c99647" d="M1073.3 466.9c-.2 4.4-2.1 8.1-7.4 9.5q3.3-4.6 7.4-9.5"/><path fill="#c9903b" d="M496.1 656.4V655q4.3 3.4 8.7 7.7v1.1q-4.1-3.3-8.7-7.5"/><path fill="#392c19" d="M313 406.4q5.4-.6 11.6 0l.5 1.2-11.7.2q-.5-.5-.4-1.4"/><path fill="#986a27" d="M874.3 656.3q.6-.5 1.5-.3.4 6 .3 11.6l-2 .1q0-5.3.2-11.4"/><path fill="#c99647" d="M1077.2 455.4c1.6 4.1 0 7.8-3.3 11.2q1.3-5.3 3.3-11.2"/><path fill="#ad7d34" d="M190.8 430.2q5.7-.3 11-.2l.1 1.3q-5.1.3-11 .4-.7-.5-.1-1.5"/><path fill="#d9a044" d="M724 468.6a127 127 0 0 1-9.9-6.4q4.8 2.8 9.8 6.4"/><path fill="#e1b15f" d="M1097.2 430.7q-1.3-1-3-2.6-1.5-4-2.8-8.2 3 4.8 5.8 10.8"/><path fill="#d9a044" d="M1013.1 503.7q-4-3-.3-7.5.5 3.3.3 7.5"/><path fill="#c28a38" d="M605.2 602q2.1-.4 5.4-.5.8 3.6.8 8c-2.1-2-.8-7.1-6.2-7.5"/><path fill="#e1b15f" d="M692.5 406.6a116 116 0 0 1-7.7 8 116 116 0 0 1 7.7-8"/><path fill="#44311a" d="M553 406.3q4.4-.3 9.6-.2.6.5.5 1.4-4.5.4-9.7.4-.6-.6-.4-1.6"/><path fill="#b57f34" d="M1024 568h7.9v1.5q-3.5.1-7.6-.5-.4-.8-.3-1"/><path fill="#d69c44" d="M184.3 510.5q1.4-.7 3.2 0 .4 2.4.2 4.4h-3q-.5-1.9-.4-4.4"/><path fill="#c99647" d="M1367.3 563.2c-4 .2-5.7-2.8-7.2-6.4q3.4 2.7 7.2 6.4"/><path fill="#d9a044" d="M330.7 428q-2.8.9-6.4 1.6 1.2-1.7 3.5-3.5 1.5.8 2.9 1.9"/><path fill="#20190e" d="M160.4 377.8q.6.2.7.8l-2.6 2.7-1.8-2q1.5-.7 3.7-1.5"/><path fill="#d9a044" d="M728.4 474.1c-1.7-1.6-3-3-4.2-5q3.7 2.4 7.8 5.5-1.4 0-3.6-.5"/><path fill="#c99647" d="M756.5 546.9a95 95 0 0 1-5.4 8.9q2.3-4.3 5.4-9"/><path fill="#6e5228" d="M1492.7 651.6q.3.5.1 1.2-3.1.5-6.3.4l-.1-1.6z"/><path fill="#c28a38" d="M1445.2 662.4q.5-.5 1.5-.4c-.3 1.9 2 4.8-1.6 6.1z"/><path fill="#dba346" d="M1394.6 434a68 68 0 0 1-5.5 6.8q2.2-3.2 5.5-6.8M1451.7 444q2.2 1.5 4.2 3.6-3.6-1.3-7.6-3.5 1.3-.2 3.4-.2"/><path fill="#ba883d" d="M1052.3 662.4q.5-.5 1.4-.4.4 2.9.3 5.8h-1.8z"/><path fill="#6e5228" d="M1495.5 653.1q-.4-.2-.4-1 3-.5 6-.4l-.2 1.4z"/><path fill="#ad7d34" d="M1378.8 651.8q.2.5.2.8-3 .6-6.7.6 2.7-1 6.5-1.4"/><path fill="#c99647" d="M692.2 557.4a45 45 0 0 1-5-4.4z"/><path fill="#d19943" d="M603.2 591.7q-.3-2.2-.3-5.5.4 2.4.3 5.5"/><path fill="#b37f35" d="m1345.1 652.2-1.1 6.5h.4l.7-6.2z"/><path fill="#c9903b" d="M833.3 528.4q.4 1.8.3 4.4-.4-1.8-.3-4.4"/><path fill="#ad7d34" d="M522.3 667.4q-3.1 0-6.5-.4l.2-1.6 5.5 1.5q.5.1.8.5"/><path fill="#e1b15f" d="M1090 417.6q-1.8-1.2-3.9-3.4 1.8 1.3 4 3.4"/><path fill="#dba346" d="M1400.3 427.8q-1.1 1.8-3.1 4 1.1-1.8 3.1-4"/><path fill="#20190e" d="M597 378.7v-5.3l1.7 3.3c0 1.8 3.5 3.7-.9 4.2a5 5 0 0 1-.9-2.2"/><path fill="#c99647" d="M1372 566.6q-2.2-.9-4.6-2.8 2.2 1 4.6 2.8"/><path fill="#986a27" d="M909 666q.6-1.7 1.7-3.2l.9.5q-.7 1.5-1.8 3.1-.5.1-.9-.4"/><path fill="#9f7635" d="M537 486.3q.3 1.3.2 3.4-.3-1.3-.2-3.4"/><path fill="#20190e" d="M449 652.8q.9.3 1.4.8l-.6.6z"/><path fill="#e1b15f" d="M1083.2 411.4q-2-.9-5-2.6 2.2 1 5 2.6"/><path fill="#dba346" d="M1453 423.7a17 17 0 0 1-4.7-.4q2-.2 4.7.4M1463.2 357.8q-.5 1.3-2 3 .5-1.4 2-3"/><path fill="#c9903b" d="M1075 511.6a12 12 0 0 1-2.6-2.7 12 12 0 0 1 2.6 2.7M1070 505.6q-1.2-.8-2.6-2.7 1.2.9 2.6 2.7"/><path fill="#d69c44" d="M924.6 553q-.7 1.3-2.5 2.8.8-1.4 2.5-2.8"/><path fill="#c9903b" d="M1522.2 501.7q-.8-1.4-1.2-3.6.8 1.4 1.2 3.6"/><path fill="#dba346" d="M1471.2 348.9q-.5 1.3-2 2.8.6-1.2 2-2.8"/><path fill="#986a27" d="M687.6 665.5q.6-1.5 1.7-2.8l.7.3-1.4 3.1q-.6 0-1-.6"/><path fill="#44311a" d="m281.4 653.1-.2-1q.9-.7 2.4-.7.4.5.1 1.2-1.3.6-2.3.5"/><path fill="#e1b15f" d="M398.7 257.8q-1 0-2.6-.7 1 0 2.6.7"/><path fill="#9f7635" d="M298 475.2q.3 1 .2 2.6a7 7 0 0 1-.2-2.6"/><path fill="#c9903b" d="M496.3 654.5a6 6 0 0 1-2.5.4q-.6-.5-.1-1.5.9-.5 1.4-.5.6.6 1.2 1.6M504.6 664.4q1.2-.4 2.8-.3.4.5 0 1.6-1.1.5-1.6.5a5 5 0 0 1-1.2-1.8"/><path fill="#20190e" d="M160.6 373.1q.4 1 .2 2.7-.3-1-.2-2.7"/><path fill="#e1b15f" d="M144.7 350.6q-.9 1.1-2.7 2.4.8-1 2.7-2.4"/><path fill="#dba346" d="M1458 424.6q-1.5.2-3.7-.4 1.5-.1 3.7.4M1386.6 443q.4.8.4 2.7c-2.8 0-2.1-1.2-.4-2.8"/><path fill="#c99647" d="M685.2 550.6q-1-.9-2-2.9.8.9 2 3"/><path fill="#986a27" d="m674 617 .2 1.3q-.6-1.5-1.2-4 .2-.5.8 0l.3 1.9z"/><path fill="#c9903b" d="M1116 560.6q-1.1-.3-2.7-1.5 1.2.3 2.7 1.5"/><path fill="#d9a044" d="M714 461.7q-1.2-.4-2.8-1.6 1.2.4 2.7 1.6"/><path fill="#dba346" d="M1503.3 454.8q-.2-1 .3-2.9.8.1 1.7 1.3-.6.8-2 1.6M1404 423.6a13 13 0 0 1-2.2 2.9 13 13 0 0 1 2.2-2.9"/><path fill="#b57f34" d="m1020 569.5 1-2.3c0-.4.6-.3.8.2l.3 2z"/><path fill="#ad7d34" d="m482.4 660.6.1.2z"/><path fill="#c9903b" d="M1086 525.6q-.7-.4-1.5-1.7.7.3 1.6 1.7"/><path fill="#44311a" d="M281.6 661q-.5-.5 0-1.7a3 3 0 0 1 1.6-.1v1.4q-.5.4-1.6.5"/><path fill="#dba346" d="M306.7 428q-.3.7-1.7 1.9.3-1 1.7-2"/><path fill="#d9a044" d="M697.1 447.6q-.6-.4-1.6-1.7.7.3 1.6 1.7"/><path fill="#dba346" d="M1459.6 362q-.5 1-1.7 2.3.3-1 1.7-2.3"/><path fill="#be8635" d="M942 666.4q.2.4 0 1-.9 0-2.1-.9 0-.4.5-.9c.7 0 1 .4 1.7.8"/><path fill="#d69c41" d="m423.3 485.8-1 2q-.5-1.3-.2-3.5.6-.8.9-.3l.3 1.4z"/><path fill="#986a27" d="M302 652.7q-.4.3-1.4.3.5-.2 1.4-.3"/><path fill="#dba346" d="M1467.6 353q-.5 1-1.7 2.3.4-1 1.7-2.3"/><path fill="#44311a" d="M278.8 651.6v1.1z"/><path fill="#d9a044" d="M1098.8 435.9q-.8-1.5-1.7-4.1.8 1.4 1.7 4"/><path fill="#c9903b" d="M1089.1 529.6q-.7-.4-1.6-1.7.7.3 1.6 1.7"/><path fill="#9f7635" d="M480.1 357.3q.7-.6 1.7-.5-.6.6-1.7.5"/><path fill="#986a27" d="M505.9 666.5q.4-.5 1.5-.5.2.7 0 1.5-.8-.4-1.5-1"/><path fill="#ba883d" d="M365.1 652.8v-.9q1.1 0 2.9.6.2.5-.6.7-1.4 0-2.3-.4"/><path fill="#dba346" d="M1474.6 345q-.2.7-1.3 1.8.3-.7 1.3-1.8"/><path fill="#c28a38" d="M1022.4 569.4q-.4-.8-.4-2 .7 0 1.7.5.4.3.2 1-.5.5-1.5.5"/><path fill="#d69c44" d="m852.2 558-.1-1q.6.9 1.1 2.7-.6-.3-1-1.7M189.7 432q-.4.5-1.5 1 .4-.6 1.5-1"/><path fill="#c9903b" d="M1093.4 535.6q-.6-.3-1.2-1.5.5.2 1.2 1.5"/><path fill="#e1b15f" d="M1086 413.7q-.6 0-1.7-1 .6 0 1.7 1"/><path fill="#ba883d" d="M678.7 652.5q.8-.3 2-.2-.5.5-1.2.9-.5-.1-.8-.7"/><path fill="#9f7635" d="M626.6 667.8q0-.3 1-.7 0 .4-1 .7"/><path fill="#986a27" d="M495 652.6q-.4.5-1.3.5.2-.4 1.2-.5"/><path fill="#c9903b" d="M1072.3 508.6q-.5-.2-1.2-1.4.6.3 1.2 1.4M1090.4 531.6q-.6-.3-1.2-1.5.5.3 1.2 1.5M1087.3 527.6q-.5-.3-1.1-1.5.5.3 1.1 1.5M1084.4 523.6q-.6-.3-1.2-1.5.5.3 1.2 1.5"/><path fill="#dba346" d="M1405.6 422q0 .5-1 1.3.1-.5 1-1.3"/><path fill="#d9a044" d="M695.5 445.3q-.5 0-1.2-1.2.5 0 1.2 1.2"/><path fill="#d19943" d="M1509.2 458.7q-.4-.3-1-1.3.3.3 1 1.3"/><path fill="#e1b15f" d="M1091.5 419.5q-.6-.2-1.3-1.4.5.3 1.3 1.4M682.7 417q.4.5.3 1.6-.2.5-.9.4 0-.9.6-2"/><path fill="#d19943" d="M1510.4 460.6q-.4-.3-1.2-1.5.5.3 1.2 1.5"/><path fill="#c9903b" d="M419.3 667.2q-.2-.6.5-1.3.2.6-.5 1.3"/><path fill="#c99647" d="M1471.7 553q0 .6-.7 1.8 0-.6.7-1.7"/><path fill="#dba346" d="M1472.7 347.1q0 .5-.9 1.4 0-.5.9-1.4M1468.7 352l-.6.8q0-.3.6-.9"/><path fill="#e1b15f" d="M395.5 256.7q-.4 0-1.2-.6.2 0 1.2.6"/><path fill="#986a27" d="M874.2 653.3q.6-.2.3.6-.2 0-.3-.6"/><path fill="#ad7d34" d="M258.2 666.6q0-.4.2-.4l.3.3q0 .1-.5.1"/><path fill="#c9903b" d="M420.3 666.2q-.2-.7.4-1.2.4.6-.4 1.2M899.9 666.1q.5.2.9.6-.4.1-1 .1c-.3-.1 0-.5.1-.7"/><path fill="#9f7635" d="M624.6 667.5h.2q-.1 0-.2 0"/><path fill="#44311a" d="M278.5 667.1q.3 0 .5.6-.2 0-.5-.6"/><path fill="#dba346" d="M1465 355.7q.2.3-.3.6-.2-.2.4-.6M1464.2 356.7q.2.3-.5.8-.2-.3.5-.8"/><path fill="#b37f35" d="M921 657.3q.3 0 0 .6z"/><path fill="#dba346" d="m1460.7 361-.6.8q0-.3.6-.9"/><path fill="#d29741" d="m611.2 364 .5-.8q0 .2-.5.8"/><path fill="#9f7635" d="M887.2 662.8q-.3.3-1 .4h.6l.1-.2q0-.1.3-.2"/><path fill="#c99647" d="M750.6 555.8q.1.4-.5 1-.2-.5.5-1"/><path fill="#a9732d" d="M409.2 579.3q.3-.2.7.5-.3 0-.7-.5"/><path fill="#dba346" d="m1396.7 432-.6.8q0-.2.6-.9M1395.7 433l-.6.8q0-.3.6-.8"/><path fill="#d9a044" d="M699 449.7q-.2 0-.8-.6z"/><path fill="#dba346" d="M1506.2 454.7q-.4 0-1-.7.3 0 1 .7M1507 456.2l-.8-1q.3 0 .9 1"/><path fill="#c9903b" d="M1116.7 561c.3.1-.1.2-.1.2l-.5-.2z"/><path fill="#d69c44" d="M854.1 560.7q-.3 0-1-.6.4-.1 1 .6"/><path fill="#d19943" d="M1511.1 461.7q-.2 0-.9-.7.3 0 1 .7"/><path fill="#d69c44" d="M419.8 559h-.7z"/><path fill="#c9903b" d="M1113.2 558.6q-.4.1-1-.5.5-.2 1 .5"/><path fill="#ad7d34" d="m422.9 483.6-.7.3q-.4 0-.3-.6.2-.4.7 0 .4.2.3.3"/><path fill="#c99647" d="M749.6 556.8q.1.4-.5 1-.2-.4.5-1"/><path fill="#d69c44" d="m925.7 552-.6.8z"/><path fill="#c99647" d="m686.3 551.7-1-.6q.1 0 1 .6M756.7 546.1q.4.2 0 .7-.3 0 0-.7"/><path fill="#c9903b" d="M1092.1 533.7q-.2 0-.9-.6.2 0 .9.6M1091.2 532.6q-.3.1-1-.6.3 0 1 .6"/><path fill="#d69c44" d="m536.7 529.8-.2 1q-.2 0 .2-1"/><path fill="#c9903b" d="M1066.3 501.5q-.3.1-1-.5.3-.1 1 .5M1067.2 502.6q-.3 0-1-.6.3 0 1 .6M1071 506.7q-.2 0-.8-.6z"/><path fill="#d19943" d="M1278.3 403h.4q-.2 0-.4 0"/><path fill="#c9903b" d="M594 653q.2-.5.7-.7v1q-.3 0-.7-.3"/><path fill="#e1b15f" d="M1084.2 412.6q-.3 0-1-.7.3 0 1 .7M684.9 415.7q0 .4-.9.2-.4-.5.3-1.1.2 0 .6.9M683.7 416l-.6.8z"/><path fill="#dba346" d="M1406.7 421q0 .3-.6.8 0-.3.6-.8M1401.5 426.7q0 .3-.7 1 0-.3.7-1"/><path fill="#0f0e0c" d="M408 619.5q-37 0-74.6-.3c-.4-1.3-.4-2-.4-3q37 0 74.6.3.5 1.7.4 3M481 619.5q-25.9 0-52.6-.3a8 8 0 0 1-.4-3q26 0 52.6.3.5 1.7.4 3M275.4 619.6q-.5-1.4-.4-3 25-.6 50.6-.1.5 1.7.4 2.9zM591.6 616q.5 1.5.5 3.1-24.5.6-49.7.1a8 8 0 0 1-.4-3zM529 619.5q-10 0-20.6-.3a8 8 0 0 1-.4-3q10-.2 20.6.3a8 8 0 0 1 .4 3"/><path fill="#000104" d="M427.5 616.2q.6 1.2.5 2.9-9.4.5-19.5.5-.6-1.4-.5-3a309 309 0 0 1 19.5-.4"/><path fill="#0f0e0c" d="M504 619.4q-7 .3-14.6-.1-.5-1.9-.4-3 7-.3 14.6.2.5 1.7.4 3"/><path fill="#000104" d="M529.3 619.6q-.4-1.3-.3-3 5.9-.5 12.5-.4.6 1.2.5 3-.2.4-.8.6h-10.7q-.7 0-1.2-.2M488.5 616.2q.6 1.4.5 3-3.4.4-7.5.3-.6-1.3-.5-3 3.4-.4 7.5-.3M326.5 619.5q-.6-1.4-.5-3 2.9-.4 6.5-.3.6 1.3.5 2.9-2.9.5-6.5.4M504.4 619.5q-.5-1.3-.4-3 1.4-.4 3.6-.4.5 1.3.4 3-1.4.5-3.6.4"/><path fill="#17130d" d="M266.5 306.1h.3l65.4-26.4q24.5-9.8 48.8-20.1c3.4-1.4 6.1-1.2 9.4.2q52.7 22.2 106.4 44.6 2.6 1.1 4.2 1.6l28 12 9.8 4.4 10 4 9.6 4L572 336l8.6 3.8c9 3.7 17.8 7.5 28 11.9h-452l-.3-.6 91.8-37.3 1-.6 3-1q2.9-1.3 5-2.2l2.1-.7.8-.4 4.2-1.5zm32.4 42 7 .7v-1.2l-5.2-4.7q-1.7-.5-3.5-1.7.8-.6 2-.7.3-.4 0-1.6c-2-1.8-4.3-2.1-6.3 0-.4.5.2 2 .5 3.7q-.1.8-1 1.2-1-.3-2.4-1.6-7.3-5.2-9.7 1.3-4.3-.4-8.7-.5c-2.8 0-5 1.1-4.7 5.3l3.2-2.6c.8.9 1.4 2.3 2.1 2.3l18.1-.3q4.2 0 8.4-.4zm81.6-14.7c-3.9 4.2.8 3.6 2.5 5.4l-6 7.3 1.1 1.1 3.4-2 3.5 4 3.6-4.4 3 1.6c-.4-2.1-1.5-3.4-2.4-5q-1-1.5-.5-3.6c.7-1.2 1.7-2.4 1.9-3.6.2-1.7-.7-3.6-.4-5.2a23 23 0 0 1 11.4-15.9l-3.7-4.5 7 .8c0-7.4-6.6-2.6-9.5-5l3.6-4.3c-3.1-3.1-3.1-3.1-8.2-.1q-.2-.1-.4-1.1c.8-5.4-2.5-8.8-6-13.8l-6.7 15c-.2 0-1.1-1-2.2-1.2q-2-.3-4-.2c.3 1.3.3 2.8 1 4s1.7 2.3 2 3.6l-1.2-.2-1-.3c-2.7-1.6-5.6-2-7 1.3-1.3 3 .2 4.7 3.6 4 .2-.1.7.6.9 1l11.1 19.9q.3.5-.4 1.4m84.3 7.8c1-3.9 0-7.2-3.8-8.6-1.4-.5-3.8 1-5.4 2-.5.4 0 2.3.2 3.6l5.3-2c2.3 4.4-1.2 6.4-4.3 8.7q.2 0-.8 0c-7.8 1.5-12.5-3.3-18.1-8.5 4.6 0 8.5-.4 7.8-5.3-.7-4.5-4-2-7-1.9a4 4 0 0 1-1.9-.7q-1.9-1-3.9-3.1-5.4-3.7-10.9-7.2c-6.6-4-13.5-4.6-20.2-.3-7 4.4-9.9 11-9 19 .7 7.5 6.6 12.8 13.1 12.3.6 0 1.2-1.2 2.1-2.1q.1-.4 1 0 8.3 4.3 15.3-1.4 7.6-6 5.7-16c2.4 3 4.2 6.2 1.8 10.6l-1 5c4.2-.3 6.2-1.3 5-5.6 1 .9 2.3 1.6 3 2.6 1 1.7 1.6 3.6 2.6 6l2.1-2.9 7.2 3.2c9.8 2.5 19.5-3 29.5-.2 6.6 1.9 13.8-2.9 20.7 0q.3-.1.8-.7c-3-5.6-7.4-4.2-12-3.3 0-5.6-3.2-.6-4.7-2.1-.9-1.1-2.4-3.2-2.6-3.1-4 2.4-8 .8-12.5.1q-.1.8.4 2.2l2 1.3c-2.1.6-3.7 1.1-5.6 1a5 5 0 0 1-1.9-2.6m-122 2.3q1.3 1.6 2.8 2.9a15 15 0 0 0 16.4 0c4-3 5.9-8 4.6-12.8-1.2-4-7.9-9.2-11.5-7.6-2.5 1.1-4.4 5-5.2 8-.4 1.4 2 4.4 4 5.3 1.2.7 4.8-.4 5.3-1.6.6-1.5-.7-4-1.1-6 0-.3.2-.6.8-2.2 1.9 1.9 4.9 3.5 4.7 4.8-.4 3.1-1.5 7-3.7 9-4.3 4-10.4 2.2-15.8-4-3.3-6-1.6-13.4 4.4-18a16 16 0 0 1 17.4-1.6 17 17 0 0 1 9.1 16q-1 8.9-10.1 11.3c1.8 1 4.2 2 5 1.1 2.8-2.5 6-5.3 7-8.6 3.7-11-4.5-22.8-16.4-24.3-9-1.2-15.7 3.1-22 10-2.5.8-6.8-1.5-7.5 3.9q-2.2.5-5.8.7c-2.8-.7-4.6.5-4.1 3.2.9 5.5 5.5 3.5 9.2 4-3.7 3-7.4 5.9-11.5 7.7-4.5 1.9-9.3-.1-11.2-3.9-1.3-2.4-1.3-4.5 1-5.7.8 1.8 1.1 3.4 2 4.2.6.4 2.9-.4 3.3-1.2.5-1 .5-3.4-.2-3.8-1.6-1.1-3.8-2.2-5.6-2-3.8.5-5.5 5.2-4 9.3 2.9 7.4 13 9.8 20.4 5q2.3-1.3 4.5-2.5l.2.6 4-2c1.2 1 2.9 3.2 3.8 3 3.6-1.1 1.3-3.4.6-5.5-1-3.3-2.3-7 2.1-8.2zm154.3-19q28.2 11.6 56.5 23.7c6.9 3 13.7 1 20.5 1.8l.2-1.4-77.8-32.4q-54.3-23-108.7-45.6c-1.8-.8-4.5-.2-6.5.6q-94 38-187.9 76.3-1.4.6-2.7 1.6l.4 1.4c7-.8 14.5 0 20.8-2.5 56.9-22.7 113.5-46 170.3-69 2-.8 4.7-.8 6.6 0q15.5 6.2 30.9 12.8zm79.1 20.8q3.8 1.6 7.4 3 3.5 1.2 7 2a6 6 0 0 0-3.5-3q-49-20.8-98-41.4l-100.4-42.1a9 9 0 0 0-6-.2l-206.9 84.1q-1.4.7-2.7 1.6 3.7.8 6.6-.4l64.4-26L383 266.3c1.6-.6 4-.5 5.6.1q9.9 4 19.8 8.4z"/><path fill="#e1a849" d="M256.7 309.8q-1.7 1.3-4.4 2.1 1.8-1.1 4.4-2M259.9 308.8q-.1.1-.5.3 0-.2.5-.3M266.1 306q-.3.6-1.7 1.1-.2-.3.5-1zM249 313.2l-.6.4q-.2-.4.5-.4"/><path fill="#20190e" d="m594.4 372-1.6 6.6q-1 2-1.8 3.1l-9 .4h-9.5l-8 .1q-8.6 0-16.5-.7-.1-2 .4-3.4 3.1-1 6-2.1.5 0 1 .2 3.7 1.1 7.3 1.9h3.6c2.5 1 4.2 1 4.5-2q.6-4.7-4.5-3.8l-3.8.7-6.7-.1-3.3.2-5.2 1.9q-1.4.1-2.3-.4a36 36 0 0 0-5.1-2.6v6.4q2.5-.1 5 .4.1 1.9-.4 3.1l-107.8.4h-112q-1.6 0-3.2 0h-72.8q-15-.2-30 0c-1.3 0-4.5-1.4-3.4 2.5l.3.3c.4 0 .5-.2 1.1-.7q-2.4-1.2-6-2.2h-2.2l-20.5.2q-5.4-.1-11.7-.8c-.8-1.2-1-2-1.4-3.3q-.2-3.3-.2-6.2l2.3-2.4 5-.4 11-.2 29 .1 38-.2 12 .2 23-.1h98l38.9.2 4.2-.2 5 .2 12-.3 60.7.4q33.5-.1 67.8.4.5 1-.1 1.3l-4.2 1.1c-4 0-3.5 2.8-2.8 4.5.4 1 3 .9 4.8 1.2q1.5 0 3.2.2l6.8.6.6-5.8q-.1-.7.6-.9zm-318.3.5c-5-1-5.7 1.5-4.4 6.3 2-.3 4.2-.3 5.8-1.3.6-.3-.4-3.1-1.4-5m-85 6q.7-2.5 1.9-6.1l-6.5.4c-1 4-.3 6.2 4.6 5.7m192.1-3.9c-.6 4 2 3.7 4.7 3.7 3.4 0 3.4-2.2 3-5.5q-3.8.3-7.7 1.8m147.2-1.4c-.6 5.7-.3 6 5.4 4.6.5-3.5.4-6.6-5.4-4.6m-302.2.2-4.3-.2c0 1.5-.4 3 0 4.4.2.6 2 .7 3 1.1.5-1.5 1-3 1.3-5.3m298.1 4.5c.5-1.6 1.7-4 1.1-4.5-1.1-1-3.2-1-5.2-1.6-.1 3.6-1.1 6.7 4.1 6m-76.2.5h5.7l.5-5.3h-7.6a12 12 0 0 0 1.4 5.3m-6.9-6c-5.5 0-2.4 3.6-3 6.1 5.7.3 4.7-2.8 3-6.1M301 373c-.5 1.2-1.7 3.3-1.5 3.5q2.2 1.4 6 3c-.5-3.6 2.2-7.7-4.5-6.5m217.4 1.7-3.5-2.4c-.5 1.3-1.4 2.6-1.3 3.8 0 1 1.4 1.7 2.1 2.6q1.4-1.3 2.7-4M240 376.3l3.4 2.2c.5-1.2 1.5-2.5 1.4-3.7 0-1-1.4-1.7-2.3-2.5-.8 1-1.7 2-2.5 4m47 1.2c.6-4.4-1.3-5.6-5.7-4.5q0 2.5.3 5c1.8 0 3.2 0 5.3-.5m31.9 1.3c4-.4 2.1-3.3 2-5.2 0-.4-1.8-.8-2.7-1.1q-1 2.3-1.5 4.5c-.1.5.9 1.2 2.2 1.8m172.9-5.6c-.5 3.2-.8 6.1 4.4 4.8-.2-2.7 1.7-6.5-4.4-4.8m-8 3 3.7 2.7 1.5-1.3-2-5.1c-1 1-2.1 2-3.1 3.8m19-3.7q-4.2-1.4-3.7 3c.2 1 1.5 2 2.3 3l2.3-4q.1-.5-.8-2m-34.8 3.7 4.1 2.7 1.7-1.8-3.2-4.9q-1.2 1.5-2.6 4m-31.4 0q-1.4-2-2.7-4l-2.5 5.7 1.5 1.1q1.8-.7 3.7-2.8m-64.5 2.2.8-5.7c-1.2.2-3.5.2-3.6.7-.5 2-2 4.7 2.8 5m-16.6.2c3.3.4 3.4-1.8 3-4-.2-1-1.5-1.7-2.3-2.5q-1.3 2.2-2.3 4.6-.1.6 1.6 1.9m-21.2.2c.8-1 2.2-2 2.2-3 0-1.2-1.3-2.4-2-3.5-.9 1-2.2 2-2.5 3.3-.2.9 1 2 2.3 3.2M183 375.5l-2.6-3.2c-.7 1-1.8 2-2 3s.7 2.2 1.2 3.3q1.7-.9 3.4-3m53 2.7q.4-2.4.4-4.7c0-.5-1-1.3-1.6-1.3-.9 0-2.4.7-2.4 1.1 0 2.2-1.4 5.4 3.6 4.9m110.4-4.4c0 3 .2 5.8 4.5 4 .1-6 0-6-4.5-4m130 3 4.5 1.9V373c-3.3-1-5-.4-4.6 4m-278.4-4.7-.5 6.3c1.2-.3 3.2-.5 3.3-1 .5-2 1.9-4.8-2.8-5.3m62 4.7-2.1-4.6-3.3 4.7 1.2 1.4c1.3-.3 2.6-.5 4.2-1.5m201 1.3c2.6.8 4.4.3 4-2.8-.2-1.2-1.4-2-2.1-3.1l-3 4.1q0 .5 1.1 1.8m-32.5-1.5c0-4.9 0-4.9-4.3-3.6l.2 5q1.4.4 2.5.4.7-.1 1.6-1.8m-160.7-3.6c-4.7-1.4-5-1.1-4 4.7 4 1.6 4.3-1 4-4.7m133.2.6c-.2 3-.6 6 4 4.3.7-6 .7-6-4-4.3m9.5-1.6-1.4 5.5c0 .2 1 1 1.4 1 .7-.1 2-.8 2-1q-.2-2.8-2-5.5m-85.6 2.6 1.7 4c.8-.4 2.2-.8 2.2-1.2.1-1.6-.3-3.1-.4-4.7-1.2.4-2.3.7-3.5 1.9m-15.8 1.6 2.8 2.3c.5-1.3 1.4-2.6 1.3-3.8 0-.9-1.4-1.7-2.2-2.6q-1 1.4-2 4m-18.7-1.4c-.2 3.8 1.8 4 5.3 2.7l-1.6-4.9q-2 .6-3.7 2.2m-73 3.4c3 1 3.5-.9 3-3.1-.1-1-1.1-2-1.8-2.9l-2.1 4q-.4.6.8 2m199-4.4c0 2.8-.6 6 4 4.3.7-6.2.6-6.3-4-4.3"/><path fill="#e1a849" d="M259.6 368.8q-18 .4-37.2.3 2-.8 4.8-1 16 0 32.4.7M354.7 368.9"/><path fill="#0f0e0c" d="m581.8 371.1.2-1.2a11 11 0 0 1 4.5 0q.8 1.5 0 2.8-2.4.5-4.4.3z"/><path fill="#311f11" d="M587 372.6v-2.7q1.1-.6 2.8 0 .3 1.4.2 2.1.1.3-.4.7z"/><path fill="#e1a849" d="M192.7 368.9q-4.5.4-10.3.3 4.5-.4 10.3-.3"/><path fill="#0f0e0c" d="M590.5 372q-.6-.6-.5-2 1.3-.4 3-.2 1.5.8 1.8 1.8a15 15 0 0 1-4.3.4"/><path fill="#be8635" d="M593 367.4q-1 .4-2 .5l-.1-.7q1 0 2.2.2"/><path fill="#0f0e0c" d="M176.6 369.6q-.5 1.3-2 2.5-.4 0-.4 0l.7-2q.7-.6 1.7-.5"/><path fill="#e1a849" d="M435.8 369q-1.2.3-3.4.2 1.2-.3 3.4-.3M207.9 369l-.7.1q0-.3.7 0"/><path fill="#c9903b" d="M1518.1 489.3q.7.3 1.8 1.4-.7-.3-1.8-1.4"/><path fill="#20190e" d="M336.3 518.5v7.6l.6 16-.9 10.8h-2.2l-.8-13.5-.8-95.8q.1-3.4.6-6.8h2.2zM328.9 540.6 328 553q-.9 0-1.8.2-.8-2.6-1-5-.2-12.6-.3-25.8c.6-29-.7-57.5.2-86h2.8z"/><path fill="#17130d" d="M312.2 527.5q0 10.7-.4 20.7c-.1 1.6-1.3 3.2-2.5 4.8q-.7-15-.6-29.9 0-40.9.4-81.8.2-2.5.8-5.2l2.2.2z"/><path fill="#20190e" d="M320.4 551.5c-3.3 2.8-3.2.2-3.3-1.8l-.3-20.3q0-44.2.2-87.9c0-1.7.6-3.5.9-5.3l2.2.1zM301.1 511.5l1-73.8c4.3-1.5 2.7 1.9 2.7 3.4q-.1 25.3-.4 50.5-.3 21.6-.3 43.9l-.9 17.2h-2z"/><path fill="#17130d" d="M424.1 488.4q.6-.9 1-2.4-.3-.6 0-.7.3-.7.2-1.2l1-47.4 1.8-.1c1.4 6.4.4 13 .5 19.5q0 10.5-.2 21l-.2 20.4v21l-1 34.4H425v-33.5l.1-3.4-.1-4 .5-20.9a9 9 0 0 0-1.3-2.7"/><path fill="#20190e" d="M431.1 521.4q.8-1.7 1.4-3.8.1-38.1.5-75.7.2-2.7.7-5.5l2.2.1V481l.1 25q0 21-.5 41.8c0 1.8-1.4 3.5-2.7 4.8q-.4-13.6-.4-26.5c0-1.6-.8-3.1-1.3-4.7"/><path fill="#17130d" d="M444 510.5q0 21.4-.4 42.3h-2.5l-.4-37.4-.1-16.1.3-57.9q-.2-2.5 1.8-5c1.5 12.3 1.2 24.5 1.3 36.7z"/><path fill="#20190e" d="m460 502.5.1 40.1q0 4.6-.2 9.9c-1-1-2.6-2.3-2.7-3.7q-.4-13.8-.4-28.4-.2-42.2-.2-83.7h2z"/><path fill="#17130d" d="M452.2 502.5q0 25.6-.3 50.5h-2.7q0-15.5-.4-31.6l.7-84.5c0-.3.7-.5 2.7-1.6z"/><path fill="#c9903b" d="M440.3 499q.4 7.9.2 16.1-.9-2.3-1.6-5-.8-2-2.5-4-.5-12-.3-24.6c1 1.1 2.5 2.7 2.8 4.4.7 4.2.8 8.5 1.4 13"/><path fill="#ad7d34" d="m430.3 510.9-.1-3h.7q-.2 1.7-.6 3"/><path fill="#c28a38" d="M424.7 483.9q1 .7 0 1.4h-1.4l-.3-1.3-.2-.7q.5 0 1.9.6"/><path fill="#c99647" d="M674 616v-1.6q37.7-.6 75.4-.6h338.2q2.6 0 5.7.3-1.5 1.1-3.3 2h-1.2l-6.7-.1z"/><path fill="#ba883d" d="m1090.5 616 3.2-1.8q2.1-.4 3.8-.4l405 .1c-1.9.8-4.3 2-6.7 2l-213 .1z"/><path fill="#311f11" d="m560 547-1 7h-2l-1.1-7.6.1-91.3.1-14.5c0-1.5.6-3 1-4.4h1.6q.6 2.2 1 5.9 0 7.8 0 14.3zM568.1 528.5l-.5 25.3h-2.1c-2.3-8.5-.6-17.3-1.2-26.8l-.3-16 .1-68.9q.1-3 .7-6h2q.6 4 .8 8zM575.8 552.5c-3.6.9-3.1-1.7-3.2-3.8l-.5-23.3-.1-90c3 3.8 5.1 87.8 3.8 117"/><path fill="#20190e" d="m551.5 545.9-1.2 7.9-2.4-.1v-47.8c0-23.5.2-46 .3-68.6q1.5-.4 3.2 0 .3 11.1.2 21.2v40.8q-.2 23.7-.1 46.6M539.8 542.5l.1-15.1q.5-42.8 1.4-84.8c0-2 1.2-3.9 2.3-5.2q.5 11.6.4 22.4a8824 8824 0 0 1-.9 86.2l-1.1 6.7h-2.2z"/><path fill="#e1a849" d="m543.6 520 .4-60.2v-22.3q1.8-.6 4-.4 0 34-.3 68.3a60 60 0 0 1-1.7-7.9c-.3-2 0-4.2-1-6.4q0 13.8-.3 28.4-.7.5-1 .4"/><path fill="#e1b15f" d="m560.3 546.6-.4-104.1q.8 2.8 1 6.3l.1 55.8v36.2q-.1 2.6-.7 5.8M551.7 498.9v-61.4c.5 1.8 1.2 4 1.2 6.3q.2 19.5.2 39.8c0 5.2 0 9.8-.3 14.9q-.7.5-1 .4"/><path fill="#c9903b" d="M563.6 511q.5 7.4.6 15.6c-.8-1.8-1.9-4-2.2-6.2-.3-2.8 0-5.6 0-9q.6-.5 1.6-.4"/><path fill="#b37f35" d="M569 503v-10.8h.7v25.5h-.7z"/><path fill="#986a27" d="M418.3 390c-2.1.8-4.2 2.1-6.4 2.1l-118.8-.2q-29.7 0-59.6-.5-.1-.4.8-.4l24.3-1.1 39.6.1 75.6.1h44.5"/><path fill="#311f11" d="M596.8 389.6c-1.6.7-3.3 2-5 2l-43-.2q-12.8 0-26.3.4c-1.2 0-1.9-.1-2.9-.5q-.6-.7-.1-1.2a552 552 0 0 1 49.2-.9zM469.8 391.6l-47.9-.1a5 5 0 0 1-3.1-1.2q.4-1 .8-1h.7l14 .5q18.2.2 35.5.6z"/><path fill="#6e5228" d="M470.3 391.7q-.9-.7 0-1.3 9.6-.4 18.4-.4l30.5.2v1.1q-24 .4-49 .4M197.2 391.5l-21.4.3c-4.5 0-3.9-3-3.3-7H188c2.3 0 3.7 0 5 .2-1 2.5-1.6 4.1-4.5 1.8-3.2-2.5-12.6-.7-15.6 3.4 8.7 0 16.4 0 24.2.2z"/><path fill="#392c19" d="M197.6 391.6q-.6-.5 0-1.2c2.7-.4 5-.5 7.9-.5q7.4-.2 14.3 0 7 .4 14 1l-.7.3q-17.5.4-35.5.4"/><path fill="#e1a849" d="M193 384.7h-4.5q-.5-.8-.5-2a217 217 0 0 1 20.5-.2q.7 1 .1 1.5l-3 .1z"/><path fill="#c9903b" d="m419.5 389.2-.9.7-.3.1q-5.2 0-10.7 0 6-.6 11.9-.8"/><path fill="#0f0e0c" d="m174.9 378.7 1 2.8q-1 .4-2.5.3-.6-1 0-2.4.9-.6 1.5-.7"/><path fill="#d69c44" d="M529.2 317.8q-6.5-2.4-13-5.3c1.1-.8 2.8-2 3.8-1.7q5 2 9.8 4.8c.2 0-.3 1.3-.6 2.2M572.1 335.7q-6.5-2.2-13.4-5.1c3.6-3.4 12.5-.1 13.4 5M549 326q-4.8-1.4-9.8-3.6l-2.6-4.2c4.1 1.5 7.6 2.6 10.8 4.2 1 .4 1.2 2.3 1.6 3.7M501 305.7q-1.7 0-3.8-1.2L495 301c3.4.5 6.5 0 6 4.7M511 308.3v-.6zM199 437l4.6-.2q.4 0 .3.6l-.2 78q-1.8-.2-4.2-.9a4009 4009 0 0 1-.5-77.5"/><path fill="#17130d" d="M198.6 436.8q.5 38.7.5 77.7l-.6 38.2h-2.7l-.3-38.6-1.4-4.9q-.1-2.2.4-3.7 1-2.8 1.1-5.7l.3-62.8q1.1-.3 2.7-.2"/><path fill="#20190e" d="M194 505.5q.2 1.7-.1 3.2c-4.7 0-2.2 3.4-2.8 5.3l-.2 7.8q.1 1.1.2 1.2-.2.9-.2 3.1c0 9.2-.2 17.5-.3 25.9-4 2.3-2.9-1.2-2.9-2.7l.1-33.9v-5l.2-9c.2-21.5.6-42.5 1-64q1-.8 2.3 0 .2 32.1-.2 63.2 0 2.3.3 4.5c0 .3 1.7.2 2.6.4"/><path fill="#0f0e0c" d="m203.8 515.7.1-78.3c4.2-1.8 3 1.4 3 3.2l.1 37.5v34.4q0 20.5-.3 40.3h-2.8zM211.8 513.4c.4-26-.6-51.5.1-77h2.8l.5 64.2v47.1q-.1 2.5-.4 5.2l-1.7.2c-.3-1.6-1-3.2-1-4.9z"/><path fill="#17130d" d="M219.7 516.4c.1-26.8-1-53.2-.4-79.5h2.4l1.4 81.6V553l-2 .2c-.3-1.6-1-3.2-1-4.9z"/><path fill="#d69c44" d="M191.5 514c.2-2-2.3-5.3 2.3-5 .7 1.8 1.2 3 1.6 4.7q-1.7.5-3.9.3M191 522.9v-.6q.2 0 0 .6M216.5 503.5"/><path fill="#d69c41" d="M431.1 521.9c.5 1 1.3 2.6 1.3 4.2v26.5c-.3-1.2-1.3-2.9-1.3-4.6z"/><path fill="#0f0e0c" d="m341.5 421.5 8.7-1.5c-.5 4-3.6 5.4-9.4 2.6q.4-1 .7-1M297.4 422.4c-2.5 2-4.9 2.6-8-.1 2.4-.3 4.2-.5 6.7-.6.9.3 1 .5 1.3.7M296.5 421.5q0-3 .6-6.4 3.6 3.3.6 7-.6 0-1.2-.6M286.8 419.9q-.4-3.4-.3-6.1l2 .2a32 32 0 0 1-1.7 5.9M344.7 410q-2.5.5-4.5.2V409q2.5.4 4.5 1.2M339.4 421.6l-.7-5.4h1.4q.2 1.5 0 4.2-.4 1-.7 1.2M350 415q.9 1.8 1.3 4.3l-1.8.1q-.1-1.9.4-4.3M292.3 410.4q-.4.8-1.8.9l-1-.8 1.8-1q.5.1 1 .9M325.4 407.5q-.4-.2-.4-1 .7-.7 1.8-.6-.2.9-1.4 1.6M346.8 410.8q-.4-.2-.4-.7.4.1.4.6"/><path fill="#0f0e0c" d="M290.3 411.3q.1.8-.9.9l-1.1-.7 1-1q.4.1 1 .8M348.3 411.8q0-.4.4-.5 0 .4-.4.5"/><path fill="#0f0e0c" d="M289.2 412.3q-.3.9-1.1 1.5a4 4 0 0 1 0-2q.5-.3 1.1.5M349.8 413.8q-.4-.2-.4-.7.4.1.4.6M340.2 420.8q.8-.2 1.2.5-.1.5-.8 1-.8.2-1-.5 0-.5.6-1M590.1 414c1 3.5 1.3 6.3-3.3 8.7q1.8-5.3 3.3-8.6M536.4 422.4q-4 3.5-8.4-.4c2.6-.2 4.6-.3 7.3-.3q1.1.4 1 .7"/><path fill="#0f0e0c" d="m580.6 421.2 7 1.2c-2.8 2.2-5 2-7.5 0q.2-1 .5-1.2M527.5 416.6c.3 2 .6 3.3 1 4.8-3.7-1.7-4.1-3.3-1.6-8.3zM584.5 410.7h-5.8v-1.6q3-.1 6.1.5 0 1-.3 1.1M536 409q-1.2 1-3.4 2l-.4-1.6zM578.3 416.5l2-1.7q.1.3.6.4-.5 1-1.5 1.7-1 0-1.1-.4"/><path fill="#0f0e0c" d="M579.2 417.2q.4 1.9.3 3.3h-1.1l-.3-3.6q.5-.2 1.1.3M585.2 409.8q1.1-.2 1.8.9-.3 1-.6 1.1l-1.7-1q-.1-.3.5-1M536.4 419q.6-.8 1-1l.4 1.6q-.8.1-1.4-.5M528.6 410.6l2.7-.5q-.3.7-1.6 1.2-1-.5-1.1-.7M528.7 412.6l-1.3 1.2q-.4-.7.2-1.6 1 0 1.1.4"/><path fill="#0f0e0c" d="M527.9 411.8q-.3-.7.5-1.1.4 0 1 .7 0 .8-.5 1-.5 0-1-.6M587.2 410.9q.7.6 1.1 1.6-.5 0-1.5-.3-.2-.7.4-1.3M536.8 416.8q-.4-.2-.4-.7.3.1.4.6M535.7 421.5q.4-.9 1.1-1.3.3.7-.1 1.9-.6 0-1-.6M579.8 422.1q-.7-.5-.9-1.5.5 0 1.4.3.2.6-.5 1.2M471.9 420.5l1.3-8.2c2.7 2.7 2.4 5.6.2 8.6q-1.3-.1-1.5-.4M411.5 421.5q-.4-4.3 0-8.6.9.3 1 .6v6.8a3 3 0 0 1-1 1.2M471.3 421.6c-1.8 4-4.2 2.6-7.9.6 3.3-.4 5.3-.6 7.9-.6M462.1 418.2c.4-1.1.8-1.8 1.8-3.6l.3 6.9-1 .3q-.5-1.4-1-3.6M468.5 410.6h-4.7q-.7-.2-1-1 2.9-.6 6.2-.1-.2 1-.5 1.1M419.5 423.6l-4.1.4-.2-1a7 7 0 0 1 3-.4q1.3.8 1.3 1M420.4 416.6l-3.3-1.4c2.3 0 3 0 3.8.4q-.3.9-.5 1M422.4 416.6q.4 1.8 0 3.4-.8-.2-1-.5-.2-.6 0-2z"/><path fill="#0f0e0c" d="M469.4 409.6q1.4.4 2.6 1.2l-.2.7-2.9-.6q-.3-.6.5-1.3M421.3 422.3l-1.5 1.3q-.5-.2-1-1 .2-.7 1.5-.9.9.4 1 .6M413.6 421.1l3.2 2.4c-2-.2-2.7-.3-3.6-1 0-1 .2-1.2.4-1.4"/><path fill="#0f0e0c" d="M420.6 421.6q0-1 .6-1.9.5 0 1.1.7 0 1-.8 1.7-.4 0-1-.5M413.4 410.4l1.7-.5q.2.6-.6 1-1-.2-1.1-.5"/><path fill="#0f0e0c" d="M414.1 411.2q.4.7-.8.8-1-.4-1-.6l.9-.9q.4 0 1 .7M472.7 411.8q-.4-.1-.5-.5.5 0 .5.5"/><path fill="#0f0e0c" d="M413 412q.2.9-.3 1.3-.4 0-1-.7-.2-.7.4-1 .4 0 1 .5M421.5 417.3q-.6 0-1-.5 0-.4.6-1 .7 0 1.2.6 0 .4-.8 1M412.8 422.1q-.8.3-1.1-.4 0-.5.9-1 .7-.2 1 .3zM473 421.2q-.3.9-1.3 1.3-.4-.5-.2-1.7.8-.2 1.6.4"/><path fill="#d69c41" d="M337.1 541.7"/><path fill="#0f0e0c" d="M221 416.7q-1.2-1.1-2.3-2.5 1.5-.4 3.1-.3 0 1.3-.8 2.8M188.9 414.5q1.3-.9 2.7-1.3l.4 1q-1 .5-2.6.8-.5-.1-.5-.5"/><path fill="#b1792e" d="M674 616.2a195646 195646 0 0 1 414.6-.1q.6.1.5.6l-1.8.3H674.5q-.6-.1-.4-.8"/><path fill="#d69c44" d="M551.6 499.3q.5-.5 1.2-.4.3 21.2.1 42.3-.2 2-1.2 4.5-.3-22.7-.1-46.4"/><path fill="#d19943" d="M543.5 520.4q.5-.6 1.2-.5.3 10.8.2 21.6-.2 2-1.5 4.3-.2-12.2.1-25.4"/><path fill="#0f0e0c" d="M1367.6 660.9q.3.3.4.8-4.4 4.4-6-1.7 0-1 .7-1.8 2.2 1 4.9 2.7M1333.6 663.8q-.5-3.3-.5-7.4c3.7 1.8 1.9 4.5.5 7.4M1337.7 662.6q1.4.5 2.4 1.2l-2 1q-.4-1-.4-2.2M1358 654.5q.2-.4.7 0l1.4.5v2.6a8 8 0 0 1-2-3.1M1326.5 657.6q-.7 0-1.2-.4l.9-.8q.4.6.3 1.2M1330.3 660.3q.4.8.4 2.7-.4-.9-.4-2.7"/><path fill="#b37f35" d="m1339.7 666.7 1.7-.6.1.6q-.5.1-1.5.1zM1342.5 663.5"/><path fill="#0f0e0c" d="M210 422.7q-1.8.4-4 .2.7-1.6 2-3zM211.9 418l2.6-.9.3 1.7q-1.5-.2-3-.8M197.5 416.5"/><path fill="#be8635" d="M596.8 389.3a839 839 0 0 1-37.4-.5q-.6-.3 0-.5l4-1.3 5-.1q4 0 7.2-.2l12.3-1.7h8z"/><path fill="#986a27" d="m587.5 385-12 1.7q-3.2.2-7-.2 2-1.4 4.9-2.3l10.6.6z"/><path fill="#be8635" d="M583.9 384.6q-5 0-10.5-.8-.5-1-.4-1.6h8.6q1.4 1 2.3 2.4"/><path fill="#0f0e0c" d="M591.4 381.8q.3-1.4 1.5-2.7l3.6-.3q.7.5.7 2.1-2.6 1-5.8.9M1372.4 665q-1.2-1.4-2-3.4 6.9-4 7 5.4zM1388 657q2.4.8 4.3 1.9l-2.6 2.4q-1-2-1.7-4.2"/><path fill="#c9903b" d="M412.8 652q.2.5 0 .9-.1-.5 0-.8"/><path fill="#d69c44" d="M194.5 505.5c-1.4-.2-3-.1-3.1-.4q-.5-2.2-.3-4.5l.6-63q1.4-.7 3.8-.6.3 31.4.1 62.8 0 3-1.1 5.7"/><path fill="#0f0e0c" d="M1226.3 658q-2.2.9-4.8 1.5v-6.2c3.7-1 5.7 0 4.8 4.7M434.7 657q1-2.5 2-4c1 .6 2.7 1.2 2.9 2 .2 1.2-.7 2.5-1.2 3.8q-1.8-.6-3.7-1.9"/><path fill="#17130d" d="M700 653q10.4-1.8 10.2 7c0 4-1.8 6.9-6 7-4.1.1-6.5-2.6-6.6-6.5 0-2.2 1.5-4.5 2.4-7.1z"/><path fill="#0f0e0c" d="M1054.2 655.2a17 17 0 0 1 4-1.9c.5 1.3 1.6 2.9 1.2 3.9-.3 1-2.2 1.4-3.4 2q-.9-1.5-1.8-4M1452.1 654.4c1.1 4.4-1.4 4.8-4.6 5v-6.7q2.3.7 4.6 1.7"/><path fill="#20190e" d="M979 664c-.2 3.6-2.8 3.5-5 2.6-2.9-1.1-3.8-3.4-1.7-6.6z"/><path fill="#17130d" d="M1360 654.7q-.2.2-1.2-.3.1-.3 1.2.3"/><path fill="#0f0e0c" d="M146 654.4c2.5-2.3 4.7-1.7 4.9 1.3.1 1.4-1.9 3-2.9 4.6l-1.7-.8q-.3-2.2-.3-5.1"/><path fill="#ad7d34" d="M424.6 512.1q.4 1.4.4 3.5-.5-1.2-.4-3.5"/><path fill="#d69c41" d="M424.2 488.7q.6.5 1 2-.4-.5-1-2"/><path fill="#ad7d34" d="M423.3 485.4h1.2q.5 0 .4.2l-1.2.1q-.5 0-.4-.3"/><path fill="#c99647" d="M175 378.3q-.7.7-1.7.7c-1.2-1.1-2.9-2.4-2.8-3.5s2-2.1 3.4-3.3h.4q.5 2.8.6 6.1"/><path fill="#0f0e0c" d="M364.7 652.9q1.3 0 2.5.5c4 5.1 3.9 8.5-.7 12.7-2.3-.3-5.9-.5-6-1.3q-.8-5.2-.1-10.7c0-.5 2.5-.8 4.3-1.2"/><path fill="#20190e" d="M462.9 653c.7 2.6 2 5.2 2.1 7.8.1 4.1-3.9 7-7.9 6-1-.3-2.2-1.6-2.3-2.5q-.1-5.3 0-11.1l7.7-.1q.6 0 .4-.1"/><path fill="#0f0e0c" d="M628 659.2q-.4-2.7 0-5.8c2.5-.5 5.3-.6 4.8 2.8-.2 1.2-2.9 2.1-4.8 3M1143.4 659.2a23 23 0 0 1-1.3-5.6c2.5-.8 5.3-1.3 5.5 2.2 0 1-2.5 2.3-4.2 3.4"/><path fill="#17130d" d="M283.6 659.2c-.8 0-1.2-.2-2-.3q-.4-2.4-.3-5.4 1.1-.5 2.5-.5c4 2.5 4 3.7-.2 6.2"/><path fill="#dba346" d="m496.7 324-77-32.3q-15.2-6.5-30.8-12.8c-2-.8-4.7-.8-6.6 0-56.8 23-113.4 46.3-170.3 69-6.3 2.5-13.9 1.7-20.8 2.5l-.4-1.4q1.4-.9 2.7-1.6 93.9-38.3 187.9-76.3c2-.8 4.7-1.4 6.5-.6q54.4 22.4 109 46.3 0 4-.2 7.1"/><path fill="#d69c44" d="m576 345-167.6-70.2q-9.9-4.4-19.8-8.4c-1.7-.6-4-.7-5.6 0l-138.8 56.3-64.4 26q-3 1.2-6.6.4 1.4-.9 2.7-1.6l206.8-84.1c1.8-.7 4.3-.6 6 .2l100.5 42 98 41.5c1.3.6 2.6 1.2 3.6 3q-3.6-.8-7-2-3.7-1.3-7.8-3.1"/><path fill="#d69c44" d="M375.1 306q-1.5-1.6-2.7-3.5c-.6-1.1-.6-2.6-1-3.9q2.1-.1 4 .2c1.2.3 2 1.1 2.3 1.3l6.6-15.1c3.6 5 6.9 8.4 6 14.3l.1 2 .8-1.1c4.7-3.3 4.7-3.3 7.8-.2l-3.6 4.4c3 2.3 9.5-2.5 9.5 4.9l-7-.8 3.7 4.5a23 23 0 0 0-11.4 15.9c-.3 1.6.6 3.5.4 5.2-.2 1.2-1.2 2.4-2.2 3.7q-.4.3-.4-.1-1.3-.2-3 .2-.7.1-.8-.2 0-.9-.2-1.5v-4.5c-.3-4-.2-7.6-1.2-11-1-3.7-3.1-7.1-4.7-10.7q0 .1 0-.4a8 8 0 0 0-2.1-1.6v-.3zm11-9.8-2-.1v18.2h2zm2 30.4 2.8-14.1-1.2-.2-3.6 18.4 1.2.3zm2.9-16h1l.1-.8q-.5-.1-1.1.8"/><path fill="#d69c41" d="M497 324.1q-.2-3.3.2-7.1a4580 4580 0 0 1 77.2 31.5l-.2 1.4c-6.8-.8-13.6 1.2-20.5-1.8q-28.2-12-56.8-24"/><path fill="#d19943" d="M429.3 329.8c2 6.4 0 11.8-5 15.8-4.6 3.7-9.9 4.3-15.9 1q-1.3-.6-1.7-.4l1 1.1c-.6.6-1.2 1.7-1.8 1.8-6.5.5-12.4-4.8-13.1-12.2q-1.4-12.3 9-19.1c6.7-4.3 13.6-3.7 20.2.3q5.6 3.4 10.7 7.6-2 .4-3.7.3v.3q0 2 .3 3.5m-20 1.4c-4.2 3.7-4.5 8.6-.6 11.8 6.4 5 16.6 1.4 18.2-6.6a17 17 0 0 0-7-16 16 16 0 0 0-17.4.2 16 16 0 0 0-6.4 17.2q2.5 8.5 10.7 8c-6-10.7-4-17.6 4.9-17.6-.6.9-1.1 1.8-2.4 3"/><path fill="#c28a38" d="M339.9 331c-4.6 2.1-3.2 5.8-2.3 9.1.7 2 3 4.4-.6 5.4-1 .3-2.6-2-3.8-3-.9.5-2.5 1.3-4 1.7q0-.7-.2-.7l.1.6q-2.3 1-4.6 2.4c-7.4 4.8-17.5 2.4-20.4-5-1.5-4.1.2-8.8 4-9.3 1.8-.2 4 .9 5.6 2 .7.4.7 2.8.2 3.8-.4.8-2.7 1.6-3.2 1.2-1-.8-1.3-2.4-2-4.2-2.4 1.2-2.4 3.3-1.1 5.7 1.9 3.8 6.7 5.8 11.2 3.9 4.1-1.8 7.8-4.7 11.5-7.7-3.7-.5-8.3 1.5-9.2-4-.5-2.7 1.3-4 4.4-2.7-.6 3 .6 4.7 3 3.8 2.7-1.1 5-3.3 7.5-5l.2-.2q0 .1-.6.2h-3.8c-.1-5.4 4.2-3.1 7.5-4q.8 3 .6 6"/><path fill="#d19943" d="M339.8 331.5a35 35 0 0 0-.1-6.5c5.1-6.8 11.7-11.1 20.8-10 11.9 1.6 20 13.3 16.4 24.4-1 3.3-4.2 6.1-7 8.6-.8.8-3.2-.1-5-1q9.2-2.6 10.1-11.4a17 17 0 0 0-9-16 16 16 0 0 0-17.5 1.6c-6 4.6-7.7 12-4.6 18.7l-1.2 3z"/><path fill="#c9903b" d="M342.8 343.1q.3-1.4 1.2-2.9c5.5 5.2 11.6 7 16 3 2.1-2 3.2-5.9 3.6-9 .2-1.3-2.8-3-4.7-4.8-.6 1.6-.9 2-.8 2.2.4 2 1.7 4.5 1 6-.4 1.2-4 2.3-5.3 1.6-1.8-1-4.3-3.9-3.9-5.3.8-3 2.7-6.9 5.2-8 3.6-1.6 10.3 3.6 11.5 7.6 1.3 4.7-.5 9.8-4.6 12.7a15 15 0 0 1-16.4.1q-1.4-1.2-2.8-3.2"/><path fill="#c28a38" d="M489.8 345c4.5-1.6 9-3 12 2.6q-.6.6-.9.7c-7-2.9-14 1.9-20.7 0-10-2.7-19.7 2.7-29.5-.2q3-2 6.1-3.4l.3.1 3.1 1.5q2.1-.2 4.4-1l2.5-1 5.2-1.6q-1.4-.8-2-1.8v-1.7c4 .7 8 2.3 12-.1.3-.1 1.8 2 2.5 3.6q-4.4 1-8.2 1.3l.3 1.9q2.1-.7 4.2-.7c1.6.1 3.1 1 4.7 1 1.3 0 2.7-.7 4-1.2"/><path fill="#c9903b" d="m456.4 344.7-6.1 3.2q-3.6-1-6.8-2.6l-2 3c-1.1-2.5-1.7-4.4-2.7-6q-1.1-1.6-3.6-2.4a9 9 0 0 1-2.7 0c1.7-4-.1-7.2-2.9-10.2q-.5-1.4-.6-3.4v-.3h3.8q2.2 1 4 3a5 5 0 0 1-2.6.7l-.4 1.2 7.4 3.1.4-1-2.2-3.7c2.3-.2 5.6-2.8 6.3 1.7.7 4.9-3.2 5.2-7.8 5.3 5.6 5.2 10.3 10 18.5 8.4M380.7 331.3l-11-19.3c-.1-.4-.6-1.1-.8-1-3.4.7-5-1-3.6-4 1.4-3.3 4.3-3 7-1.3l1.5.6q1.4 1.2 2.2 1.7l.1.3 1.9 1.7-.2.2q-1 .6-2 .7l-.8-.8-.2.3q.6.2 1.2 1c.6 1.6 1.5 2.9 1.8 4.3 1.3 5.1 5.4 9.8 3 15.6"/><path fill="#c28a38" d="m298.7 347.4-8.4.3-18 .3c-.8 0-1.4-1.4-2.2-2.3l-3.2 2.6c-.3-4.2 2-5.2 4.7-5.3q4.4.2 9 .3.4-.5.3 0 .6.7 1.1.7v.3q2.3.7 5.1.6l3-2a33 33 0 0 1 8.6 4.5"/><path fill="#c9903b" d="M384.2 338h3.9q.3 1.6 1.1 3.4c.9 1.5 2 2.8 2.3 5q-1.7-1-3-1.7L385 349l-3.5-4q-1.2.8-3.4 2l-1.2-1q3-3.7 6.1-7.7 0-.4.2-.3zm-1.7 5.6v-.2q-.2 0 0 .2M460 346.1l-2.9-1.3c2.8-2.3 6.3-4.3 4-8.7l-5.3 2c-.1-1.3-.7-3.2-.2-3.5 1.6-1.1 4-2.6 5.4-2 3.8 1.3 4.7 4.6 3.5 9l-.7 1.6-1 1.1z"/><path fill="#986a27" d="M380.8 331.6c2.4-6.1-1.7-10.8-3-16-.3-1.3-1.2-2.6-1.8-4.2v-.4l1.8-.8c1.9 3.4 4 6.8 5 10.5 1 3.4.9 7 1 11.1q-1.6 1-2.7 1.3z"/><path fill="#44311a" d="M331.4 329h4.5c-2.4 1.7-4.7 3.9-7.4 5-2.4 1-3.6-.7-2.6-3.7q2.6-1 5.5-1.3"/><path fill="#6e5228" d="M489.8 344.7q-2 1.3-4 1.5c-1.6 0-3.1-.9-4.7-1q-2.1.1-4.2.7 0-1-.3-2 3.9-.2 8.2-.8c1.7.6 4.9-4.4 5 1.6"/><path fill="#c9903b" d="M290 342.6q-1 1.3-3.2 2.2l-4.8-.9v-.2q-.5-.5-1-.8v.1q1.5-6 9-.4"/><path fill="#d29741" d="M299 340.1q-1 .4-2 1.6-2 .5-3.7.2c-.2-1-.8-2.5-.4-3q3-3 6.3.5-.2.6-.3.7"/><path fill="#986a27" d="M293.3 342.3q1.6-.3 3.7-.3a7 7 0 0 1 3.8 1.6q-1 2.3-2 3.7l-5.5-3q-.2-1 0-2"/><path fill="#c9903b" d="m380.8 333.2 3-1q.3 1.5 0 4.2l-.9 1.7h.1c-1.7-1.2-6.4-.6-2.2-5"/><path fill="#44311a" d="M439 329.2q1.5 2 2.6 3.7l-.4 1.1-7.4-3 .4-1.3q1.4-.1 2.9-.5.8-.3 2 0"/><path fill="#a9732d" d="M432.1 340c1 0 1.7 0 3 .2 1.9 3.7-.1 4.7-4.3 5q.5-2.7 1.3-5.1"/><path fill="#c28a38" d="m298.8 347.7 2.2-4q2.5 1.7 5 3.9l-.2 1.2q-3.4-.3-7-1.1"/><path fill="#392c19" d="M464 343q-.1-.4.4-1 1.3.7 2.5 2-.8.9-2.4 1.2-.6 0-.6-.6zM470.1 339.2q.3.6-.1 1.6-.3-.6.1-1.6"/><path fill="#986a27" d="M376 307.7q-.9-.2-1.9-1.2 0-.4.8-.4.8.6 1.1 1.6"/><path fill="#d29741" d="M299.4 339.6q0 .4-.4.7z"/><path fill="#b57f34" d="M559 388.4v.3l-23.3.6-16.2.8h-49.1q-18.1 0-36.2-.6-7-1-13.1-2 2-2.2 4.1-3.4 2.8-1 5.8-1.8 1.4-.1 3.5.1a8 8 0 0 1-.4 2.9l3.4-.3q9 0 17.9.2 1.7.6 2.7.8 18.8.6 37.6 1c1.2 0 2.3-1.4 3.8-2.3 3-.2 6-1.1 8.2-.2 4.7 1.8 9 .9 13.6 0 3.3-.6 6.8.2 10.6.6 5.5.5 10.7.4 15.7 1 3.9.4 7.6 1.5 11.4 2.3"/><path fill="#c9903b" d="M373.5 390h-75.3q-19.4.1-39.6-.4a6 6 0 0 1 1.9-3.3q2.4 0 4.7.3c3.8 1.4 7.5 3.4 11.3-.3l17.8-.2 23-1.1 4.6-2.7q1.1-.1 2.8.2c.3.8.3 1.1.2 1.7q3.9 1 8.8 1.7h39.6q12.2-.1 23.7.4l-2 3.8z"/><path fill="#d9a044" d="M455 385q-8.4 0-17.5-.3-.6-1.5-.4-2.3l107.8-.4 3.1-.1q7.9 0 16.4.6-.3 1.5-1.9 2.4h-31c-3.4-.2-7-1-10.2-.4-4.6.9-8.9 1.8-13.6 0-2.2-1-5.1 0-8.6.2z"/><path fill="#e1a849" d="M321.5 382.2q-1.4 1.6-4.5 2.5l-23.4.2q-12-.4-23.7-.4l-54.7.3c-1-3.9 2.2-2.5 3.6-2.5q15-.1 29.9 0z"/><path fill="#b57f34" d="m260 386.4-1.8 3.2c-7.9.6-15.6 1-23.9 1.4q-7.6-.7-14.5-1.2-6.8 0-14.3-.3-.1-3 .5-5.4l2.9.1c1.2.3 1.8.5 2.8.6h4.6q-.3.2-.2.4 5.3.5 10.5.7z"/><path fill="#e1a849" d="M325 384v-1.4q32.9-.5 66.4 0 .8.9 0 1.3l-19.2.7c-13.2 0-26-.2-39.3-.3z"/><path fill="#c28a38" d="M395.4 390.1a9 9 0 0 1 2-3.8c2.9-.3 5.2-.3 7.8 0 3.6 2.2 6.8 3 9.8-.6q0-1 .3-1.6l3.6-1.8h11.6c-1.4.6-3.5 1-5.3 1.8q-2 1.1-4.3 3.6l-1 1.5h-.3q-6 .2-12.4.7-5.8.3-11.8.2"/><path fill="#6e5228" d="M260.5 386.3q-17.2 0-33.9-.4-5-.1-10.8-.9-.6 0-.5-.2l54.6-.3q11.6 0 23.7.6.5.8.4.9l-18 .2z"/><path fill="#ba883d" d="M276.5 372.6c.6 1.8 1.6 4.6 1 5-1.6.9-3.8.9-5.8 1.2-1.3-4.8-.6-7.2 4.8-6.2M586.6 372.7q1.5 0 3 .3.1 2.8-.3 5.7-3.4-.1-6.7-1-.6-2.5-.5-4.4z"/><path fill="#e1a849" d="M418.5 382.3q-1 .9-3.7 1.8-8.9.1-16.8-.4v-1.4z"/><path fill="#c28a38" d="M190.7 378.5c-4.5.5-5.1-1.8-4.2-5.7l6.5-.4a36 36 0 0 1-2.3 6.1"/><path fill="#c99647" d="M544.8 378.4h-5V372c2 1 3.6 1.6 5.1 3z"/><path fill="#b37f35" d="M383.3 374.2q3.8-1 7.5-1.4c.5 3.3.5 5.5-3 5.5-2.6 0-5.2.3-4.5-4.1"/><path fill="#ba883d" d="M530.8 373c5.4-1.8 5.5 1.3 5 4.8-5.7 1.4-6 1-5-4.8"/><path fill="#c99647" d="M228.3 373.8q-.7 2.7-1.4 5c-1-.5-2.8-.6-3-1.2-.4-1.4 0-3 0-4.4q2.2 0 4.4.6"/><path fill="#44311a" d="M526 378c-5 .5-4-2.6-3.8-6.2 2 .5 4.1.5 5.2 1.6.6.5-.6 3-1.4 4.5"/><path fill="#d19943" d="M449.7 378.2q-.8-2.4-1-5.2h7.6l-.5 5.3z"/><path fill="#dba346" d="M443.6 372.4c1.3 3.2 2.3 6.3-3.4 6 .6-2.5-2.5-6.2 3.4-6M301.3 373c6.3-1.2 3.6 2.9 4.2 6.6-2.7-1.3-4.6-2-6.1-3.1-.2-.2 1-2.3 2-3.5"/><path fill="#c99647" d="M518.3 375.1q-1.3 2.1-2.7 3.6c-.7-.9-2-1.7-2.1-2.6 0-1.2.8-2.5 1.3-3.8q1.8 1.1 3.5 2.8M240 375.9q1.3-2.2 2.5-3.6c.9.8 2.3 1.6 2.3 2.5.1 1.2-.9 2.5-1.4 3.7q-1.8-1-3.4-2.6M286.6 377.8q-2.5.3-5 .2l-.3-5c4.4-1 6.3.1 5.3 4.8"/><path fill="#c9903b" d="M318.4 378.8c-1-.6-2-1.3-1.8-1.8q.6-2.2 1.5-4.5c1 .3 2.7.7 2.7 1 .1 2 2 5-2.4 5.3"/><path fill="#d19943" d="M562.4 378.1q-3.2-.7-6.9-2.2.1-1.8.5-2.8 2.9-.2 6.5.3.2 2.7-.1 4.7"/><path fill="#c99647" d="M492 373c5.8-1.5 3.9 2.3 4 5-5 1.3-4.8-1.6-4-5M483.7 375.9q1.7-2 3.2-3.4l2 5.1-1.5 1.3q-1.8-1.2-3.7-3M566.7 372.4q4.5-1 4.1 3.7c-.3 3-2 3-4.6 1.6q0-3 .5-5.3"/><path fill="#c28a38" d="m563 385 1.8-2.4a60 60 0 0 1 7.7-.4q.6.6.5 1.6-2.4 1.3-4.9 2.8a11 11 0 0 1-4.7 0q-.5-1-.4-1.6"/><path fill="#c9903b" d="M579 378c-1.5-.4-4.1-.4-4.5-1.3-.7-1.7-1.2-4.5 3-4.2q1.3 3 1.6 5.5"/><path fill="#c99647" d="M503.1 372.9q.7 1.1.6 1.7l-2.3 4c-.8-1-2-2-2.3-3-.4-2.8 1-4 4-2.7"/><path fill="#c9903b" d="M468.1 376q1.4-2.1 2.6-3.7l3.2 5-1.7 1.7q-2-1.4-4-3"/><path fill="#c99647" d="M436.6 376.7a20 20 0 0 1-3.6 2.4l-1.5-1.1 2.5-5.7q1.4 2 2.6 4.4M371.8 378.5c-4.3-.3-2.9-3-2.4-5 .1-.5 2.4-.5 3.6-.7q-.2 3-1.2 5.7"/><path fill="#ba883d" d="M355.2 378.5q-1.2-1-1.2-1.7 1-2.3 2.3-4.6c.8.8 2 1.5 2.3 2.5.4 2.2.3 4.4-3.4 3.8"/><path fill="#c99647" d="M334 378.9c-1-1.1-2-2.3-1.9-3.2.3-1.3 1.6-2.2 2.5-3.3.7 1.1 2 2.3 2 3.4 0 1-1.4 2.1-2.6 3M183 376a21 21 0 0 1-3.5 2.6c-.5-1.1-1.3-2.3-1.2-3.4.2-1 1.3-1.9 2-2.9q1.4 1.6 2.6 3.6M235.5 378.4c-4.6.4-3.2-2.8-3.2-5 0-.4 1.5-1 2.4-1 .5-.1 1.6.7 1.6 1.2q0 2.3-.8 4.8M346.4 373.5c4.5-1.6 4.5-1.6 4.4 4.5-4.3 1.7-4.5-1-4.4-4.5"/><path fill="#d19943" d="M476.2 376.6c-.5-4 1.3-4.6 4.6-3.6v5.8q-2.6-1-4.6-2.2"/><path fill="#c99647" d="M198.2 372.3c4.3.5 3 3.2 2.4 5.3-.1.5-2.1.7-3.3 1q.1-3.2.9-6.3M259.6 377.4q-2 .8-4 1l-1.2-1.3 3.3-4.7q1 2.2 2 5"/><path fill="#d69c44" d="M460.5 378q-.9-1-.7-1.5l2.9-4.1c.7 1 1.9 2 2 3 .5 3.2-1.3 3.7-4.2 2.7"/><path fill="#c99647" d="M428.3 377.2q-.8 1.1-1.6 1.4l-2.5-.3-.2-5.1c4.3-1.3 4.3-1.3 4.3 4M267.7 373.6c.2 3.3 0 5.9-4.1 4.3-1-5.8-.7-6.1 4-4.3"/><path fill="#dba346" d="M401 373.4c4.5-1.4 4.5-1.3 3.8 4.7-4.6 1.7-4.2-1.3-3.8-4.7"/><path fill="#c99647" d="M410.8 372.2q1.2 2.7 1.5 5.5c0 .2-1.3.9-2 1-.5 0-1.4-.8-1.4-1q.6-2.8 1.9-5.5"/><path fill="#d69c44" d="M324.8 374.4q1.6-1 3.4-1.5.4 2.4.4 4.7c0 .4-1.4.8-2.2 1.2z"/><path fill="#dba346" d="m308.9 376 2-3.7c.7.9 2 1.7 2.1 2.6.1 1.2-.8 2.5-1.3 3.8q-1.5-1.1-2.8-2.7"/><path fill="#d69c44" d="M290 374.5q1.9-1.2 3.8-1.8l1.6 4.9c-3.5 1.2-5.5 1-5.3-3.1"/><path fill="#c99647" d="M216.7 378q-.7-1.1-.5-1.6 1-2 2.1-4.1c.7 1 1.7 1.8 1.9 2.9.4 2.2-.1 4-3.5 2.8"/><path fill="#d69c44" d="M554.2 376q-2.6 1.2-5.8 1.7-.6-1.7-.8-2.7a16 16 0 0 1 4.9-1.6z"/><path fill="#c99647" d="M416.2 373.5c4.4-1.6 4.5-1.5 3.9 4.7-4.7 1.7-4.2-1.5-3.9-4.7"/><path fill="#311f11" d="M547.3 375q.6 1 .7 2.6v3.9q-1 .6-2.6.4-.6-1.3-.6-3.1t.2-3.5q1-.4 2.3-.3M579.3 378l-1.4-5.5q1.4-.9 3.6-1.4.5.6.6 1.9v4.6q-1.2.4-2.8.3M566.3 372.3q.1 2.4-.4 5.3-1.3.5-3.2.5-.1-2 .2-4.6 1.4-1 3.4-1.2"/><path fill="#c28a38" d="M436.7 382.3q.4 1 .3 2.4-1.5.5-3 .6l1-2.8q.7-.4 1.7-.2"/><path fill="#e1a849" d="M216.7 384.4c-1.8.4-3.1.4-5 .1a4 4 0 0 1-.6-2.2q3.1.8 5.6 2.1"/><path fill="#c28a38" d="M397.7 382.2q.6.7-.1 1.5-3.2.3-5.7.2v-1.3q2.6-.4 5.8-.4"/><path fill="#311f11" d="M554.4 376q-.9-1-1.5-2.4 1.2-.7 2.9-.7 0 1.4-.6 2.7-.2.4-.8.4"/><path fill="#c28a38" d="M210.7 382.2q.5 1 .5 2.3-.7.2-2-.3l-.3-1.6q.7-.5 1.8-.4"/><path fill="#d69c41" d="M373.8 390.1h1.2z"/><path fill="#c9903b" d="M420.3 389.3q-.1-.5.6-1.2 6.4.3 12.8 1.3-6.3.3-13.4-.1"/><path fill="#be8635" d="M205.6 384.1q0 2.4-.6 5.4-3.4.5-7.5.6H173c3-4 12.4-5.8 15.6-3.3 2.9 2.3 3.6.7 4.6-1.8q5.9-.7 12.5-.9"/><path fill="#986a27" d="M562.5 385q.6.6.5 1.7-1.6 1-3.6 1.6c-4.2-.7-8-1.8-11.8-2.2-5-.6-10.2-.5-15.7-1q14.7-.2 30.6-.2"/><path fill="#6e5228" d="M386.1 296.6v17.7h-2V296q1-.1 2 .5M388 327l-.7 4-1.2-.2 3.6-18.4 1.2.2zM391 310.4l1.1-.5v.9q-.6.1-1-.4"/><path fill="#986a27" d="M378 309.6q-.9-.2-1.9-1.4.9.3 2 1.4"/><path fill="#17130d" d="M388 337.7q-.9.4-2.3.3.8-.5 2.3-.3M391 300q0 .8-.6 1.2-.1-.5-.1-1.5.3 0 .7.3M383.2 338q0-.4.6-1.3.4 0 .4 1-.2.5-1 .4M412 327.6c-9.2.6-11.1 7.5-5.2 18.2q-8.2.5-10.7-8c-1.8-6 .9-13 6.4-17.2a16 16 0 0 1 17.5-.3c5 3.4 8 10.3 6.9 16.1-1.6 8-11.8 11.6-18.2 6.6-3.9-3.2-3.6-8.1 1.3-11.9q3.6.3 5.6.7l-3.1 1c-1.1.7-3.2 1.8-3 2 .5 1.6 1.2 3.3 2.5 4.2 1 .7 2.8.2 4.6.2q8.6-4.8 3.6-11.8c-1-1.7-3.6-2.5-5.7-3.2-.4-.1-1.7 2.2-2.5 3.4"/><path fill="#b37f35" d="m416 331.8-5.6-.8q.3-1.5 1.4-3.1c1-1.5 2.3-3.8 2.7-3.7 2 .7 4.6 1.5 5.7 3.2q5 7.2-3.8 11.5-.6-3.9-.5-7.1"/><path fill="#17130d" d="M407.9 347.1q-.8-.2-1.2-.9l1.4.1q.2.5-.2.8"/><path fill="#c9903b" d="M429 326"/><path fill="#17130d" d="M329 344v-.5q.2 0 .1.4 0 0 0 .1"/><path fill="#44311a" d="m336 329 .2-.2z"/><path fill="#392c19" d="M460.2 346.3q1-1 2.7-1.8.8.2 1 .4l.3.3q-1.8 1-4 1.1"/><path fill="#986a27" d="m376 311-1.2-.6.2-.3.9.8q0 .2.1 0"/><path fill="#17130d" d="M282 344.3q1.9 0 4.5.7-2 0-4.6-.7M280.9 343.3q.6-.2 1.2.4-.7.3-1.2-.4M382.4 343.7l.2-.2zM464 344.6q-.4.2-.8-.3 0-.5.6-1.1.3.3.1 1.4"/><path fill="#986a27" d="M455.4 385.2q21-.3 43.3-.3c-.7.7-1.8 2-3 2q-18.7-.3-37.6-1-1.1 0-2.7-.7"/><path fill="#b57f34" d="M391.4 383.9a558 558 0 0 0 23.1.2q.8.6 0 1.6-5 .4-9.5.3h-7.6q-12.1 0-24.2-.3-.7-.7-.6-1.1z"/><path fill="#6e5228" d="M372.2 384.6q.5.4.6 1-19.2.4-39.1 0-.5-.9-.4-1.3z"/><path fill="#b57f34" d="M294.3 386.1q-.4-.3-.3-.9 11-.6 22.7-.4-10.8.9-22.4 1.3M265.2 386.6q4.6-.5 10.4-.4c-3 3.8-6.6 1.8-10.4.4M332.9 384.3q.5.5.3 1.3-4.3-.3-8.3-1.4z"/><path fill="#c9903b" d="M405.2 386.3q4.2-.4 9.3-.3c-2.5 3.3-5.7 2.5-9.3.3"/><path fill="#d69c44" d="M415.6 331.8q.3 3.3.5 7.1c-1.3.3-3.1.8-4.1.1-1.3-.9-2-2.6-2.6-4.2 0-.2 2-1.3 3.1-2z"/></svg>