<svg xmlns="http://www.w3.org/2000/svg" xml:space="preserve" viewBox="192 198 872 820"><path fill="#e9b252" d="M430.6 411.4c36.2-2.5 71.5-8 105.7-19.2q47.5-15.4 87.9-44.6c2.7-2 4.5-2.5 7.6-.2 42 30.6 89.1 48.7 140 57.6q36.4 6.2 73 6.5c3.3 0 4.3.8 4.3 4.1q-.2 74.6-.3 150c-4 1.2-3.9-1.8-4-4.2-.4-6.3-.1-12.6-.2-19V530c-.2-2.8-.7-5.8-4.1-5.9-3.8 0-3 3.4-3 5.7l-.2 47.8c-.8 3.6 0 6.8-.4 10.4q.5 1.8.3 3.5-.8 2.5-.2 5.2.4 1.8 0 3.5c0 5 .9 9.7.1 14.3-.4 2.4-1 4.7-4.8 2.7-2.4-3.5-1.6-7-1.6-10.5V441.2c0-12.7-.1-12.3-12.8-13q-33.3-1.6-65.8-8.6a357 357 0 0 1-95.4-35q-12-6.5-23.1-14c-3.6-2.4-6.8-2.6-10.5 0a327 327 0 0 1-77.6 37.6 415 415 0 0 1-112.2 20.3c-6.3 0-7.9 1.8-7.9 8.2v89c0 3.2.8 6.8-2.7 9.6q-3.8 1-7.2 1.5c-2.6.5-4.9.1-6.7-2.7-.4-39.5-.2-78.5-.4-117.6 0-3.5 1.3-4.2 4.4-4 5.8.2 11.5-.5 17.8-1"/><path fill="#c9913c" d="M759.2 807a351 351 0 0 1-47 37c-26.3 18-53.7 34.1-80.6 51-2.1 1.3-3.8 2-6.3.4-33.4-21-67.7-40.6-99.4-64.2-32.5-24.3-61.6-52-82.8-87q-5.2-9-10-18.9-.6-3.8-.2-7.2c.6-6.4 2.5-8.5 9.5-9.5 2.8.6 3.8 2.5 4.7 4.5A222 222 0 0 0 482 767a308 308 0 0 0 35.4 34.4c33.1 27.9 70.4 49.6 107 72.4 2.9 1.7 5.2 1.6 7.8-.1 22.3-14.4 45.1-27.8 67-42.7q23.6-16 45.4-34.4c1.5-1.3 3.1-2.4 5.7-2 3.3 1.3 5.7 3.3 8.3 5.1 2.8 2 3.4 4.4.6 7.4"/><path fill="#ca923d" d="M318 747.7c9.7 16.8 19 33.3 30 48.8 25 35 55.6 64 90.5 88.8a401 401 0 0 0 123.6 58.4c9.1 2.6 18.4 4.5 27.6 6.7 0 3.7-6.4 3.9-4.9 8.8.3.8-2.3.1-3.5 0a322 322 0 0 1-49.5-13.9 418 418 0 0 1-131.2-76.8A360 360 0 0 1 311 752.4c.9-5.5 1.9-6.2 7-4.7"/><path fill="#ca913c" d="M524.6 966.4c12.7-1.8 24.8-4.7 38.1-4.7-8.5 6.8-15 14.8-23.8 20.1a80 80 0 0 1-47.9 11c-15.3-1-30.2-4.3-46-8.7 16-12.4 31.7-23.4 50.6-29a89 89 0 0 1 57.6 3.6 252 252 0 0 0-27.9 6.1c-3.8 2.6-8 2.5-12.2 3.7-1.6.1-2.7.8-3.6 1l2.7-1c4.4-.4 8-2 12.4-2.1"/><path fill="#d19840" d="M324.6 828.1a96 96 0 0 1 49.7 25.6c4.9 4.4 9 9.6 13.3 14-6.5-2.2-13.1-6-21.2-5.6l31 13.5c-13 .9-24.2 4.3-36.1 3.1a94 94 0 0 1-46.9-19.4 205 205 0 0 1-29.4-26.8q-1-3.8 2.3-4.4c5.9-.8 11.6-3.8 17.9-1 2.3 1 5.4 1.3 8.3.3 3.6-1.3 7 2.1 11 .7"/><path fill="#cd953e" d="M436.7 909c12.6 2.9 23 9.8 33.6 16.3l-35.7-2.9c-3.4 1-6.3.5-9 .4 2.4.7 5.3-.4 8.2 1 16 1.8 31.9 4 47.5 7.6q-5.2 1.1-9.6 3.8a79 79 0 0 1-68.4 5.4q-12.3-4-24-10.6c-5.4-4.3-5.9-8-1.2-12.4 4.3-4 8.5-7.7 15.2-8.5 5.4-.6 10.4-3.7 16.2-3.8a26 26 0 0 1 14.7 2.8q3 2 6.5-.3 1 0 2 .2c1.4.4 2.4 1 4 1"/><path fill="#d39a42" d="M869.3 867.2a111 111 0 0 1 53.3-37.1c5.2 1.7 9.3-.7 13.5-2.2 4.3-1.6 7.6-.5 11 2.2 3.6 2.9 6.7 6.3 10.7 8.7q4 2.7.2 6.4c-27.3 27.6-58.6 41.1-97.4 29.6l39.5-17.2c.7-1.2 0-1-.5-1q-15 5-30.3 10.6"/><path fill="#cf963f" d="M714.6 964q9 1.2 18 2.7c.9-.3 1.7-.6.6-1.5-9.6-2.9-19.3-4.6-29.1-6.3 27.1-16 81.6-2.9 106.6 25.6-25.6 6.2-50.8 13.1-77.4 4.5-4.2-1.8-6.9-4.1-7.3-8.8-.3-2.7-2.7-4.3-5.4-5.2q-3-.9-6-2.5c-3.5-2.3-3.7-5.9 0-8.5"/><path fill="#d39a42" d="M269.7 736.9a86 86 0 0 1 41.2 32.8c4.8 7 10 14 12.9 22.5-6.2-5.2-13.2-9.5-20-14.6-1.4.4-2-.5-3-1.1q-1.6-1.2-2.7-2.3 1.2 1.1 2.8 2.3 1.3.7 1.6 1.9 10.6 9 21.4 17.4c1.5 1.2 3.3 2.1 4 4.2-4.6-1-9.3-.8-14-1.4-24.2-2.7-42.2-15.9-56.7-34.5-5.6-7.1-10.3-14.8-15-22.8-2.2-4.4-.8-7.3 2.7-9.6 2.6-1.7 9.3-1 11.5 1.7 2 2.2 3.5 2.9 6.4 1.8 2.2-.8 4.3 1.3 6.9 1.7"/><path fill="#ebb656" d="M468.4 330.7q-1.1-.2-2-.2c-1.7.3-2.6 0-2.4-2l.3-.3c.2-2.7 1.1-4.3 4.3-5a55 55 0 0 0 22.6-9.5c5-4 11.3-5.5 16.5-9.7 14.8-10.2 30.5-18.4 45.6-27.3l65.1-37.9q1.1-.5 2.1-1.2c5.1-3.9 9.9-3.2 15.2 0q29.6 17.5 59.4 34.6 10.6 6 21.2 12.3c2.3 1.4 4.3 3.1 4.9 6.3-.4 2.9-2.3 4-4.4 5.5-4.1 1.2-6.9-1-9.6-2.7-24.4-14.7-49.1-28.7-73.7-43-3.7-2.2-7-2.5-10.7-.3-32.5 19.3-65.3 37.9-97.8 57.2-7.3 4.3-14.5 8.8-21.7 12.2h61.2c2 0 4.1.2 5.1 2.9-.7 4-3.7 3.6-6.3 3.7q-16.2.1-32.4.1c-4 0-7.6.7-10.7 4.2-17.4.7-34.3 1.3-51.8.1"/><path fill="#dca348" d="M761.8 859.9q.1-.8.7-1 .8-.1 1.3-.8l2.3-2.1c1.2-.3 1.8-1 2.7-1.9q.2-.8 1-1c1-.9 2-1 3-2q.2-.3.1-.1l1-.8.1-.2c3.7-2.7 6.9-2.4 10.4.8 3 2.6 6.7 4.5 9.6 7.9-7.5 34.4-29.1 55-62 64.9l10.3-11.8c.2-.3-.2-.6-.1-.8v-.4q-.4.2-.7-.2c-5.7 5.2-10.8 11.2-17.5 16 5.6-18.1 9.8-36.4 22.5-51.3q1.4-.8 2.1-2.2c0-.3.1 0 0 0q.9-.3 1.2-1.6c2.6-3.6 5.7-6.2 9-9.2.7-.6 1.4-.6 2-1.2 0-.3.2 0 .1 0q.4 0 .9-1"/><path fill="#e5ae50" d="M296.6 470c4.4-15.1 10.3-29 16.5-42.8a350 350 0 0 1 21.2-39.7q3.5-5.6 4.3-12c4.1-34.7 22-60.1 51.8-77.7l8-5c-2.4 11.2-5.5 21-9 30.8-7.7 20.6-20.2 37.6-38.2 50.1a53 53 0 0 0-17.2 19.6 466 466 0 0 0-31.5 72.3l-2.8 7.2q-2.7 0-3.1-2.9"/><path fill="#d59d44" d="m481.6 849.8 2.3 1.5a109.3 109.3 0 0 1 48.2 74.8c-6.8-4.6-11.6-10.4-17.2-15.7-.3-.2-.4.2-.6.3h-.5v.6c3 3.8 6.2 7.5 10.3 12.1-25.6-8.5-45.7-21.6-56.1-46.3q-1.5-3.2-2.8-6.8c.4-3.2-.8-5.9-1.7-8.5q-1.5-4.6 1.6-7.3c4.6-3.8 9.6-7.4 16.5-4.7"/><path fill="#d39a42" d="M865.3 935.5A87 87 0 0 1 776 931c15.4-3.6 32-5.3 48.3-7.8-12.8-.8-25.4 1.1-39 2.3 6-4.4 12-7.4 18-10.4 5.4-2.6 10.4-6 17.1-6.2q1-.3 1.3-.4c9.7.6 19-3.9 29-2.7 1.5.8 1.7 2 2.2 3 2 5 2.3 5.2 7.6 3.3 3.6-1.2 6.1 0 6.5 3.7q.4 6.2 3.2 11.8c2.4 4.6-1.6 6-5 7.9"/><path fill="#d69e45" d="M520.4 330.3c.8-4.7 3.3-6.5 8.2-6.4q17.1.4 34.2.1c2 0 4 .6 6-1.2 2.7-4.8 7-2.5 11-2.9 5.2 2.3 9.9 4 15.1.2q10 0 20-.2c3.8 1.7 7.3 3.4 11.3.5 4.9.1 9.3-1.4 14.2-.5 5.8 2.9 11.2 4 17.1.3 3.6-.6 6.7-.6 10.2-.3q1 0 1.4.3c5.8 4.4 11.5 3.8 17.7-.2q9.7-.8 19.6 0c7.1 3.2 13.8 4 21 .2 3.7-.6 6.9-.6 10.5-.3 4 1.5 7.5 4.2 11.8.8q1.7-.6 2.2-.8c.4-.7-.6-.6-1-.8q-12.6-7.1-25-14.6c-3.8-2.3-8.7-3.6-10.4-9l4.4-4.4c3.4-3 6.2-.7 8.8.7q20.2 11.3 40 23.2a63 63 0 0 0 20.7 8.4c-.3 2.4 2.2 3.4 2.3 5.4.3 1.8-.9 2.1-2 2-5.3-.2-10.6 1-15.9.4-7.1-.8-14.3 0-21.4 0q-10.9-.2-21.8-.1c-24.8 0-49.5-.5-74.3 0-14.2.4-28.3.1-42.5.2-16 .2-32.1-.3-48.2-.1-13 .1-25.9-.6-38.9-.2-2 0-4 .2-6.3-.7"/><path fill="#e5ae50" d="M895.2 322.8q.8 0 1 .6.4 1.4 1.6 2.4l.2.2c.5.4.5 1.1 1.1 1.8h.2c0 .7.8 1.2 1.5 2l.4.4q.5 1.9 2 3.4.3 0 .2 0c-.1.9.7 1.3 1.3 2.2a91 91 0 0 1 12.3 36.8q.9 8.3 5.2 15.4c19 31 33 64.4 43.3 99.3q.5 1.8.6 4.3c-1.3 1.6-1 3-.4 4.4s1 3.1-1.3 4a548 548 0 0 0-22.2-65.2q-10.9-25.6-24.6-49.6a26 26 0 0 0-8.8-8.6 107 107 0 0 1-44-59.1c-.6-4 .5-7.6 1-11.2q.3-3.1 3.2-4c2.2-.7 3.7.8 4.4 2.4a10 10 0 0 0 8.3 6.2c2.3.3 3.8 2.1 4.7 4.1a7 7 0 0 0 5.7 4.5l.3-.1q-.6.8.8 1.3c.4 0 .1 0 0-.1q-.2.6 1 1.1c.3 0 0 .3 0 .2q0 .4 1 1"/><path fill="#d8a045" d="M839 799.7q.1-1 .6-1.6.8-.4 1.3-1.1c0-.3 0 0-.1 0q.4-.1 1-1-.2-.3-.4-.5c6.3-.8 5.7-6.2 7.3-10.5q.1-.3.1 0 .4-.2 1-1c.1-.3-.1 0-.2-.2 1.4-.2 1.1-1.8 2-3q0-.3-.1-.1.6 0 1.1-.7c2-3 4.4-5 8.2-3.7 4 1.3 3.4 4.9 3.4 7.9q-.1 2.2 1.4 4.5c2.7 18.5.7 36-8.7 52.2a91 91 0 0 1-21.3 22.8l-5 4.5q-.5.2-.3 0c-1.2-2.7 1.6-4.4 2.5-6.8q2-5.2 4.6-10.6 0-1.8.3-3.3c.5-.7.7-1 1-1.8 1.5-4.2 3.3-7.8 4.3-10.7a166 166 0 0 1-4.8 11.7c-1 1-.4 2.3-1.5 2.8-4.6 7.9-8.4 16.2-14 23.6 1.4-14-2.2-28 2.2-41.7 2-2.2 3.1-4 3-6.8-.3-3.4 1.8-6.2 2.8-9.6q0-.3 0 0 .9-.5 1-2 0-.4-.1-.2c2.2-2 2.7-4.9 4-7.8q.2-.3.1 0 .9-.5 1-2 .3-.1.2 0 .6-.5.9-1.8l.2-.2q.4-.4 1-1.3"/><path fill="#e9b658" d="m475 310.2 63.9-36.8 85.8-50.2c2.1-1.2 3.7-1.9 6.3-.4l100.7 59c1.4 2.6-.5 4-1.8 6-3.2 1.8-5.8.5-8.3-1q-42.9-24.9-85.7-50c-5-3-9-4-14.6-.7-36.2 21.1-72.2 42.6-109 63.5-4.4 0-6.5 3.7-10 5.5l-1.7 1c-3.2 1.1-5.2 3.6-8.1 5.2l-1.4.5c-7.2 1.6-11.5 7.6-18 9.9-4.2 1.5-8 2.8-12.4.5q-3.7-1.8.2-4l2-.9q5.5-4.4 12-7"/><path fill="#d59d44" d="M412.6 792.9a100 100 0 0 1 20.2 78.7c-3.8-3.7-5.8-9.6-9.7-14.2-.5 3.6 2.1 6.1 2.9 9.5-26.5-17.3-40.3-41.3-36-77.5q2-2.6 4.6-1.6c5.8 2 11.9 3 18 5"/><path fill="#cd953e" d="M759.3 807.3q1.2-4.4-3.2-6.6a21 21 0 0 1-6.5-4.8c-1.1-2.3 0-3.7 1.4-5a266 266 0 0 0 37-41.7 214 214 0 0 0 21-36.2l2-3.9c1.8-1.9 3-3.6 3-6.3q.3-2.6 2.5-4c.6-.2 1 .1 1.3 0 .6-.3.1.2-.4-.6q-.5-1.2 0-2.4l.6-2.3a4 4 0 0 1 2-2.7 13 13 0 0 0 9.5-7.7q.4-1 1-1.8c1.8-2 4.1-3 6.6-1.5 3.2 2.1.7 4.7.2 7.5a192 192 0 0 1-18.5 46.5 262 262 0 0 1-59.5 73.5"/><path fill="#d19840" d="M974.6 572.5q-.6-5-.8-10c.4-3-.2-6.7 4.9-4.8 2.3 10.5 2.3 20.8 2.5 31A358 358 0 0 1 931.7 778q-2.8 4.9-6.4 9.9c-2.6-1.5-3.8-4.5-7-5.6 8.9-15.6 17.7-31 25-47.3a361 361 0 0 0 31-130.6c1.4-10.8.6-21.2.3-31.9"/><path fill="#d59d44" d="M350.6 769.6c0 7.4 1.1 14.3 2.5 21.6-17.1-19.8-24.5-44-11.6-75.3 2.3-4 6-5.4 9.6-7 5.6-2.6 9.8.1 8.1 6-1.6 6 .6 8.8 5 11.8 8.8 25 3.4 48.6-6.4 71.3-3.5-8.2-4-17.8-5.8-27.6-1.7-6.5-1-12.7-1.5-18.2-.4 5.2 1.2 11.1.1 17.4"/><path fill="#dba247" d="M1027 544.6a86 86 0 0 1-38.6 69.2c3.7-12.2 8.8-23.9 11.5-36.3-5 8.6-8 18-12 27.4-3.4-18.2.1-44 8.3-61.7 5.1-6.8 12.7-9.2 19.7-11.8 7.4-2.8 11 .7 11.1 8.7z"/><path fill="#e0a94b" d="M304.6 505.5q-4.4 5.1-8.7 10.7c-4.5-24.9 32.8-63.5 63.6-66-16.9 39-29.8 60.7-65.3 75.3 2.8-6.9 7.6-12.3 11.2-18.7-.5-.2.3-1.4-.8-1.3"/><path fill="#d19840" d="M827.9 890a399 399 0 0 1-156.8 70.2c2.4-5.5-3.2-6.2-4.6-9.8l13.3-3.1A401 401 0 0 0 823.6 881l2-1c3.8 2.5 2.4 6 2.3 10"/><path fill="#d59d44" d="M933.5 791.4q-1.1-1-.1-2.4c9.3-15.6 18.3-31.3 34.1-42l2-.7c2.6 1.1 4.8 2.2 7.3 2.5q1 0 2 .6c3.4 1.5 2.6 8.4 9.6 6.4 3.3-1 7.6 3.1 11.8 3.9q.4 0 .8 1a91 91 0 0 1-31.8 29.9c-13 7.4-27.5 8.2-42 9.6 8.5-7.7 18.7-13.5 26.5-22.4-7.5 3.2-13.3 9-20.2 13.6"/><path fill="#d39a42" d="M318.4 747.5c-2.8.5-5.2 1.6-7.2 4.3a235 235 0 0 1-17.5-41.7 352 352 0 0 1-13.9-172.8c1-1 1.2-1.7.7-3q0-1.1.2-2.1.9-1 1.3-1.9c.4-1.2 1-2.1 2.5-1.6 1.6.6 1.4 2 1.2 3.3-.8 4.4-1.7 8.7-1.7 13.6-.6 13.7-2 27-2.2 40.3a360 360 0 0 0 36.6 161.6"/><path fill="#e2aa4d" d="M944.1 515.8a71 71 0 0 1-23.1-20.6c-10.5-13.6-16.9-29.6-24.8-45 32.4 2.5 59.5 30.5 64.8 67.2l-10-12.9c-1.2.6-1.4-.1-1.8-1.1l-.8-1c-2.4-2-3.4-4.7-5.7-6.7l-.9-.9.5.5c2.3 1.9 3.3 4.4 5.5 6.5l.9.9q.9 1 1 2.3.3 1.6 1 3c-.5 4-4 5.3-6.6 7.8"/><path fill="#d8a045" d="M965.2 615c-24.3-16.4-35.7-40.5-41.3-68.6 0-7.7 4.5-11.5 9.8-8.7 1.6.9 3 2 5 3l.4.2q.4.3.6.7c1 5.5 5.4 7.3 10.3 9q.3.3 0 .3l1 1q.2.1 0 0 .2.3 1 .9a57 57 0 0 1 15.9 34.8c2.2 6.5.7 12.9 1 19q-.2 1.6-1.7 1.6c-1.7-.3-2.3-1.7-2.8-3.2 1.3 3.1 2.1 6.3.8 10"/><path fill="#e2aa4d" d="M279.7 434.8c6.8 16.4 9.6 33 5.6 50.3q-2.4 11.3-6.6 22.4l-2.8-21.2c-2.2 2.2-1.1 4.6-1.4 7.2-4.4 0-8.5-1.3-13-2.3a89 89 0 0 1-2.2-50.9c1.7-2.6 2-5.3 2.6-7.8q1.3-4.6 4.3-8.2c1.5-2 3.3-4.2 6.1-3.2 2.9 1 4 4.3 3.4 6.5-.9 4 1.4 5.2 4 7.2"/><path fill="#e0a94b" d="M319.4 441c-.5-2.3 2-3.2 2.7-5.8l-.9-1.8c0-.7.2-1 .4-1.7 11.3-32.4 35.4-47.1 68.6-50.2-17.2 24.5-33 50-64.9 57.4q-2.7.9-5.9 2.2"/><path fill="#e2aa4d" d="M921 436a93 93 0 0 1-37.2-30L865 381c24 3.4 44.8 10 58.8 29.7q6.1 8.5 9.7 18.6c.4 1.1 2.3 3-1.2 3.2-1.3 0-.3 1.6.2 2.3l5.1 6.2z"/><path fill="#dba247" d="M257 538.8a84 84 0 0 1 12 37.8c1.7 3.7 1 7.2.4 11-.3 3.1-.4 5.8-.4 9v2c0 1.5-.2 2.5-.1 4-3.3 2-3.5-1.1-4.2-2.8-3.8-9.3-7-18.8-10.6-28.4q0 .5.7 1.7c.1 1.2.5 2 1 3.2.8 2.9 2.8 5 2.3 8.3-4.7 2.5-7.5 1.5-10.2-3.2s-4.6-5.3-9.8-2.7a85 85 0 0 1-9.2-38.2c-.4-4.8.3-8.4 4.8-10.3 1.6-.8 2.8-2.4 3.8-3.9 2.8-3.9 6.1-4.2 10.4-1.7l.2.2c.3.6.4 1.3 1.2 2q.3 0 .2-.2c1.6 4 .9 9.2 6.7 11 .4-.1.3.3 0 .3q0 .4.8.9"/><path fill="#e5ae50" d="M309.2 403.8c-1 8.6-1.9 17-2.8 26.5-16-31.2-10.9-62.4 12-95.4 8.2 30 10.4 59-9 86.6l1.3-16.9c-2.3-5 1.5-9.4.4-13 .2 3.5-1 7.6-1.9 12.2M945.3 420.2a93 93 0 0 1-13.6-44c-.2-14 2.7-27.4 5.8-41.2 20.6 29 30.1 61.7 12.8 94.6-1.1-1.8-.6-4-1.3-6.2-1.5-1.6-1.7-3.2-1.5-5.3.1-1.8-.2-3.1-.5-4.9.6-6.4-1.3-12.3-1.2-18.7l-.2-.9q.5 2 .4 4v3.1c1.3 3.8 1 7.3 1 11.2-.1 2 .6 3.6.5 5.6q0 2.3-2.2 2.7"/><path fill="#dca348" d="M313.2 679.6c-2.6 8.3-3.6 16.6-4.5 24.9-7.3-8.4-9.4-35.1-4-51.2a102 102 0 0 1 31.3-42.8c.7 18 2.8 35.6-.3 53.3q0 1.5-1.5 2.9c-5.6 2.4-8.8 1.5-13.9-3.7-2.4 0-2 1.8-2.3 3.4q0 .7-.3 1.4c-1.8 4-1.6 8.3-4.5 11.8"/><path fill="#dfa74c" d="M408.8 534.5c4.5 1.3 8.8-1.2 13.5-.2 3.3 2.8 3 6.4 3 9.9q.4 30.8 0 61.7.2 16.6 1.6 33.7-.5 1.7-1.3 2a31 31 0 0 0-14.2 9.5 169 169 0 0 1-3.5-34.6c1-2.2.6-4 .6-5.9q0-37.8.3-76.1"/><path fill="#ca913c" d="M828.2 890.3c-3.3-2.7-1.8-6.3-2.2-10a603 603 0 0 0 45-40 363 363 0 0 0 46.9-58c6.5-1.6 7.7-.7 7.2 5.4a314 314 0 0 1-45.3 58 361 361 0 0 1-51.6 44.6"/><path fill="#e5ae50" d="M995.6 436.7c4 13.9 5.2 27.6 2.5 42-1 1-1.7 2.1-3 2.3q-6.1 1-9.6 6.4-.8 1.3-3 .8a23 23 0 0 1-.1-4.8c-1.3-4.4.4-8.2.7-12.4 2-2.9 3.3.2 5 .6-.5-2-1.8-2.6-3.9-2.9-1.7 4.7-1.9 9.3-3 14q-2 12.9-3.8 25.4c-4.9-16-10.5-32-7.3-49.7 2.3-7 2.9-13.9 5.5-20.3 1.4-3.3 3.5-6.2 4-10 .6-2.9 3.2-4.9 6.4-5.6q4.3-1 5.9 3c1.4 3.5 2.2 7.3 3.7 11.2"/><path fill="#d59d44" d="M327.2 562.7c0 7.2-3.3 12.8-6.2 18.6a83 83 0 0 1-21.4 27.2q-5.1 4.1-10.3 8.7l2.8-9.8c-.2-6 2.7-10.6 4.8-15.3 2-4.3 3.7-8.9 6-12-3.3 6.5-7.3 13.7-9.9 21.7-.5 1.7-1.2 3.4-2.9 4.9-1.2 1.5-1.8 2.1-2-.2-1.6-21.2 2.3-40.6 18.3-56.5 1.7-.9 3.2-1.3 4.6-.3 5.6 4 11 8 16.2 13M893.4 782.1a64 64 0 0 1-5.7-29.6q2.4-5.4 2.3-10.4c0-8 .6-9.3 7.7-12.4 3.7-1.7 7.4-3 11.5-2.1q2.1.3 3.7-1c1.4-1 2.8-2 4.9-.8a60 60 0 0 1-.9 43.5 89 89 0 0 1-13.4 21.5l1.6-11.4a8 8 0 0 1-.2-5.3l.1-3c0-5.8 1.5-11 1-15.2.4 3.9-.8 9-1 14.5v3q-.2 1.5-1.3 2.6l-.8.4c-4.3-2.8-6.4-1.3-7 3.5q-.1 1.9-2.5 2.2"/><path fill="#dca348" d="M230.2 662.3a135 135 0 0 1-10.2-29.9q3.5-11.2 15-6h.3c.3 1.9 2.2 1.4 3.4 2.4q1 0 1.3.7.2.8 1 1.3.1.2 0 0 .5.7 1.9 1 .3.1.2 0c1 1.2 1.4 3 3.6 3a82 82 0 0 1 25.5 31.7c-1.5 5-5.8 6.6-9.7 9.2-3.8-.8-4.3-5-7.6-6.7a7 7 0 0 1-2.3-3.6l-.3-1.2c.6 0 0-.3.1.7.8 1.8 1.2 3.5 3.2 4.5 1.9 2 3.7 3.7 4.5 6.5-2.7 5-8.5 5.6-11.7 1.4q-3.4-4.4-5.4-9.5c-2.2-6.6-3.3-7.3-10-5.4q-1.2.5-2.8-.1"/><path fill="#ca923d" d="M837.5 687.5c-1.3-1.8 2-5.2-1.7-6.2-3.5-.9-4.8 2.3-5.8 5-1.7 4.2-4.3 6.5-9.5 5.7-2.5-1.6-1.6-3.6-1.2-5.5 2.7-11 5.8-22 7.7-33.4a447 447 0 0 0 3.7-31c.1-2.2-.2-4.5 2.4-6 2 1.2 1.9-.1 2-1v-14.5c3.3-3 7-1.9 10.5-1.3 2.2.4 2.4 2.5 2.4 4.4.1 5.2-.3 10.3.4 15.9-1 20.5-2.4 40.6-9 60-.9 2.3-.5 5.1-1.9 7.9"/><path fill="#dba247" d="M1030 652.6c-2.3 8.8-7.4 16-11.3 24-4.6.6-8.9 1.4-12.9-1.1-1.9-1.2-3.5-2.5-3.7-5.2q-.5 0-1 .7l-.9.6a6 6 0 0 0-2.7 4.4 8 8 0 0 1-1 2.4l-1.8 2.2c-.6.5-.8.7-1.5 1-1.5.7-2.3 1.3-3.7 2.1-5.4 4.2-8.6 9.7-12.7 14.4-1.4 1.5-2.2 3.7-4.6 4.7 3.8-15.6 7.8-30.8 16.2-44.7 1-.5 1-1 1.4-2l.2-.1q1-1.1 1.8-2.8.1-.8.7-1.2c2.5-.7 3.4-2.6 4.2-4.9l.1-.2q1-.7 2-2.2l.1-.6a9 9 0 0 1 5.8-1.5c6.2.1 12.4 1.4 18.7 1.4 5.2 0 7.4 3.5 6.6 8.6"/><path fill="#d19840" d="M411 651.4q2.6-10.6 13.5-10.4c3 .7 3.4 2.8 3.7 5q4 29 14.6 56.4c.8 2.2 2.3 4.5.5 7.3-4.7 1.7-9 3-7.8 9.2.2 1.7-1.3 3.7-2.3 5.8a225 225 0 0 1-20.1-60q-1.4-6.4-2.1-13.3"/><path fill="#dba247" d="M923.2 673.2c-1.6-2.7-2-5.5-2.5-8.7 1-5.2-.8-9.9-1-14.6-.1-3.7.5-7.3.4-11q0-1.5 1.1-2.5 5.9-5 13-8.3 1-.4 2.7.6a64 64 0 0 1 18.1 45.9v2l-.5 4.2q.4 2.8-1.7 2.8c-2.8-.2-5.5 1.4-8.7.3-1.7-3.5-3-6.7-3.7-10.6-.8-2.5-.5-4.9-2.4-6.7-3.2 3.2-5.8 7-10.9 7.4-1.3.1-2.5.4-3.9-.8"/><path fill="#dfa74c" d="M848.7 619.5c-3.4-3.1-1.4-7.4-1.6-11.4-.4-7-.2-7-7.2-6.5-1.7.1-2.9-.7-4.5-1.4q-.4-1.2-.3-3 1.6-2.2.2-4.8-.2-1.4-.2-3.1c2.7-3.7 2.6-7.1.2-11q-.3-29.6-.2-58.7c2-1 2.6.9 3.8 1.2 8.1 2.6 8.1 2.6 8.1 11.2v28.4c0 1.7-.4 3.7 1.4 5.4q.4 26.7.3 53.7"/><path fill="#d69e45" d="m596.8 957.3 2.7-3.3a10 10 0 0 0 3.2-3q.1-.3.1 0 .4-.2 1-1c.2-.3.2 0 0 0q.4-.2 1-1c.1-.4 0 0-.1 0q.8-.4 1.1-1.7 1.4-1.7 2.7-3.2l1.4-1q0-.2 0-.2 1-.5 1.8-2c0-.3.2 0 .1 0q.4 0 1-1 .2-.1 0 0 .4 0 1-1c.1-.3.1 0 0 0q.5 0 1-1 0-.3-.3-.3c5-1.8 9.7-4.3 15-5.2 4.7-.7 7.4.6 8.7 5.1 1.1 4.3 3.2 7.4 7.7 8.8 2.5.7 4 2.9 4.2 5.6.3 3.1 1.1 5.7 4.1 7.5 2.4 1.4 1.9 3.5 0 5.8q-3.7 5.6-8.8 9.8a15 15 0 0 1-7.5-7.7c-.6-1.4-.9-3.3-2.3-3.7-5.8-1.9-11-5.1-17.8-4.9-6.2.2-10.4 3.6-15.5 6.4q-2.9-2.3-5.3-5.3a4 4 0 0 1-.2-2.5"/><path fill="#cd953e" d="M602 965.5c2-4.8 4.9-8.5 10.5-8.5 2.3 0 4.6 0 6.7-1.3.6-.3 1.5-.7 2-.4 5.1 3 12 2.7 16.3 6.6 3.5 3 5 8.3 7.5 12.9-4.1 7.3-10.2 12.5-15.4 18.5-2 2.4-2.8-.2-3.7-1.2z"/><path fill="#d39a42" d="M230 662.4c3-2.6 5.9-5.1 10.2-3.2 2.3 1 4.2 2.4 4.5 5 .3 3.6 2.4 6.4 4.1 9.4 2.7 4.9 5.1 5.5 10.5 2.4q.8-.7 1.6-.6l1.5.7 1.3.9a6 6 0 0 1 1.8 1.5 19 19 0 0 1 2.7 4.6l-.1 1.4c-1.6 2.6.5 3.6 1.4 4.8q7.6 10.8 15.6 22.2a84 84 0 0 1-38.7-23.2c-6.8-7.7-12-16.3-16.5-25.9"/><path fill="#dfa74c" d="M1001.4 760.8c-4.2-.1-8.6 1.3-11.8-2.8-1.1-1.5-2.6 0-4 .6-4.6 2.2-6.3 1.3-6-3.6.1-3-1.1-3.8-3.7-4-2.4-.2-4.6-.7-5.8-3.6 0-1.3.9-1.7 1.5-2.6v-.2q15-8.4 31.7-13 5-1.5 9.5 1c2.8 1.3 3.8 3 2.5 6.3-3.8 8-8.9 14.8-13.9 22"/><path fill="#2a1f11" d="m519.5 330 79.4.3 177 .1c5.2 0 10.5.6 16-1 2.7 2.4 0 2.4-1.5 2.4-3.9 0-7.9 1.5-11.4 1-7.8-1.4-15.6.5-23.3-.8q-1.7-.4-3.5 0c-12 1.7-24-1.4-35.8 0-16.3 2-32.5-.4-48.8 0-11 .3-22 2.4-33.2.3-3.8-.7-8.1.2-12.3 0-15.4-.6-30.8 1-46.1-.4-7.9-.7-15.7 1.6-23.4.8q-14.9-1.6-29.4-.6c-9.5.8-18.9 0-28.3.4-8.7.4-17.9 2.4-26.7-1.7z"/><path fill="#d39a42" d="M1002.8 666.8c1.3 6.1 5.2 8.3 10.8 8.2 1.5 0 3 .1 4.5 1.5a75 75 0 0 1-38.7 32.4c-3 1.2-6 2-8.8 4.2-.3.3-.5-.1-.4 0-.8-2 1.2-2.8 2-4q7.6-10.1 15.1-20.3c1-1.5 2.6-2.7 2.1-4.8h-.4q1.6-1.4 2.8-3.8l.2-.2.8-.9.2-.1.8-.9q.3-.2.2 0 .5-.7.8-2l.2-.1.8-.5c1.5-1.7 2.2-3.8 4-5.3l.2-.2q.5-.6.8-1.8l.2-.2.9-.9.1-.1q.2-.3.8-.2"/><path fill="#dfa74c" d="M918 725.6c-1.3 1.3-3 2-4 3.2-1.7 2.4-3.2 3.2-6 1.2-2.2-1.5-4.8.2-7.1 1q-3.3 1-6.4 2.5c-3.1 1.4-4.4 4.1-2.8 6.8 1.8 3.2 2.7 5.5-1 7.7-1.2.7-.6 3-2.5 3.9-.7-10.2 1.7-20 4.6-29.7 3-9.8 6.2-19.5 9.7-30.3a141 141 0 0 1 15.5 33.7"/><path fill="#e5ae50" d="M1030.1 652.7c-1.2-4.4-4.4-7.2-9.3-6.6-7.2 1-14-1.6-21.4-2 8.5-10.6 20.3-17.4 32-24.4 2.5-1.5 5.1-2.9 8.7-4.8a214 214 0 0 1-10 37.8"/><path fill="#dfa74c" d="M615.8 342.6c-3.8 3.5-8 4.4-13 4.4q-61-.2-122 0c-1.6 0-4 1.1-4.8-1.2q-1.6-4.5 3.7-4.3h128.5c2.5.1 5.2-.6 7.6 1"/><path fill="#d39a42" d="m316.1 667-.1-.7c1.7-1.5 1.5-4.1 3.6-5.4 4.6 2.5 8.6 5.5 14 6 1 7.8-2.7 14.2-5.7 20.8-4.1 9-11 16.1-16.5 25.6-1-11.7 1.5-22 3-33-.9-4.8 1.7-8.7 1.7-13.3"/><path fill="#e2ac4f" d="M728.6 288c.3-2.5 1-4.2 3.1-5.7q28.1 15.8 56 31.8l10.5 6.2c-3 1.4-4.9 3.2-8 3.4l-.2.3c-12-3-21.8-10.2-32.3-16.1q-12-6.8-23.7-13.8c-2.3-1.4-5.4-2.3-5.4-6.2"/><path fill="#e9b252" d="M1027.1 544.6c-1.3-1.2-1-3-1.1-4.9q-.3-7.3-7.6-6.6-1 0-2 .3l-19.6 9.4c6.2-14.8 17.2-26.5 28.6-39.2 2 14.1 3.1 27.3 1.7 41"/><path fill="#d19840" d="M923 673.4c6.8-1.8 12-5 14.1-12.3.6-2 1.6-1 1.9.8q-.4 2.5.8 4.8.3 1 .2 1.9.3 1.1.8 2.3v1.2q-.3 1.3.1 2.5l.4 1.3.8 1.9c.5 4.7 3.6 8.8 1.9 13.9.2 7 1.6 13.7.5 20.8-8.3-12.5-17.8-24-21.5-39.1"/><path fill="#d8a045" d="M431 907.5c-2.3 4-6 4.8-9.3 1.8-3-3-6.6-3.3-10.5-2.8-5.2.6-10.7 0-14.6 4.8-.5.6-1.9.8-2.8.6-7.2-.9-10.8 4.4-14.8 8.6-2.4 2.5-3.5 5.7 0 9-7.9-3.2-15.2-7.8-22.6-12l.3-1.2c20-7.1 40.1-13.3 61.8-11.5 4.3.3 8.2 2 12.5 2.7M851.2 907.3c-5.7 0-11.6-1.8-15.8 3.8-1 1.3-3.2 1-4.7 0-2.7-2-5.8-2.2-9.4-2.2 6.3-4 14-4 21.6-4.4 19.9-.9 38.4 5.3 58 12.3l-19.3 10.7c-3-2.2-5.7-4.5-9.4-5.2-2.2-.5-2.8-2.9-3-5.3 0-4.8-2.9-7.5-7.2-6.1-4.7 1.4-7.7-.2-10.8-3.6"/><path fill="#e0a94b" d="M327.5 563c-7-.8-10.4-6.7-15.6-9.8L307 550c7.7-9.4 18.1-15.2 29.8-21.5-1.9 7.1-2.8 13.4-5.4 19.5-4.1 1.2-4.4 2.2-1.7 5.7q-.6 4.8-2.2 9.2"/><path fill="#d39a42" d="M237.8 579c.4-2.2-.4-5.4 2.6-5.3 3.6.2 7.7 1.4 9 5 1.4 4 3.8 5.5 7.9 6 3.2 1 3.2 3.7 3.8 5.7 1.7 5 4.5 9.6 4.5 15.3l2.2 8.3c-12.3-9.9-23.8-19.9-30-35"/><path fill="#e2aa4d" d="M958.1 845.4c.7-2.4 0-3.7-2.5-5.3a85 85 0 0 1-11.9-9.7c-3.3-3.1-7.1-3-9.9-.5-3.6 3.2-6.7 2.6-10.5.4 14.8-4.7 30.2-5.3 45.8-4.5l8.5.5c-6.9 6.9-13 12.9-19.5 19"/><path fill="#e2ac4f" d="M654.4 965.4c0-2 .7-4.1-2.8-4.5-3.3-.4-3.5-3.4-3.5-5.8 0-4-1-6.5-5.6-7.4-4.2-1-5.7-5-6.4-8.8-.7-4.2-2.8-4.9-6.7-4-4.7.9-8.9 4.2-14.5 2.7q5.4-6.6 11.1-13.1c2-2.2 3-1.6 4.6.2q13.3 15 26.8 29.4c3 3.1 3.6 5.4 0 8.2q-1.3 1.3-3 3.1"/><path fill="#dba247" d="M979 557.6c-2.8 0-3.9 1.8-5 4.2-2-15.7-3.7-31.6-7.2-47.4l-2.1-11q.3-1.3-.4-2.2-.3-.4-.3-1c2.4-2.4-1.6-5.8 1.7-8q1.4 3.7 2.6 8.3-.5 1.7 1 2.5c5.2 17.8 8 35.9 9.7 54.6"/><path fill="#d8a045" d="M284.1 545.6c-2.4-3.1 0-6.7-.1-10.2-.1-1.8 1-3.5.3-5.3-1.5-.3-1.7 1.6-3.2 1.8 2.7-21.1 8.5-41.6 15.3-62.2q1.4 1 2.7 2.9.2.8 0 1.2l-.2 1.8a532 532 0 0 0-14.8 70"/><path fill="#d59d44" d="M714.7 963.8c-2 4.3-1.3 6.2 3.5 7.7 5 1.6 10 3 10.5 9.1.3 3.3 1.6 5.6 4.1 7.9-15.8-4.1-27.2-15.3-38.7-26.6 6.7-.4 13.5.5 20.6 1.9"/><path fill="#dca348" d="M982.2 488.4c3-6.6 7.7-10.2 15.3-9.4a57 57 0 0 1-9.8 26.6c-2.4 3.8-5 7.4-8.3 12.4z"/><path fill="#e5ae50" d="M937.2 628.5c-5.2 2.8-9.7 6.3-14.5 9.5-1.7 1.1-1.7 2.7-1.7 4.4.2 5.6-.6 11.2.7 16.8q.8 2.1-.7 4.6c-1.7-4-1.6-8.5-2-13.4v-7c-.4-11.1.7-21.8 1.4-33.8 6.4 6.2 12.2 11.8 16.8 19"/><path fill="#e9b252" d="M248 524.5c-6.3.7-17 9-18.8 15.2-1.5-11.6 0-23.4 1.3-36.3 6.7 7.1 12.2 13.9 17.6 21.1"/><path fill="#dfa74c" d="M481.8 849.7c-4.8.2-9 2.7-13.2 4.8-3.1 1.6-5 4.6-3.4 8.7.7 2 2.2 4.2.2 6.6a145 145 0 0 1-8-37.7c8.9 5.5 16.4 11.6 24.4 17.6"/><path fill="#d59d44" d="M851 907.4c4.3.7 8.4 1.4 13.1 1 6-.5 7.8 2.1 7.6 8.8-.1 2.3.4 4 2.7 3.5 5.7-1.5 5.9 2.5 6.8 6.5q-1.2 1.3-2.9 1.8-.6-.3-1-.2c-3.2 3.8-7.8 4.6-12 6.8q-.3-1.7 1.6-2.6c2.3-.9 2.4-2.8 1.2-4.4a19 19 0 0 1-3.2-12.1c.1-3.2-1.5-4-4-1.8-2.2 2-4 2.8-7 .9-2.9-2-4.4-4.3-3-8.2"/><path fill="#e2ac4f" d="M413 792.6c-6.3 3.3-11.7-1-17.5-2-1.6-.2-3-1-5-1.6.1-7.6 1.5-15 3.5-23.5z"/><path fill="#d19840" d="M262 676a18 18 0 0 1 10-9c6.5 11.1 8.7 23.7 11.5 36.2q-7.4-9-15.2-18.3l-.3.1-.9-.9q0-.1 0 0l-1-1q-.2-.2-.1 0-.5-.7-.8-2-.2-.2-.2 0l-.9-1q0-.1 0 0l-1-1q-.2-.1-.1 0-.4-.5-.5-1.4z"/><path fill="#e2ac4f" d="M794.4 858.8c-5.7 0-8.7-4.4-12.7-7-2.4-1.7-4.3-2.7-7.3-1.8q11.3-8.9 24.3-18.5c-.6 9.9-2 18.5-4.3 27.3"/><path fill="#e9b252" d="m643.5 344.1-3-1.4c.2-1.3 1-1 1.6-1H776c1.3 0 2.7-.4 3.9.9-1.2 1.8-2.9 1.9-4.5 1.9q-65.5.2-131-.1c-.6 0 .2 0-.9-.3"/><path fill="#cd953e" d="M643.2 344.3c2.3-1.6 5-1.3 7.7-1.3h128.6c.7 1.2 1 2.4-.2 3.6-1.7-.7-3.2-.6-4.7-.6H650.4q-1.1-.1-3 .5c-2 .1-2.9-1.2-4.2-2.2"/><path fill="#e9b252" d="M364.4 726.7q-1.3-.1-2.8-.5c-5.9-1.4-7.4-4.4-4.9-10.2 1-2 2.1-4.1.2-5.9-1.7-1.5-3.4.3-5 1l-10 4.6c2.3-8.3 7-15.4 11.8-23.9 3.2 11.7 8 21.6 9.5 32.5.1.7.8 1.4 1.2 2.4"/><path fill="#2a1f11" d="M491.3 309.3q3.8-2.6 8-4.9 1 .7 1.5-.4c2.9-2.8 6.3-4.2 9.8-6 3.3 3-1.8 4-1.4 7q-15 9-29.8 17.5c-2.5 1.5-5.5 1-8.2 1.5-2.5.6-5.6.2-6.6 4q-.9-3.5-4.6-5.2c-3-1.5-2.7-3.4.8-4.7-1.9 1.6-2.7 3 .9 4 3.5 1 6.5.1 9.4-1.6l19.8-11.3q.3.4.5.7v.1z"/><path fill="#e9b658" d="M892.3 319c-5.8 2.9-6.6 2.5-7.6-3.3q-.6-3.6-4.2-3c-4.6.3-7.7-1.4-8.5-6.3-.3-1.3-.5-2.9-2.3-2.6-1.4.3-1.6 1.6-1.6 2.8 0 3.6-1.6 6.7-3.1 10.2-3.3-7.2-5-15-7.3-23.8a153 153 0 0 1 34.6 26"/><path fill="#e7af4f" d="M647.5 346.8c.7-2.2 2.6-1.8 4.4-1.8h122c1.6 0 3.4-.4 4.9 1.4a14045 14045 0 0 1-131.3.4"/><path fill="#f0bf60" d="M409 533.6v75.3c0 2.1.3 4.3-.8 6.7q-.6-15.7-.6-32V418.3c0-6.6 0-6.6 6.5-6.7l16.4-.4c-.9 2.5-3.3 1.7-5.3 1.8q-5.6.2-11 0c-4-.2-5.2 1.4-5.2 5.2v115.4"/><path fill="#e9b658" d="M995.8 436.6c-3.5-1.7-2.5-6-4.3-8.8-1-1.7-1.5-4-4.1-3.3-2.8.9-6.7 1.6-6.6 5 0 3.5-1.5 5.3-3.3 7.8-3 4-3.3 9.3-4.5 14-.6 2.3-.1 5-2.5 6.7 1.2-14.5 7-27.5 12.8-40.7l3.5-7.4c4 8.9 6.6 17.6 9 26.7"/><path fill="#d59d44" d="M261.2 491.3c2.3-1 4.7-1.2 7.1-1.4 3-.2 4.5 1.3 5.9 3.8 1.7 7.6 1.7 15 2.4 23.5a126 126 0 0 1-15.4-25.9"/><path fill="#f0bf60" d="M280 434.6q-2.6.7-5 .2c-3.4-.6-4.5-2.5-2.4-5.6.5-.7 1.3-1.2 1.5-2 .6-1.5 0-3-1-4-1.4-1.3-2.5-.1-3.5.7-3.5 3.1-6.6 6.5-7.4 11.4-.3 1.6-.6 3.3-2.4 4.5a148 148 0 0 1 9.3-30.3c4 9 7.3 16.9 10.8 25.1"/><path fill="#e2ac4f" d="M269.8 736.7c-3 1-6.6-.5-9.5 2.7-1.3 1.4-3.4-.7-4.2-2.4-1.4-3.5-3.8-5.6-7.6-4.4-3.6 1.1-6.4 3.5-6.2 8.1-3.3-4-5.4-8.8-8.3-14.1 12.8 2.2 24.3 5.2 35.8 10"/><path fill="#ca913c" d="M893 782.4c1.4-2.3 1-4.6 1.5-6.7.6-2.9 1.9-5 5-5.2 3.6-.1 1.8 3.3 3.2 5.2 1 1 1 1.7.5 3-1.5 6.7-2.1 13.3-5.4 20.8-.7-6.8-2.8-11.7-4.8-17.1"/><path fill="#e9b658" d="M1015.4 739c-1.2-3.9-6.7-7.4-11.1-6.2-9.6 2.5-19 5.6-27.9 10.3-1.3.7-2.5 1.6-4.5 1.5 14.7-10.4 32.1-14 50.7-18.4z"/><path fill="#ca913c" d="M944.4 683.5c3.3-1.3 6-4.2 9.8-2.2a68 68 0 0 1-6.5 23.7l-1.8-12.5c-2.2-2.8-2.1-5.7-1.5-9"/><path fill="#d39a42" d="M944 516c.4-4 2.2-6.7 6.6-7.6q7 7.5 11.4 17.6c-5.4-3.8-12-6-18-10"/><path fill="#e9b658" d="M235.3 626.3c-5.8-1-10.5 1.4-15 5.5-2.2-5-2.7-10.4-4.2-16.5 7 3.3 13.1 6.8 19.2 11"/><path fill="#e9b252" d="M324.7 828c-7 .2-14.3 2.9-21.7-.1-6.5-2.6-12.2.7-17.9 4q-3-2.1-5.6-4.8l.2-1.3h10.1c11.6-.4 23.1-.2 34.9 2.2"/><path fill="#e5ae50" d="M939 540.6q-1.3.3-2.7-.2c-6.3-2.6-9.2-1.5-12.2 5.4q-2.3-7.6-4.7-16.9c7.7 3.1 13.5 7.4 19.6 11.7M866 788.6c-2.4-.1-4-1-3.7-3.9q.9-9.7-8-5.3-1 .6-2.5 1.2c2.5-5.1 6.3-9.6 10.2-15.1 2 8 3.1 15.2 4 23"/><path fill="#2a1f11" d="M265.9 606c-3-6.8-5.4-13.7-8-20.9l-3-8.7c-.6-.8-1.2-1.2-1.1-2.1q-.6-2.5-1.4-5 .1-.7 1.1-.5 7 16.4 13.4 32.4c.2.8.3 1.7 1.7 1.8 1 .4 2 .9 1.6 1.8-.8 1.7-2.5 1-4.3 1.3"/><path fill="#4a351b" d="M965 615.1c.5-6.6-4-12.1-4.4-19.5 4.1 3.1 4.2 7.9 7.3 12.3v-19.4c2.5 1.4 1.6 4 1.6 6.4.2 6.7.8 13.4-3.4 19.7q-.3.7-1 .6-.2-.2-.1 0M290.2 606.8c2.8-11.2 8.7-21.1 15-31-4 10.3-9 20.2-12.7 31z"/><path fill="#e5ae50" d="M950.1 550.5q-1 .5-2.3.5c-8.3.1-9.8-1.6-8.7-9.8 4.2 2 7.6 5.5 11 9.3"/><path fill="#ebb656" d="M974.3 572.6q1.8.3 1.7 2.4 0 13.5-.2 26.8-.2.8-1.2 1.9-.4-15-.3-31.1"/><path fill="#e5ae50" d="M848.5 784.9q.8 2.1 1.1 4.6c.9 5.4-2 7.7-7.8 6a98 98 0 0 1 6.7-10.6"/><path fill="#4a351b" d="M944.5 682.8q.9 4.4 1.3 8.9-.6.4-1.6.3a199 199 0 0 1-3.2-14.6l-.8-1.4q-.2-.4-.2-.8-.8-1.2-.2-2.9.3-.3.4-.1.4-.7 1.4-.4z"/><path fill="#e9b252" d="M256.4 537.1c-7 1.4-7.6.8-7-6.4v-3.8q3.6 4.6 7 10.2"/><path fill="#d59d44" d="M330 553.7c-2.3 1.4-4 .5-4.6-1.8-.9-2.6.3-4.5 2.4-6q2.7-1.5 3.2 2v1.8q0 1.3-.7 2.3z"/><path fill="#e5ae50" d="M830.5 815c.2 3.9-2.2 7.7-.9 12.2.6 2-1.6 3.4-4.1 3.8.2-5.6 2.6-10.7 5-16"/><path fill="#795729" d="M983.7 464.8q.3.9.4 1.9 1 1.4.3 3l-1.8 13q-.5.3-1.3.2.3-8.5 1.5-17.6.4-.6 1-.5M309.3 404c-.3-6 .8-12 2-18 1 5.9 0 11.6-.5 17.8q-.6.3-1.5.2"/><path fill="#4a351b" d="M350.9 770c-1.7-6.6-1-13.1-.2-19.7q.8 9.3 1.3 19.3-.3.5-1.1.4M511.9 968.5q6.1-2 12.7-3.6.5.4.4 1.2a141 141 0 0 1-12.8 3.5q-.6-.3-.3-1"/><path fill="#2a1f11" d="M475 310.1q-5.3 3.4-11.6 7c2.5-4 6.6-5.9 11.5-7"/><path fill="#795729" d="M315.9 667c2.3 4.1-1 8-1.3 12.6q-.5.4-1.3.3c-.2-4.3 1.4-8.3 2.6-12.9"/><path fill="#4a351b" d="M434 923.7c-4 .6-7.7-.2-11.6-1.5l11.3.1q.5.6.3 1.4"/><path fill="#2a1f11" d="M269.4 587.8a84 84 0 0 1-.4-10.4c3 3 2.3 6.6.4 10.4"/><path fill="#4a351b" d="M945 420.5c1.4 0 1.4-1 1.6-2.2q.5-.9 1.3-.7c.7 1.8 1 3.2 1.1 5-1.6.2-3.6.6-4-2"/><path fill="#e5ae50" d="M996.6 647c-.2 2 2.4 6.2-3.5 5q1.2-2.5 3.5-5"/><path fill="#4a351b" d="M733 965.5c2.6-.3 5 .5 8 1.8-3 1.5-5.1-.1-7.7-.4q-.4-.5-.3-1.4M903.3 779q-.4-1-.4-2.6l.7-2.2q.6-.9 1.6-.5a20 20 0 0 1 0 5q-.7.3-1.9.2"/><path fill="#e5ae50" d="M835.5 804.9q.8 4.6-3.7 7.8 1.5-3.7 3.7-7.8"/><path fill="#c9913c" d="M919 643.4c1.3 1.6 1.1 3.8.3 6.2q-.4-2.6-.4-6.2"/><path fill="#e9b658" d="M246.9 634.6c-2.7 2.1-3.7.7-3.8-2.4q1.8.7 3.8 2.4"/><path fill="#d8a045" d="M436.8 908.7c-1 1.2-2.4 1.6-3.7-.4 1.2-.8 2.4-.2 3.7.4"/><path fill="#2a1f11" d="M464 328.3c0 1 0 1.9 1.7 2.1-.4 1.3-1.5 1.5-2.4.5s-1-2 .7-2.6"/><path fill="#e2ac4f" d="M602.5 950.8q.5 2.3-2.4 3a14 14 0 0 1 2.4-3"/><path fill="#e9b658" d="M238.8 628.7c-1.2.2-2.7 0-3.4-2q1.5.5 3.4 2"/><path fill="#d8a045" d="M280.3 534.4c1.6.5 2 1.4 0 2.5q-.4-1 0-2.5"/><path fill="#c9913c" d="M321.4 431.6q.4.3.6 1.5l.2 1.6q0 .5 0 .4c.1-1.2-3-1.5-.8-3.5"/><path fill="#e9b658" d="M971.3 744.6q0 1-1 2.3-1 .3-2.1 0 1-1 3.1-2.3"/><path fill="#d39a42" d="M877.4 929c-.8-.2-1.9-.5-1.4-1.1.7-1 1.3-.2 1.9.8q0 .3-.5.3"/><path fill="#e2ac4f" d="M772.6 851q.1 1.6-2.2 2 .6-1 2.2-2"/><path fill="#e5ae50" d="M851.3 780.8c.4 1 .2 2.1-1.5 2.8q.3-1.2 1.5-2.8"/><path fill="#e9b658" d="M903.4 333.4q-1.8 0-2.2-2.7 1 .8 2.2 2.7"/><path fill="#e5ae50" d="M991.7 653.1c.2 1 0 2-1.5 2.7q.4-1 1.5-2.7"/><path fill="#ca913c" d="M955 676.8a3 3 0 0 1-.2-1.6q.3.6.2 1.6"/><path fill="#e5ae50" d="M998.6 644.6c.1.7-.1 1.6-1.5 2.2a7 7 0 0 1 1.5-2.2"/><path fill="#e2ac4f" d="M768.7 854q0 1.3-2 1.8a7 7 0 0 1 2-1.8M748.4 872.8q.5 1.2-1.3 2 .2-.8 1.3-2M611.5 940.8q.4 1.3-1.4 2 .3-.9 1.4-2"/><path fill="#e5ae50" d="M299 475.8q-.9-.5-.1-1.6.2.5.1 1.6M964.2 501.4c.7 0 1.8.1.7 1.4q-.5-.4-.7-1.4"/><path fill="#e0a94b" d="M330.3 552.2q0-.7.5-2 1.2 1-.5 2"/><path fill="#2a1f11" d="M269.1 598.8q-.2-.5-.2-1.6 1 .5.2 1.6"/><path fill="#e5ae50" d="M969.5 502.7c-.8 0-2 0-1.4-1.6q.8.4 1.4 1.6"/><path fill="#e9b658" d="M904.8 335.7q-1.1 0-1.4-1.8.8.5 1.4 1.8M898 325.7q-1.3 0-1.8-1.8.7.4 1.7 1.8M901 329.7q-1.3 0-1.7-1.8.7.5 1.6 1.8"/><path fill="#e9b252" d="M249.5 526.4a4 4 0 0 1-1.3-1.3q.5.2 1.3 1.3"/><path fill="#e5ae50" d="M831.4 812.8q0 .5-.6 2 0-.7.6-2M836.6 803q0 .6-.7 1.8 0-.6.7-1.8M837.7 801.1q0 .6-.7 1.7 0-.6.7-1.7"/><path fill="#d39a42" d="M327.8 800.4q0-.8.8-.4l.3.3h-.9zM323.6 792.5l.9-.3h-.3l-.5.2q0 0-.1 0"/><path fill="#e2ac4f" d="M596.7 957.1q.3.6.2 2-1.6-.2-.2-2"/><path fill="#e9b658" d="M899.4 327.5q-.6-.1-1.3-1.3z"/><path fill="#e2ac4f" d="M605.7 947.2q0 .5-1 1.5z"/><path fill="#dfa74c" d="M485.8 852.7q-.4 0-1.5-1z"/><path fill="#e0a94b" d="m319 441-.6.6-.2-.3q.3-.4.8-.4z"/><path fill="#e2ac4f" d="M760.6 860.7q-.3.5-1.3 1.2.3-.5 1.3-1.2"/><path fill="#e9b658" d="M243 631.6q-.6 0-1.7-.8.6 0 1.7.8"/><path fill="#e2ac4f" d="M749.8 871.2q-.1.4-1 1.5 0-.4 1-1.5"/><path fill="#e5ae50" d="M989.7 656.1q0 .5-.8 1.6 0-.5.8-1.6"/><path fill="#d8a045" d="M830.4 868.5"/><path fill="#d39a42" d="m869 867-.1.6q-.8.2-.1-.5.3 0 .1-.1"/><path fill="#e2ac4f" d="m763.7 858-.8.8q0-.2.8-.8M761.6 859.7q0 .3-.7 1zM614.5 937.7q0 .3-.7 1 0-.4.7-1"/><path fill="#d59d44" d="M524.4 923.5"/><path fill="#e2ac4f" d="M613.6 938.7q0 .3-.7 1 0-.2.7-1M612.6 939.7q0 .4-.7 1 0-.1.7-1M609.7 943l-.7.8q0-.3.7-.9M604.6 948.7q0 .3-.7 1 0-.2.7-1M603.6 949.8q0 .3-.7 1 0-.4.7-1"/><path fill="#e9b658" d="M895.4 322.6q-.3 0-1.1-.7.2 0 1 .7M894.4 321.5q-.3 0-1-.8.3 0 1 .8M893.4 320.4l-.8-.8z"/><path fill="#d39a42" d="M285.3 711.7q.4.4.5 1.3c0 .3.2 0 .1.2q-.3 0-.8-1 0-.3.2-.5M285.8 713.3h.3zM970.3 713.3l-.1-.2z"/><path fill="#e9b658" d="M241.2 630.7q-.3 0-1-.8.3 0 1 .8"/><path fill="#d8a045" d="M965 615.4q0-.5.7-.5c.1.6.3 1.5-.8.5"/><path fill="#e5ae50" d="M840.7 796.8q0 .3-.7 1 0-.4.7-1M838.7 799.6l-.6 1.1zM841.5 795.7q.1.4-.7 1 0-.2.7-1"/><path fill="#e2aa4d" d="M938.4 441.5"/><path fill="#e2ac4f" d="M773.7 850q0 .3-.7.8z"/><path fill="#e5ae50" d="m952 552.7-.8-.7q.1 0 .8.7M951.1 551.7q-.2 0-1-.7.4 0 1 .7"/><path fill="#e9b252" d="M257.2 538.6q-.3 0-1-.6.3 0 1 .6"/><path fill="#d39a42" d="m962 526.3.3-.1zq0 .2 0 0"/><path fill="#e5ae50" d="M849.6 783.7q0 .4-.7 1 0-.1.7-1"/><path fill="#d59d44" d="M933.4 791.7c0-.4-1 0-.6-.7l.5.5z"/><path fill="#12100c" d="M443.2 710.3a267 267 0 0 1-15.6-52.8l-2.6-16.1c-3.6-35.6-1.3-71-2.1-106.7l.1-100.3c0-7.8 0-7.8 8-8q66.8-2.5 129.5-26.4a298 298 0 0 0 64.5-33.8c2.2-1.6 3.7-1.8 6-.2 51.3 34.8 108.5 52.4 169.6 58.7q14 1.4 28 1.7c3.7.1 5 1.2 4.9 5.1l-.1 174.5v9.5a321 321 0 0 1-6.4 50.8 328 328 0 0 1-7 25.3q-.4 1.7-.9 3 .1.8 0 1.2a6 6 0 0 0-1 2v1q-1.4 1.8-2 3.9c-.2 2.7-1.6 4.7-2.8 7a253 253 0 0 1-63.8 85.7c-36.5 32-78 56.2-118.5 81.8-2 1.2-3.4 1.5-5.4.2-35.9-22.6-72.8-43.8-105.7-71a282 282 0 0 1-63.8-71q-7-12-13-25.1"/><path fill="#ca923d" d="M835 578.6c5.2 2.3 5.5 6.5.4 10.2q-.4-4.7-.3-10.2M835 592.5q3.6 1.4.4 4.3a18 18 0 0 1-.3-4.3"/><path fill="#795729" d="M511.7 968.2q.5.3.2 1c-2.1 1-4 2-6.5 1.4 1.9-1.6 4-1.8 6.3-2.4"/><path fill="#4a351b" d="M343.6 851.5a593 593 0 0 1 22.4 8q-.3 1-1.6 1.3-10.4-3.9-20.6-8.4-.6-.5-.2-1"/><path fill="#0f0e0b" d="M364.4 861.2q.3-.9 1.6-1.3c.5.5 1.7.8.9 1.7q-.9.8-2.5-.4"/><path fill="#795729" d="M340.3 850.6h-.4zM343.7 852q-.7 0-1.3-.4.6-.3 1.3-.3c.2 0 .1.5 0 .7M908.8 853.2c2.6-1.8 5.1-2.6 8.7-3.2-2.8 2.4-5.3 3-8.1 4q-.7-.2-.6-.8"/><path fill="#0f0e0b" d="M899.7 856.6c.7-.6 1.6-1.5 2.4-.5.5.6-.6.8-1.4 1.2q-.6 0-1-.7M905.4 854.9c-.7 1-1.6 1.6-2.2 1-1-.8.4-.8 1-1.3q1-.2 1.2.3"/><path fill="#0f0e0b" d="M904.7 854.7c.7-.6 1.5-1.2 2.4-.3l-1.5.9q-.5 0-.9-.6M908.7 853q.4.1.4.7c-.6.2-1.5.4-.4-.7"/><path fill="#795729" d="M752.7 970.8q-5.3.3-10.3-2.7 5.2-.2 10.3 2.7M753 971"/><path fill="#4a351b" d="M301 777c-3-1.3-5.5-3-8-6 3.6.6 5.4 2.8 7.9 4.4q.5.8 0 1.7M290.7 768.7c1.5.3 2.8 1.2 2.5 1.7-.6 1.2-1.5 0-2.5-.6q-.5-.8 0-1.1"/><path fill="#0f0e0b" d="M300.8 777.6q-.2-.6.1-1.5 1.1 0 2.4 1.2 0 .5-.7 1-1 0-1.8-.7"/><path fill="#4a351b" d="m285.2 765.2 1.6.5zM289.3 768.1q.8-.3 1.8.4 0 .5-.4.9-1-.2-1.4-1.3M285 765v-.2q-.2.1 0 .3M287 766l1 .7q-.5.1-.9-.5zM288 767l1.2.5q.1.3-.1.4-.6 0-1-.7z"/><path fill="#12100c" d="M715.3 295.2c14.9 8.7 29.4 17.4 45.1 26.8-3.6.1-6.1.2-9 .5-4.1.8-7.8.5-11.9.3q-5.5-.3-11.1-.3c-7.1.9-13.8.4-20.9.3-7.2-.3-13.9-.4-21.1-.4-5.8 1.4-11 1.1-16.9.3l-11.1-.4c-5.8 1.2-11.1.7-16.9.3q-7.6-.3-15.1-.3c-3.4 1.1-6.5.7-10 .3q-10.3-.3-21-.2c-4.8 1-9.1.5-13.9.3-4.2-.2-7.9-.3-12-.3h-72.8l-.2-1.3 21.2-12.4Q571 277.8 624 246.8c3-1.7 5-1.7 8 0q41.3 24.3 83.3 48.4"/><path fill="#0f0e0b" d="M509.4 305.2c-2.4-2.8-.1-4.7 1.4-7q31.9-19.2 63.8-37.9l49.1-28.6c3.1-1.8 5.3-2 8.6 0q47.7 27.9 96.1 55.8 31.1 18 61.6 36c-5.1.8-10.2.8-14.9-1.8l-48.6-28.1q-2.7-1.5-6-2.8c-10.3-7.9-21.8-13.2-32.6-19.6q-28-16.3-56-32.7c-2.9-1.6-5-1.6-7.7 0q-57.1 33.3-114.8 66.7"/><path fill="#795729" d="M755.7 895c-1 2-2 3.3-3.3 4.9q-.7-.1-.6-1c.3-2 1.6-2.7 2.6-4q.8-.4 1.3.2"/><path fill="#795729" d="M758.3 891.7q-1 2.1-2.3 3.6-.5.1-1-.4.6-1.7 2.2-3.3.8-.5 1.1.1M760.6 888q.1 1.1-.8 2.4-.9.4-1.1-.1.6-1.5 2-2.3"/><path fill="#795729" d="M757.6 891.6c.1-.7.4-1 1-1.7q.3 0 .8.5-.1.8-1 1.7-.3 0-.8-.5M760.8 887.8c.2-.3.6-.8.4.2z"/><path fill="#0f0e0b" d="M743.3 910q0 1-.6 1.3-.5 0-1-.7 0-.9.5-1.4.6 0 1 .8"/><path fill="#0f0e0b" d="M742.7 909.4c.3-.6 1-1.3 1.2-1.2q1 .5-.2 1.9-.6.1-1-.7M748.5 904q-.3.9-.8 1.5-.7.1-1.2-.5.1-1 .8-1.4.7-.2 1.2.4M751.7 898.6q.4.1.4 1 0 .7-.4.9-.5 0-.8-.3.3-.9.8-1.6"/><path fill="#0f0e0b" d="M751.4 900.4q-.5.7-1.1 1 0-.6.2-1.3.6-.2.9.3M748.4 902.9q.6-1 1.4-1.4 0 .5-.2 1.5-.8.5-1.2-.1"/><path fill="#0f0e0b" d="M747.7 903.7q-.2-.7.5-1.1.4 0 .9.5.3.7-.4 1.2-.5 0-1-.6M747.3 905.3q0 .8-.5 1.3-.7.1-1-.6-.2-1 .5-1.4.5.1 1 .7"/><path fill="#0f0e0b" d="M746.3 906.5c-.2.6-.8 1.3-1.2 1.2q-1-.5.2-1.8.6-.2 1 .6"/><path fill="#4a351b" d="M509.1 906c-1.5-1-2.8-2.2-3.1-4.6 1.9.5 2.7 1.9 3.8 3.3q0 1-.7 1.3M504.9 900.6q-1.6-1.3-3-3.1-.3-1 .2-1.2 1.8 1.4 3 3.2.3.7-.2 1.1"/><path fill="#795729" d="M500.2 894.6c-1-.3-2.2-1-1.7-2.2.2-.6 1 0 1.4.8q.4.6.3 1.4M493 884.6"/><path fill="#4a351b" d="M502 897q-.7-.3-1.4-1.2-.3-.7.1-1 1 .5 1.8 1.4 0 .3-.5.8"/><path fill="#795729" d="M496.8 889.7q.7.5.8.8-.2 0-.8 0-.4-.6 0-.8M496 888.8q-.3 0-.4-.3.3 0 .4.3"/><path fill="#795729" d="M496.8 890.2q-.6 0-.8-.9-.1-.3.1-.4.6 0 1 .7zM494.4 886.5"/><path fill="#0f0e0b" d="M513.8 911.1q-.8.3-1-.5-.2-.6.4-1.3.8 0 1.3.7 0 .5-.7 1.1"/><path fill="#4a351b" d="M500.1 895.2v-1.4q.3 0 1 .8-.1.5-.5.8-.2.2-.5-.2M505 900c.6.3 2 1.1-.3 1q-.1-.5.4-1"/><path fill="#0f0e0b" d="M509 906.3q0-.7.7-1.1.4-.2.6.3t-.4 1.1q-.7 0-.9-.3"/><path fill="#0f0e0b" d="M510.1 906q1.3 0 1 1.2c-.2.7-.7.3-1.4-.2q-.2-.7.4-1M512.9 910c-.7-.1-1.6-.5-1-1.4q.3-.3 1.3.2.2.6-.3 1.3M828.2 922.6q-.5.4-1.4.6v-.7z"/><path fill="#ebb656" d="M669.3 322.8q7.5-.5 16.2-.4-7.5 6-16.2.4M707.3 323q9.5-.5 20.2-.5c-6.3 2.7-13.1 1.7-20.2.4M641.3 322.7q7.5-.4 16.2-.3c-5 3-10.5 1.9-16.2.3M581.3 322.8q6-.4 13.2-.4c-4 2.8-8.4 2-13.2.4M739.3 323q5-.6 11.2-.5c-3.2 2.6-7 1.8-11.2.4M616.3 322.7q4.1-.4 9.2-.4c-2.6 2.8-5.8 2-9.2.4"/><path fill="#4a351b" d="M838.3 845.3q3.2-9 6.6-17.6l1.2.4q-3 8.9-6.6 17.9-1 .3-1.2-.7"/><path fill="#0f0e0b" d="M836.6 849.6q0-1.4.8-2.7.7-.5 1.3.1c-.3 1.3-.6 2.1-1 3.2q-.5 0-1-.6"/><path fill="#4a351b" d="M846.5 825"/><path fill="#0f0e0b" d="M838 845.3q.5 0 1 .7.3.8-.2 1.4-.3 0-1-.5-.1-.8.2-1.6M491.4 309l.5.9c.5 1 1 2 0 3-.2.3-1 .2-1.2 0-.8-1 0-2 .5-3.5zM500.7 303.7c.8 1 2.8 2.1 1 3.3-1.4.8-1.6-1-2-2.3q.2-.8 1-1"/><path fill="#4a351b" d="M417.8 846.7a37 37 0 0 1-5-15.1q2.9 6.5 5.8 13.6.2.9-.8 1.5"/><path fill="#4a351b" d="M421 854.3c-2-2-2.5-4.5-3.6-7.2q0-.6 1-1.3 2 3 3.5 7a3 3 0 0 1-.9 1.5M411.6 829.4q-.2-.2-.2-.6zM410.5 826.2"/><path fill="#0f0e0b" d="M420.7 854.6q.3-.9 1-1.4.5.3.7 1.1.1 1-.5 1.4-1-.4-1.2-1.1"/><path fill="#0f0e0b" d="M422.2 854.8c.7.7 1.8 1.6.7 2.6 0 .1-.9-.6-1.5-1.3q0-.7.8-1.3"/><path fill="#ca923d" d="M813.4 709.9a51 51 0 0 1 2.4-6.6c1.2 2.6-.5 4.5-2.4 6.6M817.9 698.8c-.2.1-.1-.4 0-.6q.4 0 0 .6M819 695.9q-.2-.1 0-.7.4 0 0 .7"/><path fill="#795729" d="M1002.4 570.4c.1-3.2 1.1-5.7 3.3-8.5.3 3.2-1 5.3-2 7.9q-.5.8-1.3.6"/><path fill="#0f0e0b" d="M1002.6 572c-.6 2.3-.6 4.4-2.6 5.7-1-2.2.6-3.7 1.3-5.8q.9-.5 1.3 0"/><path fill="#0f0e0b" d="M1001.9 570.2q.3-.4 1.3-.2.3.9-.4 2.2-.4.2-1-.4-.2-.8 0-1.6"/><path fill="#795729" d="M1006.8 559.1q0 .5-.2 1.2-.7-.5.2-1.2M1007 559l.2-.7zq0 .1 0 .1"/><path fill="#4a351b" d="M314.3 494.7q-3.3 5-6.8 9.3-.7 0-1.2-.8 3-4.3 6.8-8.7.9-.4 1.2.2"/><path fill="#795729" d="M316.8 490.8q.7-1.3 1.9-1.8-.2 1.4-1.5 2.8-.4-.1-.4-1"/><path fill="#4a351b" d="M313.6 494.5q.1-.8 1-1.5.6-.2 1 .2-.4 1.1-1.2 1.8-.4 0-.8-.5"/><path fill="#795729" d="M320.1 488v-.3z"/><path fill="#4a351b" d="m316.5 492.1-.7 1.3q-.3.1-.7-.4 0-.6.5-1 .8-.3.9.1"/><path fill="#4a351b" d="M316.7 490.6q.4 0 .3 1-.1.6-.4.8-.4 0-.6-.4 0-.7.7-1.4"/><path fill="#795729" d="M320 488q0 .4-.7 1-.3.1-.5-.2.2-.4 1-.8z"/><path fill="#0f0e0b" d="M304.7 505.5c.2-.6.8-1.4 1.2-1.3q.9.4 0 2-.6.1-1.2-.7"/><path fill="#0f0e0b" d="M305.9 503.5q.6-.3 1.1.5-.8 1.3-1.1-.5"/><path fill="#795729" d="M970.3 765.8c-1.2 1.6-2.3 2.9-4.5 3.2.2-2 1.9-2.5 3.4-3.4q.8-.4 1 .2"/><path fill="#0f0e0b" d="M956.6 776.1c-1 1.2-1.7 3.1-3.2 1.8-.6-.5.6-1.5 1.8-2.2q1-.2 1.4.4"/><path fill="#795729" d="M969.7 765.7c.4-.6.8-1.6 1.7-.7 0 0-.5.7-1 1.1q-.3 0-.7-.4M973.5 763.5"/><path fill="#0f0e0b" d="M962.7 771.2q0 .4-.4.4 0-.4.4-.4M959.7 773.1q.8-1 1.4-1c.7.2.2.7-.3 1.2q-.9.5-1.1-.2"/><path fill="#0f0e0b" d="M958.5 773.9q.2-.8 1-1.1.4 0 .8.6 0 .6-.7.9-.7.1-1.1-.4"/><path fill="#0f0e0b" d="M959.1 774.2q-.4.8-1.3.8c-.7 0-.2-.6.3-1.3q.6-.1 1 .5"/><path fill="#0f0e0b" d="M955.8 775.8q.5-1 1.4-.8c.7 0 .3.6-.2 1.3q-.6.1-1.2-.5"/><path fill="#4a351b" d="M942.1 494.4a80 80 0 0 1 6.7 7.3q0 1-.6 1.2a91 91 0 0 1-6.3-7.4q-.2-.8.2-1"/><path fill="#c9913c" d="M938.2 490.6q-1.4-.5-2.4-2-.2-.8 0-1 1.4.7 2.1 1.6.4.6.3 1.4"/><path fill="#0f0e0b" d="M950 505q-.9-.1-1.5-1.2-.2-.7.4-1 1 .4 1.7 1.2 0 .6-.7 1"/><path fill="#c9913c" d="M935.9 488.1q-.6 0-.8-1 .6-.2 1 .4.1.4-.2.6"/><path fill="#4a351b" d="M939.7 492q.6.4 1 1-.4 0-1-.2-.4-.6 0-.9"/><path fill="#4a351b" d="M939 491.4q.4-.4 1 .3 0 .4-.4.7-.4-.1-.7-1M938.1 491.1q-.3-.4-.1-1.3.3 0 1 .9l-.1.5z"/><path fill="#c9913c" d="M934.9 487c-.1.2-.3-.2-.3-.2q.2-.1.5-.1z"/><path fill="#0f0e0b" d="M948 503.2q.1-.6.7-1 .4-.1.6.3l-.7.9q-.4.2-.6-.2"/><path fill="#4a351b" d="M942 495c-.6-.2-1.2-.5-.6-1.1q0-.1.9.3 0 .4-.3.8M953.9 583.2c-.6-1.9-2-3.1-1.3-5.8a70 70 0 0 1 8.7 19c-3.6-3.7-5-8.5-7.4-13.2M951.6 576.7q-.3-.1-.2-.3.2 0 .2.3M950.5 574.6"/><path fill="#795729" d="M274.1 480.3c-1.5-5-1.5-9.7-1.5-14.5 2 4.2 2.2 8.8 2.6 13.7q-.3 1-1.1.8"/><path fill="#0f0e0b" d="M273.8 480.5q.2-.7 1-.6c.2 2 1.6 4.1.2 6.3-1.6-1.6-.8-3.6-1.2-5.7"/><path fill="#4a351b" d="M335.4 421.2q1.5-2.1 4.1-4.3.8-.1 1 .2a26 26 0 0 1-3.7 3.8q-.6.4-1.4.3"/><path fill="#0f0e0b" d="M331.1 425.8c-.4.8-.6 2-1.6 1.2-.6-.5.1-.8.6-1.5q.7-.3 1 .3"/><path fill="#0f0e0b" d="M332.1 424.8a2 2 0 0 1-.7 1.3q-.4 0-.8-.7 0-.7.6-1.1.6-.1 1 .5"/><path fill="#4a351b" d="M340 417q.4-.5 1-.7l-.2 1q-.5.1-.8-.3M342.8 415l-.5.4q0-.3.5-.5M343 415l.2-.7q.8 0 0 .6-.3 0-.1.1"/><path fill="#0f0e0b" d="M331.6 424.4q0-.6.6-1 .6-.1 1 .4a2 2 0 0 1-.8 1.3q-.4 0-.8-.7"/><path fill="#0f0e0b" d="M332.6 423.5q0-.7.6-1t1 .2c-.2.8-.4 1-.8 1.4q-.4 0-.8-.6"/><path fill="#0f0e0b" d="M333.6 422.5q0-.5.6-1 .7-.2 1 .3-.2.9-.8 1.3-.4 0-.8-.6"/><path fill="#0f0e0b" d="M334.8 421h1.4q0 .4-.8 1-.5.1-.8-.4-.2-.2.2-.5M322.5 435q-.8-.2-.7-1.2.9-.7 1.3-.5.9.6-.6 1.6"/><path fill="#795729" d="M916 416.7q2 1.3 4 3-.2.6-1.2.5c-1.7-.4-2.3-1.5-3.3-2.5q-.2-.7.4-1"/><path fill="#0f0e0b" d="M926.8 427.6q-1 0-1.4-.8-.1-.6.5-1 1 0 1.3.7.1.6-.4 1.1"/><path fill="#0f0e0b" d="M924.9 424.8q.9.1 1.3.7 0 .4-.7.9-.7 0-1.2-.6 0-.6.6-1M921.2 421.3q1 .8 1.3 1.5-.6 0-1.4-.3-.4-.8 0-1.2M918.6 420.3q0-.4 1-.3.7 0 .8.3.2.5-.2.9-.9-.4-1.6-1"/><path fill="#795729" d="M915.6 417.3q-.5-.4-.6-1 .4 0 1.1.2 0 .3-.5.8M913.3 415q.4-.2.7.3-.5.2-.7-.3M913 415l-.6-.5h.8q.2.2-.1.4"/><path fill="#0f0e0b" d="M923.8 424.7c-.7-.4-1.8-.5-1.3-1.6.4-.7.8 0 1.4.4q.4.7-.1 1.2"/><path fill="#0f0e0b" d="M924 424q.7 0 1.1.5 0 .4-.6.9-.7.1-1-.4 0-.3.5-1M921 422q-.6 0-1-.6c-.2-.2.2-.6.4-.8q.6 0 1 .6.1.3-.4.7M930 429.7c1 .4 1.9.9 1.4 1.8q-.5.9-2-.5-.2-1 .6-1.3"/><path fill="#0f0e0b" d="M929 428.7q1 0 1.3.7 0 .4-.8 1-1 0-1.2-.6t.7-1"/><path fill="#0f0e0b" d="M928.5 429.3q-.8.2-1.2-.5 0-.6.6-1 1 0 1.4.6-.1.5-.8 1"/><path fill="#0f0e0b" d="M927 427q.8-.2 1.2.5 0 .4-.7.8-.8.2-1-.3 0-.5.6-1"/><path fill="#795729" d="M253.9 568.7q-.3.4-1.2.2c-.9-1.5-2.2-2.8-1.3-4.5 1.7.9 1.8 2.6 2.5 4.3"/><path fill="#d39a42" d="m253.7 574 1 1.7c-.7 0-2.9.5-1-1.6"/><path fill="#795729" d="M250.4 561.8q.3.3.2.7zM249.4 559c.3.3.3.6 0 0"/><path fill="#4a351b" d="M946.7 413.3a175 175 0 0 1-1.6-19.8q.2-1 .6-.8c1.6 6.6 1.9 13 2.4 19.9q-.5 1-1.4.7"/><path fill="#0f0e0b" d="M946.4 413.5q.5-.5 1.3-.5.5 2 .6 4.5-.2.6-1.1.5-.8-2-.8-4.5"/><path fill="#795729" d="M946 392.7q-.1.4-.6.4-1-1.6-.2-3.2c1.2.5.8 1.6.8 2.8M945.2 398.4q.9.6.3 2.4-.3-.8-.3-2.4"/><path fill="#c9913c" d="M320 660.7c-1.4 1.8-1.2 4.3-3.7 5.3a52 52 0 0 1 1.9-6.9c.2-.6.7-1.3 1.4-.5q.4.7.4 2.1"/><path fill="#dca348" d="M984.3 470.4a11 11 0 0 1-.2-3q2-.3 4 .2c2 .4 4.1 1 3.7 3.7-.3 2.2-1.2 4.3-3.9 4.5-3 .2-2.7-2.3-3-4.2zM984.1 464.8q-.4.3-.9.2c0-.8-.4-2.2 1-2 .7.2.4 1 0 1.8"/><path fill="#4a351b" d="M904.3 771.2q.4-10.6 1-21c1.7 6.6 1 13.4.6 20.5q-.6 1-1.6.5"/><path fill="#0f0e0b" d="M904 771.4q.5-.5 1.5-.3.4 1 .1 2.4-.7.5-1.5.5-.4-1-.1-2.6"/><path fill="#4a351b" d="M261.6 675q.4.5.3.9-.4.4-1.1.3-.6-.2-.7-.1l-.4-.3-4-5.7c-1-.6-1.2-1-1-2.2q3.3 3.1 7 7.1"/><path fill="#d59d44" d="m254.7 667.2.6 2.3c-2.8 0-3.3-2.6-4.2-5.1q0-.7.8-.6c1.8.6 2.1 2 2.8 3.4"/><path fill="#c9913c" d="m250 661-.3-.1zM252 663.8q0 .3-.7.2 0-.1.8-.2M250 661l.3.2h-.3z"/><path fill="#cd953e" d="M824.4 683c.5-1.5.3-3.7 2.5-2.9 1.1.5 1.2 2 .6 3-.8 1.5-2 2.4-3.1-.1"/><path fill="#4a351b" d="M999.7 669.8c0 2.5-2 4-3.4 6q-.5 0-.5-1a9 9 0 0 1 3.9-5"/><path fill="#0f0e0b" d="M991.6 680c1.6 2.7-.5 3.6-2.4 4.4-.4-2.3 1.2-3.1 2.4-4.4"/><path fill="#4a351b" d="M1000.7 668c.7.7.3 1.2-.4 2q-1-1 .4-2"/><path fill="#0f0e0b" d="M994.6 676c1.6.7.5 1.3-.2 2-1.4-.8-.5-1.2.2-2"/><path fill="#795729" d="M1003 665.7q-.1-.6.4-1 .1.6-.4 1"/><path fill="#c9913c" d="M1006.5 660.5"/><path fill="#0f0e0b" d="M995.7 674.6q.4 0 .3 1t-.8.7q-.2-1 .5-1.7M993.7 677.8q.3.8-.4 1.4-.3-.9.4-1.4M992.7 678.9q1 1-.4 1.4-.3-1 .4-1.4"/><path fill="#4a351b" d="M1001.8 667q.2.5-.6 1-.1-.4.6-1"/><path fill="#795729" d="M1003 666.8q-.2.4-.8.3-.2-.6.2-1.3.3-.2.6.2z"/><path fill="#c9913c" d="M1005.5 662.5"/><path fill="#795729" d="M941.8 671.7q-.4.5-1.3.4-.7-1.2-1.3-2.8-.5-.5-.5-1c.3-2-1-3.8 0-5.9a84 84 0 0 1 3 9.3"/><path fill="#0f0e0b" d="M262.8 676.9q.6.8.5 1.9c-1 .4-1.3-.2-1.8-1q0-.5.4-1 .4-.2.9 0M264.6 681.2q1.8 0 1.7 1.6-1.8.2-1.7-1.6"/><path fill="#0f0e0b" d="M263.9 680.4q.6-.4 1.2.3-.9 1.2-1.2-.3M260.5 676.3q.1-.3 1-.2h.5q.3 0 .2.6l-.6.7q-.6-.3-1-1M263 679.3q.8-1 1.1.4-.6.3-1.2-.4M265.9 683.3q.9-1.2 1.2.3-.7.5-1.2-.3M266.8 684.4q.8-.5 1.3.3-.9 1.2-1.3-.3"/><path fill="#d59d44" d="M601.8 345h-75.4v-1.4H610c-2.6 2.2-5.3 1-8.2 1.4"/><path fill="#e2aa4d" d="M939.8 672.2q.4.8.4 2.4-1.6-.6-.4-2.4M940.2 676q.2 0 .7.7-.3 0-.7-.7M938.8 668.2l.2.6q-.3 0-.2-.6"/><path fill="#dca348" d="M262.3 677q-.3-.2-.2-.8.3 0 .7.7z"/><path fill="#0f0e0b" d="M483.6 317q0-.7.4-1.2l.6.6q.1.8-1 .6"/><path fill="#e9b252" d="M437.3 522.2q-.2-39.5-.5-78.7c0-3.7 2-3.3 4.4-3.5a416 416 0 0 0 132-29.8 309 309 0 0 0 52-27.3c2-1.3 3.3-1.6 5.4-.2q40.5 26 87 40.3c2.7 3.2.3 4.8-1.7 7-4 2.2-7.5.8-11-.4a369 369 0 0 1-71.8-33.2c-3.3-2-6.3-2.1-9.8 0a359 359 0 0 1-96.4 40.3c-21.6 5.6-43.5 10-65.8 11.7q-2.4.3-4.9.7c-8.8 1.1-8.7 1.1-8.9 10.2-.1 10 .2 20-.6 30-.4 5.8.5 11.9.7 17.9.3 9.5-1.3 18.9-1.2 28.4a6 6 0 0 1-1.2 4c-3 1.4-3.7-.5-4-2.5q-.7-3.8-.3-7.4c.2-3-.6-5.4-3.4-7.5"/><path fill="#c9913c" d="M768.9 754.6a270 270 0 0 1-49 47.2c-28.2 22.1-59.2 40.1-89.4 59.4-2 1.2-3.3.9-5-.2-40.5-25.3-81.9-49.4-116.7-82.7a235 235 0 0 1-40-48.9c.4-3.1 1.8-5 5.4-4.8 3.5.6 5 3 6.6 5.4a250 250 0 0 0 41.7 47.5 427 427 0 0 0 58.2 43.6 2160 2160 0 0 0 42.6 27c3 1.8 5.5 2.4 8.7.3 27.4-17 55.1-33.7 80.7-53.4a302 302 0 0 0 45.8-43c1.6-1.9 3.3-3.7 6.5-3.5q4.4 1.5 3.9 6"/><path fill="#e2ac4f" d="M714.8 430.2c-.3-3 2.4-4.1 3.1-6.6a483 483 0 0 0 98.3 16.3c3.7.2 3.3 2.3 3.3 4.7v95.9c-.2 27.4.5 54.9-.5 82.3l-.6 5.9q-.5.6-1.3.7c-2.4-1.9-2.7-5.4-6.4-6.3-1-3-1.2-5.7.7-8.5 3.5-1.4 4.2-3.8 4.2-7v-34.1c0-2.8-.4-5.4-3.8-6.8-2.4-3.5-2.2-7.2-2.2-10.9V456c-.3-4.9-1.5-6-6.4-6.6a653 653 0 0 1-38.6-5 472 472 0 0 1-42.3-9.4c-2.8-.7-6-1-7.5-4.8"/><path fill="#cf963f" d="M816.6 629h1.3c-2.8 47-18.6 89-48.8 125.8q-2.3-2.2-4.6-5c-1.8-2.5-.4-4.2 1-6a204 204 0 0 0 31.7-59.4q6.3-18.7 9.4-38.1a56 56 0 0 1 1.7-7.6q.5-2.1.6-4.2.1-1.5 1-2.8c2.2-1.3 4-2.8 6.7-2.8M475.3 725.7c-2.8 0-4 2.2-6.2 3.3a194 194 0 0 1-25.8-63.3 243 243 0 0 1-5.1-33.3c4.3-4.2 6-3.6 9 2.9 2.5 7 3 14 4.3 20.9q6.3 32.6 22.2 61.9c1.2 2.2 3.2 4.4 1.6 7.6"/><path fill="#dfa74c" d="M446 636.8c-.8-.3-1.7-1-1.7-1.6-.2-3.9-2.4-4.2-5.7-3.3a85 85 0 0 1-1.6-18.8v-90.6c6-2.2 5.9-2.2 6 4.6.1 4-.6 8.2.8 12.5 3 2 2.5 4.7 2.5 7q.3 14.4 0 29.4c-2.2 4.8-2 9.2-.7 13.6q.6 2.5.7 6v11.8c-2.4 6.6-3 12.8.6 19.3.4 3.6.9 6.7-1 10"/><path fill="#e9b252" d="M621.5 288.3c-1.8-5.7-3.3-11-1.2-17 1.6-.7 1-2 1.4-3.2.1-.4.2-.2 0-.2q.9-.4 1-1.9v-.2c2.2-1.6 4.2-1.2 6.4.3 1.7 1.2 3.3 2.8 5.8 3.5 2.8 5.2 1.9 10.3.5 16 .7 5.3-1.8 9.4-3.5 13.7-.3 1-1.3 2.1-2.6 1.7s-1.3-1.9-1.3-3c0-4.7-.3-9.4.1-12.3-.2 3.8-.1 9.4 0 15 0 1.5.2 3-1.6 3.2-1.4.3-1.8-1.2-2.2-2.2-1.5-4.2-3.3-8.4-2.8-13.4"/><path fill="#d69e45" d="M577.3 314.2c-3.7 1.8-7 3.4-10.8 2.3-1.1-.3-2.4-.9-2.5-2.1 0-1.3 1.3-1.3 2.2-1.5 2.3-.6 4.1-2.1 6-3.4a21 21 0 0 1 23.8.7q5 3.7 11.1 3.7c2 0 4.4-.8 6.2 2a22 22 0 0 1-22.1-1.4c-4.6-2.9-9-3.3-14-.3"/><path fill="#d39a42" d="M688 312c1.8 1 3.7.7 4.9 2.5-1.9 2.6-4.5 2.5-7 1.8q-3.6-1.2-7-3c-5-2.5-9.5-1.5-14 1.2a26 26 0 0 1-21.4 2.5q1.2-1.6 1.7-1.8c7.9-1.2 14.5-5.6 21.7-8.3 8-3 14.5.6 21.2 5.2"/><path fill="#e2ac4f" d="M636.8 286.4c2.5-2.8 4.8-5.3 8.1-6.3 2.1-.6 4.4-.9 6 1 1.7 1.8 1.2 4 .6 6q-1 3.2-3.7 4.6c-7.1 3-11.1 8.7-14.3 15.2-.4.8-.7 2-2.3 1.3-1.3-1.3-2.5-2.6-1.7-4.1 2.9-5.6 3-12.3 7.3-17.7M623.5 309c-3-7.2-7-13-14-16.5l-1.7-1c-3.5-2.7-5.2-7.9-3-10 3.3-3.1 6.7-1.6 10 .4q3 2 5.1 5.8c4 5.8 4.5 12.3 5.7 18.6q.4 1.8-2.1 2.7"/><path fill="#d69e45" d="M655.6 293.5c4.5.5 7.1 2.7 7 6.8-.1 4.2-3.3 6.6-6.9 8.4q-1.8.8-3-.8-1.3-2 .5-3.6c1.8-1.5 3-3.2.2-4.6-2-1-4.3-1-4.4 2.3l-.1.9c-7-.4-6.6 7.6-11.4 9.6-2.4-8.1 7-18.2 18.1-19"/><path fill="#d39a42" d="M593 301.5q1.2-8.8 10-8c8.3.6 16.5 10 16.4 19-4.5-3-6.7-8.1-11.3-11-1.9-1.1-3.6-2.8-5.7-1.4-2.5 1.7 0 3.5.4 5.3.3 1 1.8 2 .4 3-1.2.9-2.6.5-3.8-.2-2.6-1.5-4-4.3-6.3-6.7"/><path fill="#4a351b" d="M623.1 309.3c2.2-5.2.5-9.9-.7-14.6q-.9-2.9-2.2-6.4.2-.5 1-.3c2 4.8 3.6 9.6 5.5 15.5.7-7.7 0-14.4 2.2-21v17l1 .2 5.2-13.5q.6-.2 1.5-.2a64 64 0 0 0-5.5 21.6q-.9.8-2 1.2-.7 2.9-3.6 2.5-1.4-1-2.4-2"/><path fill="#f0bf60" d="M635.2 269.3c-2 2.4-3.9 1.2-5.8 0-2-1.2-3.5-3.1-6.3-3.5 1-3 2.2-7.3 5.1-7.5 2.6 0 3.8 4.4 5.4 7q.8 1.7 1.6 4"/><path fill="#d19840" d="M625 311.4q1.7-1.2 3.7-2.3 1.6.8 2.6 1.8c1.4 1.5 4 3.4 3 5.1-.8 1.5-3.8 2.3-5.7 3-1.5.4-4.2-1.6-5.6-3.2-1-1.2.8-2.8 2-4.4"/><path fill="#f0bf60" d="M621.6 268c.2.7.2 1.7-.9 2.7q0-1 .9-2.7M622.5 265.9q0 .6-.6 1.8 0-.6.6-1.8"/><path fill="#0f0e0b" d="m444 577.4.1-37q.2-44.2 0-87.8c0-4.3 1-5.4 5.4-5.8 60.9-4.9 118.6-20.4 171.2-52.2 5.7-3.4 9.6-3.1 15 .2a336 336 0 0 0 78.6 35c21.3 7 42.9 11 64.6 14.1a363 363 0 0 0 28.8 3c4.1.3 4.3 2 4.3 5.3v113.7c2.3.4 2.4 2 2.4 3.5V612q.1 1.6-1.7 2.7-1 3.6-.8 7.9l1.1 2c0 1.8-.5 3.3-.6 5.1q-.4 1.1-1 2-.6 1.4-.6 2.9 1.2 1.7 0 3.5a243 243 0 0 1-21.7 72.8 216 216 0 0 1-24.8 38.4c-33.5 40.2-76.6 67.7-120.2 94.6l-13 8.3c-1.7 1-3.1 1.6-5 .4-39.7-24.7-80.2-48.4-114-81.4a253 253 0 0 1-36.9-45 218 218 0 0 1-23.5-57.1 316 316 0 0 1-6-31.6l-.9-10c-1.6-6.5-.4-12.6-.8-19l.1-12c-1.5-6.5.2-12.6 0-19"/><path fill="#dfa74c" d="M812.6 614.8q-.7-23.8-.5-48c4.5-2.3 6-.5 6 4q-.3 20.4 0 40.9c0 4.5-1.5 5.3-5.5 3M811.8 625.2v-1.9q5.9-1.2 5.2 5.3c-1.5 1.8-3 3.1-5.6 3.4q-.5-.7-.3-1.7c1.2-1.7.9-3.2.7-5.1M810.7 638.2q-.3-.9 0-2.8 1.6.8 0 2.8"/><path fill="#e9b252" d="M443.8 608.4q.7 8.4 1 18.1c-3-1.6-1.7-4.7-1.7-7.4-.1-3.4-.6-7 .7-10.7M443.8 577.3q.4 8.6.3 18.2a39 39 0 0 1-.3-18.2"/><path fill="#e7af4f" d="M583.4 488.6c-18.4 2-29.6 12.6-37.3 28.3-3.2.9-3.5-1-3.5-3q0-2.2 1-4.3c6.5-10.2 6.4-22.1 9-33.4 1.3-6.2 3-7.3 9.4-7.8 9.4-.7 19-1.6 28.3-.8 23.5 1.9 47 .8 70.4.7q15.4-.1 30.8-1c6-.2 11.7 2.9 17.8 1.4.9-.3 1.8.6 2.5 1.9a1084 1084 0 0 1-25.3 30.7 6 6 0 0 0-4.6 2c-6 6.3-9.7 6-15.6-1 .7-4.1 4.4-5.5 6.3-8.4.9-1.3 2-2.3 1.2-4-.7-1.7-2.1-1.9-3.7-1.9q-42.8-.1-85.4.1-.4 0-1.3.5"/><path fill="#e0a94b" d="M692 596.2q.4-.6 1.4 0c.5 6.4-4 8.5-8.2 10.1-6 2.2-12.3 3.5-18 6.6q-1.4.5-3.3-.6c-23-19.7-48.9-23.7-77.6-16.4-2.5-2-1.7-4 0-5.6 10.2-9.8 18.5-21.3 28.3-31.4q11-11.3 20.9-24c5.3-6.7 11.8-12.5 17.3-19.1q1.1-1.4 3.5-1.5c5.5.3 11-.6 14.2 5.5-14.4 17.9-28.9 35.3-43.5 53 1.1 3.5 4.2 3.3 6.6 3 7.7-.5 14.9 2.7 22.5 2.5 3.1 0 5.9 2 8.6 3.4 5.4 3 11.4 4.6 17.4 6.8h.3c.5 2.1 3 1.6 4.5 3.2q.3.3.1.3.6.5 2 .8.2.2 0 .1l1 1q.1.1 0 0l1 1q.3 0 0 0z"/><path fill="#ca913c" d="M721.4 696.9c-6.4 22.7-20 39.9-39 52.9a100 100 0 0 1-31 14.2q-.7-.2-1.2-.8c1.9-8.2 4.5-16 12.2-19.9 4.5-2.2 9.8-3.1 14.1-.5q-4.4-.3-7.5-5.2c-1-1.1-1-2-1-3.5q.5-2 .4-4.4-.3-2 .8-3.1c6.6-6.4 10-14.8 13.8-22.9q.6-1.3 2-2.7c3-1 5.2-3 8-3.7 2.3-.6 3.1-2.6 3.7-4.9 1.3-4.8 8-10.2 12.8-10 4.5.3 6.8 3.8 8.8 7.3 1.3 2.1 2 4.6 3.1 7.2"/><path fill="#d19840" d="m669.9 732.6.1 4c.7 3.5-1 5.3-3.7 5.7-6 .8-9.7 4.3-11.6 9.5-3 8.4-9.4 11.3-17.6 11.3-3.1 0-2.2 2.3-2.7 4.1-22.8 3.4-44.6 1-65.2-9.3a68 68 0 0 1-35.7-42.6l-.4-1c0-2.5-.6-5 2.4-5.5 3.6-.5 3.8 3.1 5.6 5.3 10.2 21.3 28.4 32.2 49.7 37 26.2 5.8 50.6 0 71.6-17.4 1.4-1.2 2.6-2.6 5-2.8q1.7.2 2.5 1.7"/><path fill="#dba247" d="M708.1 611.8a87 87 0 0 1 18 51.8c-2.4 1.8-3.3.2-4-1.6-.5-1-.5-2.5-2.1-2.3-1.4.2-1.6 1.6-1.9 2.7q-.9 3.8-4.8 4.4c-3 .4-5.3-1-6-4-.8-4.2-2.4-3-4.4-1-3.2 3.3-7 5.5-12.1 5-3-3.4-2.6-7.2-1.2-10.5 1.3-3.3.8-5.5-1-8.3-2.1-3.3-3.5-7.2-7.3-9.7q-2.4-4.3-4.5-8.8c-.7-5.7 2.8-9 6.7-11 6.3-3.4 12.5-7.8 20.3-7.3q2-.1 4.3.6"/><path fill="#e9b658" d="M681 638.4c4-1 6.3 1 7.7 4.4q1.3 3.5 3.7 6.4c1.3 1.6 2 3.6.6 5.5-2.3 3.2-2 6.8-2 10.9q2 2.2 2.2 4.7c.5 8.3-.5 16.5-2 24.7-.5 2.7-2.7 4.4-4.9 6.7a90 90 0 0 1-16.3 27.9c-.5 1-.8 1.7-1.8 2.2a100 100 0 0 1-30.7 18.7 87.5 87.5 0 0 1-72-7.2c-4.6-2.3-7.6-6.4-11.4-9.6-2.3-1.9-4.3-4.1-7.5-4.8-.8-.1-2-.3-1.8-1.3.5-4.4-3.5-7.5-3.2-12.2a100 100 0 0 0 27.1 25.1A79 79 0 0 0 671 720.7c16.5-22.2 18.5-47.5 12.5-73.8q-1-4-2.4-8.5"/><path fill="#d19840" d="M686.4 702c4.5-11.2 4.6-23.1 4.6-35.5 4.2-2.6 9-3.9 11.7-8.3 1.1-1.7 3.2-2.5 5.3-1.7 2.2.8 2 2.8 1.7 4.6-.3 2 0 3.4 2.2 3.7q3.1.5 4-2.7.2-1.9.6-3.4c1.1-2.4 3.4-3.4 5.7-3.1s1.6 2.5 1.8 4-.1 3 1.7 4.2a83 83 0 0 1-4 33.1q-4.1-.6-5.2-5c-.9-3.6-3.1-7-7.3-7.2-4.1-.1-9.6 4.9-10.2 8.6-.6 4-2.3 6.4-6.5 7-2 .1-3.8 1-6.1 1.6"/><path fill="#f0bf60" d="M656.3 515.8c-7 7.7-14.6 14.4-20.6 22.6a36 36 0 0 1-5.8 6.2c-8.3 6.9-14.2 16-21.6 23.7-7.8 8.3-16.3 16.7-22.3 27.2q-1.5 1.1-2.8 1.5c-1.2.3-2.4 1.4-3.6-.3-1.4-2 .4-2.7 1.3-3.6l83.7-93.3 9.6-10.8h-90.7c.7-2.5 2.9-2 4.8-2h80.4q1.7 0 3.4.3c6 1.5 6.3 2.9 2.6 7.7-2.2 2.8-5 4.9-7.5 7.7q.2 1.3-.1 2.8c-3.3 4-5 9-10.8 10.3"/><path fill="#f0bf60" d="M712.3 470.8c-1.7-.3-3.6-1.4-4.4 0-2.5 5-4.6 1.7-6.8 0-2.4-2-5.3-1.9-8.1-1.8q-44.7 1.3-89.4 1c-8.2 0-16.2-1.6-24.4-1l-18.4 1c-2.8.2-5 1.7-5.5 4.4-1.4 8.4-3.8 16.8-3.4 25.5q-.1 2.6-2.2 4.1c-3.6 3.4-5.9 7.4-4.3 12.8q-.7 3.4-1.8 6.7c-.8 2.9-2.9 3-5 2.3-2.9-1-.7-2.9-.4-4a355 355 0 0 0 12.8-51.5c1.1-4 3.7-4.4 7-4.4q64.4.2 128.7 0c9.3 0 18.6-.1 28.2.9q-.8 2.1-2.6 4"/><path fill="#e7af4f" d="M708.4 611.5c-6 3.2-12.8 2.8-19 6.3-5 3-9.2 6-12.4 11.1-4-5.7-8-11.3-13.3-16.5 6.3-4 13.3-6.4 20.5-8.2 3.8-.9 6.4-4 9-7.3q.4-.3.4-.1l1.3 1c5.8 3.4 9.6 8.4 13.5 13.7"/><path fill="#f2d376" d="M715.6 466.8q-78.9.4-157.3.2c-2.7 0-4.8.6-6.9 2.8-1-4.1.8-5 5-5l155.2.1c1.4 0 4-1.5 4 2"/><path fill="#cd953e" d="M634.6 767.6c-1-2.2-5.6-.5-4.4-3.8 1-2.8 4-2.9 6.8-2.6 5.1.5 10-1 12.8-5.1 4.7-7 8.7-14.2 17.6-16.5.8-.3 1.4-1.4 2.4-2.4 4.5 3.3 9.2 6 16.2 4.4-2.4 3.8-4.6 3.4-6.8 3q-6.4-1.2-12.8-.7-7.4.9-9.8 7.3c-1.5 4-3.5 7.5-5.5 11.5-2.9 2.3-6.6 1.6-9.8 3.5q-1 .5-2 .6c-1.2-.7-2-.9-3.2.2q-.7.5-1.5.6"/><path fill="#f0bf60" d="M682.3 588.2a30 30 0 0 1-21.7-7.1 7 7 0 0 0-5.6-1.6c-8.7 1.6-17-2.8-25.6-1.7-2.3.3-4.4-1.3-2.9-4.6 10.6 1.3 21.1 1.5 31.2 4.7 8.4 2.6 16.7 5.5 24.6 10.3"/><path fill="#e7af4f" d="M656.4 516c2.8-3.5 5.3-7.7 9.3-10.8 2.6 0 4.6 1.1 6.8 1.7 5 1.2 5.2 1.7 2.8 7l-4.5 6.2a37 37 0 0 0-14.4-4.1"/><path fill="#dfa74c" d="M675.4 514c.6-4 0-6.8-5.4-5.2-2.1.6-3.3-1.1-4-3.4.2-1 .4-1.4.9-2.2 1.7-.2 3.3-.3 4.4.8 4 4.1 6.5 1.5 8.4-2 1.7-3 3.5-4 6.3-.9q-5 6.6-10.6 13"/><path fill="#e2ac4f" d="M541.6 714.7q.2.5-.1.4-1.4-1.2-2.4-2.5-3.6-5-5.8 1c-2.2-3.2-2.2-7.2-3.3-11-.7-2.8 1.6-3.6 3.3-4.1 2.3-.8 2 1.7 2.4 2.8z"/><path fill="#d19840" d="M641.4 766.4c1.5-4.1 5.8-2.1 9.2-3.4q.5.2.4.7c-2.9 2-6.2 2-9.6 2.7"/><path fill="#e2ac4f" d="M811.6 625.2c1.4 1.2 2 2.8 0 4.6q-.4-2 0-4.6"/><path fill="#f0bf60" d="M687 591.6c-1.8 0-3.7-.4-4.5-2.9q2.1.9 4.5 3"/><path fill="#d19840" d="M636.4 767.3c.1-1.5.7-2.8 2.5-.8q-1 .6-2.5.8"/><path fill="#e2ac4f" d="M533.4 715.3c.6 0 1.4.3.7 1.5q-.4-.4-.7-1.5"/><path fill="#f0bf60" d="M689 592.6q-.6 0-1.8-.5.6 0 1.8.5M695 597.6q-.3 0-1.2-.6.3 0 1.2.6M692.5 596q-.7.1-1.3-.9.7 0 1.3 1M691.3 594.6q-.4 0-1-.7.1 0 1 .7M690.2 593.7q-.3 0-1-.7.2 0 1 .7"/><path fill="#cd953e" d="M668.2 732.1a5 5 0 0 1 1.4-2c.7.6 1.2 1.5.6 2.7q-1 0-2-.7"/></svg>